<?xml version="1.0" encoding="UTF-8" standalone="no"?>
<!-- Created with Vectornator for iOS (http://vectornator.io/) -->

<svg
   height="100"
   style="clip-rule:evenodd;fill-rule:nonzero;stroke-linecap:round;stroke-linejoin:round"
   xml:space="preserve"
   width="165.01389"
   version="1.1"
   viewBox="0 0 165.01389 99.999998"
   id="svg45"
   sodipodi:docname="legs.svg"
   inkscape:version="1.1.1 (3bf5ae0d25, 2021-09-20)"
   xmlns:inkscape="http://www.inkscape.org/namespaces/inkscape"
   xmlns:sodipodi="http://sodipodi.sourceforge.net/DTD/sodipodi-0.dtd"
   xmlns="http://www.w3.org/2000/svg"
   xmlns:svg="http://www.w3.org/2000/svg"><sodipodi:namedview
   id="namedview47"
   pagecolor="#ffffff"
   bordercolor="#666666"
   borderopacity="1.0"
   inkscape:pageshadow="2"
   inkscape:pageopacity="0.0"
   inkscape:pagecheckerboard="0"
   showgrid="false"
   inkscape:zoom="1.5145833"
   inkscape:cx="-315.26823"
   inkscape:cy="-106.62999"
   inkscape:window-width="2523"
   inkscape:window-height="1412"
   inkscape:window-x="37"
   inkscape:window-y="0"
   inkscape:window-maximized="1"
   inkscape:current-layer="svg45"
   fit-margin-top="0"
   fit-margin-left="0"
   fit-margin-right="0"
   fit-margin-bottom="0" />
<defs
   id="defs2">




















</defs>
<path
   stroke="#000000"
   stroke-width="4"
   d="m 73.456066,5.10819 c -5.015,1.748 -2.426,63.741 1.399,75.178 -3.571,-2.022 -16.038,-4.052 -22.9,7.124 -0.898,1.464 16.539,5.853 30.534,1.273 11.704,5.343 27.271004,-0.106 26.717004,-1.527 -4.591,-11.772 -21.239004,-5.03 -21.119004,-5.598 2.764,-13.106 7.966,-71.467 4.416,-75.017 -2.287,-2.287 -15.53,-2.66 -19.047,-1.433 z"
   fill="#ffffff"
   stroke-linecap="round"
   opacity="1"
   stroke-linejoin="round"
   id="path4" /><path
   stroke="#000000"
   stroke-width="4"
   d="m 81.725066,23.29019 c 0,22.283 0.255,43.552 0.255,65.647"
   fill="#ffffff"
   stroke-linecap="round"
   opacity="1"
   stroke-linejoin="round"
   id="path10" /><path
   stroke="#000000"
   stroke-width="4"
   d="m 356.03507,-222.14801 c 0.393,-1.1809 -0.015,-0.8307 1.384,-0.8307"
   fill="#ffffff"
   stroke-linecap="round"
   opacity="1"
   stroke-linejoin="round"
   id="path20" />
</svg>
