<svg height="20" width="20"
     viewBox="0 0 22.43116 22.43116"
     xmlns="http://www.w3.org/2000/svg">
  <g transform="translate(-0.80412488,-0.76590169)"
     stroke-linecap="round"  stroke-linejoin="round" fill="#ffffff" stroke="#000000" stroke-width="0.45">
    <path d="m 19.8592,5.31693 c 0.6328,0.29235 2.36,1.04794 2.5311,1.16941 -1.5421,1.65699 -2.9929,0.36073 -2.5311,-1.16941 z"/>
    <path d="M 16.8518,3.06775 C 16.3817,2.55311 15.1389,1.13546 14.9714,1.00916 c -1.1128,1.97112 0.5617,2.96175 1.8804,2.05859 z"/>
    <path d="m 1.79671,13.6216 c 0,-5.1745 4.19476,-9.36925 9.36929,-9.36925 5.1744,0 9.3692,4.19475 9.3692,9.36925 0,5.1745 -4.1948,9.3692 -9.3692,9.3692 -2.06459,0 -3.97318,-0.6677 -5.5216,-1.799 -0.43313,-0.3165 -4.03467,1.7909 -4.03467,1.7909 l 1.82121,-4.0725 c 0,0 -1.63423,-3.3264 -1.63423,-5.2886 z"/>
    <path d="m 16.9916,4.16174 c 0,0 -1.858,0.96126 -2.3486,1.89762 0.5858,1.00085 1.8513,1.68866 2.8306,2.38636 0.9726,-0.69376 1.515,-2.79028 1.515,-2.79028 z"/>
    <path d="m 16.7252,2.87972 c 0.5209,-0.66526 1.3416,-0.8926 1.833,-0.50777 0.4915,0.38482 0.4676,1.23608 -0.0533,1.90134 -0.5209,0.66526 -1.3416,0.89259 -1.833,0.50777 -0.4915,-0.38482 -0.4676,-1.23608 0.0533,-1.90134 z"/>
    <path d="M 18.3049,4.09284 C 18.8258,3.42758 19.6465,3.20024 20.138,3.58507 20.6294,3.96989 20.6056,4.82115 20.0847,5.48641 19.5638,6.15167 18.7431,6.379 18.2516,5.99418 17.7601,5.60935 17.784,4.75809 18.3049,4.09284 Z"/>
    <path d="m 17.6718,3.55492 c -0.0183,0 -0.0114,-0.00397 -0.02,0.01334"/>
    <path d="m 19.2522,4.68187 h -0.0267 -0.0133 0.0133 v 0"/>
  </g>
</svg>
