<?xml version="1.0" encoding="UTF-8" standalone="no"?>
<svg
   viewBox="0 0 252.85863 194.49997"
   width="252.85863"
   height="194.49997"
   version="1.1"
   id="svg80"
   sodipodi:docname="strawphant_ui_plane.svg"
   inkscape:version="1.1.1 (3bf5ae0d25, 2021-09-20)"
   inkscape:export-filename="/home/weizhen/Downloads/tmp/strawberry/strawphant_ui_plane.png"
   inkscape:export-xdpi="121.49081"
   inkscape:export-ydpi="121.49081"
   xmlns:inkscape="http://www.inkscape.org/namespaces/inkscape"
   xmlns:sodipodi="http://sodipodi.sourceforge.net/DTD/sodipodi-0.dtd"
   xmlns:xlink="http://www.w3.org/1999/xlink"
   xmlns="http://www.w3.org/2000/svg"
   xmlns:svg="http://www.w3.org/2000/svg">
  <defs
     id="defs84">
    <defs
       id="defs3">
      <path
         id="a"
         d="M395.89999 745.09998H690.5V1024.9H395.89999z" />
    </defs>
    <clipPath
       id="b">
      <use
         xlink:href="#a"
         width="100%"
         height="100%"
         overflow="visible"
         id="use5" />
    </clipPath>
  </defs>
  <sodipodi:namedview
     id="namedview82"
     pagecolor="#ffffff"
     bordercolor="#666666"
     borderopacity="1.0"
     inkscape:pageshadow="2"
     inkscape:pageopacity="0.0"
     inkscape:pagecheckerboard="0"
     showgrid="false"
     inkscape:zoom="3.7377898"
     inkscape:cx="130.95975"
     inkscape:cy="97.517522"
     inkscape:window-width="1533"
     inkscape:window-height="932"
     inkscape:window-x="268"
     inkscape:window-y="195"
     inkscape:window-maximized="0"
     inkscape:current-layer="svg80" />
  <path
     class="st53"
     d="m 339.3,1028.6 c 1.5,-3.2 14.4,-31.3 27.4,-58.8 -6,-9.3 -2,-17 1.5,-23.7 1.9,-3.7 3.8,-7.1 3.6,-10.4 -0.8,-22 8.1,-38.3 22.8,-41.6 2.8,-0.6 5.2,-0.9 7.5,-0.9 3,0 5.6,0.5 8.1,1.6 1.4,-1.3 2.8,-2.6 4.2,-3.8 -2.8,-2.6 -4.3,-5.5 -4.5,-8.8 -0.3,-4.5 2.2,-9.5 6.8,-13.7 5.3,-4.8 16.5,-12.9 31.7,-12.9 0.9,0 1.7,0 2.6,0.1 -0.4,-0.9 -1,-2 -2.1,-2.9 -2.1,-1.6 -1.9,-3.2 -1.6,-4 0.7,-2.1 3.6,-3.2 8.1,-3.2 3.9,0 9.7,1.2 14,4.4 0.3,-0.7 0.7,-1.3 1.3,-1.7 0.5,-0.3 1.3,-0.5 2.2,-0.5 3.4,0 10.6,2.7 15.5,9.9 3.6,5.3 3.6,10.8 0.1,16 18.3,4.7 30.1,15.6 39.5,24.4 2.5,2.4 5,4.6 7.3,6.5 10.7,8.9 21.4,13.2 32.7,13.2 0.9,0 1.8,0 2.7,-0.1 2,-13.5 -4.1,-25.5 -10,-35.7 -6.2,-10.7 -6.4,-12.1 -4.9,-13.9 l 0.1,-0.1 c 0.6,-0.7 1.3,-1 2.1,-1.1 h 0.3 c 1.7,0 4.5,1 13,8.7 9.9,9 16.9,22.2 19.2,36.5 8.9,-4.9 15.2,-12.5 17.1,-20.3 2,-8.6 0.5,-16.8 -4.2,-22.7 l -13.1,6.1 -7,-16.9 -15.6,3.2 7.2,-19.5 h 0.1 l -0.2,-0.5 4.6,-11.1 65.7,11.9 c 3.1,0.6 3.9,2.7 3.6,4.5 l -0.2,1 -0.4,-0.1 c -0.3,0.4 -0.6,0.7 -1,0.9 -0.7,0.3 -7.5,3.6 -21,9.9 2.1,2.9 2.2,6.1 0.4,9.4 -1.1,1.9 -2.5,6.2 0.4,13.3 3.7,8.9 3.5,29.2 -8.3,46.2 -8.1,11.7 -18.3,23 -37.6,26.6 -3,4.6 -6.5,9 -10.2,12.6 -7.8,7.6 -24,15.3 -42.3,15.3 -5.3,0 -10.7,-0.6 -15.9,-1.9 -7.6,12.9 -10.5,26.2 -10.6,32.1 -0.2,11 0.9,16.1 0.9,16.2 l 0.4,1.8 -164.9,0.8 z"
     clip-path="url(#b)"
     id="path8"
     transform="translate(-395.89999,-830.4)" />
  <path
     class="st53"
     d="m 339.8,1028.8 c 0.1,-0.3 13.9,-30.1 27.5,-59.1 -6.1,-9.2 -2.1,-16.8 1.4,-23.5 2,-3.7 3.8,-7.3 3.7,-10.6 -0.8,-21.7 8,-37.9 22.4,-41 2.7,-0.6 5.1,-0.9 7.4,-0.9 3,0 5.7,0.5 8.2,1.7 1.6,-1.6 3.2,-3 4.9,-4.4 -3,-2.6 -4.6,-5.5 -4.8,-8.8 -0.3,-4.4 2.1,-9.2 6.6,-13.3 5.3,-4.8 16.4,-12.8 31.4,-12.8 1.1,0 2.2,0 3.3,0.1 -0.3,-1.1 -1,-2.7 -2.5,-3.8 -1.8,-1.4 -1.7,-2.8 -1.5,-3.4 0.6,-1.8 3.4,-2.9 7.6,-2.9 4.4,0 10.3,1.5 14.3,4.8 0.1,-0.9 0.6,-1.7 1.3,-2.1 0.4,-0.3 1.1,-0.4 1.9,-0.4 3.3,0 10.3,2.6 15.1,9.7 3.6,5.3 3.5,10.9 -0.3,16.1 18.6,4.6 30.5,15.6 40,24.4 2.6,2.4 5,4.6 7.3,6.5 10.8,8.9 21.6,13.3 33.1,13.3 1,0 2.1,0 3.1,-0.1 2.2,-13.9 -4,-26.1 -10,-36.4 -6.3,-10.9 -6.2,-11.8 -5,-13.3 l 0.1,-0.1 c 0.2,-0.2 0.7,-0.9 1.8,-0.9 h 0.2 c 1.5,0 4.2,1 12.7,8.6 10,9.1 17,22.5 19.2,36.9 9.3,-5 16,-12.8 17.9,-20.9 2.1,-8.9 0.4,-17.4 -4.5,-23.4 l -13,6.1 -6.9,-16.8 -15.1,3.1 6.8,-18.4 h 0.6 l -0.5,-1 4.4,-10.6 65.3,11.8 c 3.5,0.7 3.3,3.2 3.2,3.9 l -0.1,0.5 h -0.2 c -0.2,0.4 -0.6,0.8 -1,1 -0.7,0.3 -7.9,3.7 -21.6,10.2 0.1,0.1 0.2,0.2 0.3,0.4 2,2.7 2.2,5.8 0.4,8.9 -1.1,2 -2.6,6.4 0.4,13.7 3.6,8.8 3.4,28.8 -8.2,45.7 -8.1,11.7 -18.2,22.9 -37.5,26.4 -3,4.7 -6.5,9.1 -10.3,12.7 -7.8,7.5 -23.7,15.1 -42,15.1 -5.4,0 -10.9,-0.7 -16.1,-2 -7.7,13.1 -10.7,26.7 -10.9,32.7 -0.2,11.1 0.9,16.2 0.9,16.3 l 0.3,1.2 -163.5,0.8 z"
     clip-path="url(#b)"
     id="path10"
     transform="translate(-395.89999,-830.4)" />
  <path
     d="m 577.5,843.7 -1,-2.1 3.9,-9.4 64.5,11.6 c 2.4,0.5 2.5,2 2.4,2.8"
     clip-path="url(#b)"
     stroke-miterlimit="10"
     fill="#ffffff"
     stroke="#000000"
     stroke-linecap="round"
     stroke-linejoin="round"
     id="path12"
     transform="translate(-395.89999,-830.4)" />
  <path
     d="m 584.2,856.7 6.9,16.6 c 0,0 53.7,-25.1 55.5,-26 0.9,-0.5 1.5,-2.2 -1,-2.3 -2.5,-0.1 -69.6,-1.4 -69.6,-1.4 l -5.9,16 z"
     clip-path="url(#b)"
     stroke-miterlimit="10"
     fill="#ffffff"
     stroke="#000000"
     stroke-width="1.7"
     stroke-linecap="round"
     stroke-linejoin="round"
     id="path14"
     transform="translate(-395.89999,-830.4)" />
  <path
     d="m 585.1,857 58.9,-11.2 1.4,-0.5 h 0.4 c 0.8,0 0.7,0.3 0.8,0.6 0.1,0.3 -0.1,0.6 -0.4,0.8 L 587,861.5 Z"
     clip-path="url(#b)"
     fill="#d1d3d4"
     id="path16"
     transform="translate(-395.89999,-830.4)" />
  <path
     class="st57"
     clip-path="url(#b)"
     stroke-miterlimit="10"
     d="M 584.20001,856.70001 646,845.20001"
     fill="none"
     stroke="#000000"
     stroke-linecap="round"
     stroke-linejoin="round"
     id="path18"
     transform="translate(-395.89999,-830.4)" />
  <path
     class="st58"
     d="m 388.5,927.9 c 20,-40 49.9,-56.3 83.4,-54.9 33.6,1.4 48.8,21.7 62.4,32.9 13.6,11.2 27.5,15.6 43.4,12.5 15.9,-3.1 28.5,-14.6 31.2,-26.1 2.7,-11.5 -1,-20.7 -6.1,-25.8 -5.1,-5.1 -1.4,-8.1 4.1,-6.8 5.4,1.4 8.1,3.4 8.1,3.4 0,0 7.8,-6.4 9.8,-3.7 2,2.7 1.7,5.4 0.3,7.8 -1.4,2.4 -2.7,7.1 0.3,14.6 3.1,7.5 4.1,27.1 -8.1,44.8 -12.2,17.6 -26.5,30.1 -62.1,26.5 -38.5,-3.9 -54.6,44.2 -54.9,59 -0.2,11.5 0.9,16.5 0.9,16.5 l -160.7,0.8 c 0.2,-0.1 33.4,-72.4 48,-101.5 z"
     clip-path="url(#b)"
     stroke-miterlimit="10"
     fill="#d21f1e"
     stroke="#000000"
     stroke-linecap="round"
     stroke-linejoin="round"
     id="path20"
     transform="translate(-395.89999,-830.4)"
     style="fill:#ff5555;fill-opacity:1" />
  <path
     class="st59"
     d="m 399.4,989.3 c -6.1,0 -9.9,-4.3 -10,-4.3 l -0.2,-0.2 -0.3,0.1 c -3.1,1 -6.1,1.5 -9,1.5 -6.1,0 -11.4,-2.2 -15.6,-6.5 1.4,-3 2.9,-6.1 4.3,-9.1 0.1,0.1 0.1,0.2 0.2,0.3 6.1,8 12.7,9.7 17,9.7 3.2,0 5.6,-0.9 6.6,-1.3 0.7,1.3 3,4.7 7.5,4.7 1.2,0 2.5,-0.3 3.9,-0.8 6.7,-2.5 15.7,-13.1 18.3,-22.1 3.2,5.7 -2.8,18.3 -13.8,25.3 -3,1.7 -6,2.7 -8.9,2.7 z m 24.5,-78.1 c -5.7,-11.1 -10.8,-14.2 -12.4,-14.9 15.7,-15.3 34.7,-23 56.6,-23 1.3,0 2.5,0 3.8,0.1 2.1,0.1 4.2,0.3 6.4,0.5 1.5,2.7 -0.4,5.6 -0.8,6.3 -3,0.8 -11.2,6.5 -18.5,11.6 -1.9,1.3 -3.7,2.6 -5.3,3.7 -5.3,3.7 -13.6,4.2 -18,4.2 -1.8,0 -2.9,-0.1 -2.9,-0.1 h -0.3 z m 95.3,49 c 4.2,-7.1 12.6,-15.2 28.3,-15.2 3.5,0 7.2,0.4 11,1.2 3.4,0.7 7,1.1 10.6,1.1 15.9,0 29.8,-7.9 34.8,-12.5 6.5,-6 10.5,-9.8 12,-12.4 1.4,-2.4 3.2,-2.8 4.7,-2 0.1,0.1 -0.7,1.1 -0.6,1.1 -0.9,1.7 -1.9,3.3 -3,4.8 -11.5,16.6 -23.9,26.9 -50,26.9 -3.6,0 -7.5,-0.2 -11.6,-0.6 -1.5,-0.2 -3,-0.2 -4.4,-0.2 -9.4,0 -18.1,3.2 -25.9,9.4 z"
     clip-path="url(#b)"
     fill="#820d11"
     id="path22"
     transform="translate(-395.89999,-830.4)" />
  <path
     class="st58"
     d="m 427.4,920.5 c -9.1,-24.2 -19,-27.9 -32.4,-25 -13.4,3 -22.4,18 -21.6,40 0.4,10.2 -15.5,20.5 -4.3,35 11.2,14.5 23.5,8 23.5,8 0,0 3,7.1 11,4.1 8,-3 16.7,-13.5 18.5,-21.6"
     clip-path="url(#b)"
     stroke-miterlimit="10"
     fill="#d21f1e"
     stroke="#000000"
     stroke-linecap="round"
     stroke-linejoin="round"
     id="path24"
     transform="translate(-395.89999,-830.4)"
     style="fill:#ff5555;fill-opacity:1" />
  <path
     class="st59"
     d="m 417.2,934.2 c -7.3,0.5 -8.6,-4.8 -7.3,-7 1.2,-2.1 4.6,-3.2 4.6,-3.2 0,0 -5.3,-0.2 -6.3,-4 -1,-3.7 4,-5.3 4,-5.3 0,0 -2.9,-8.6 -13.3,-6.1 -10.4,2.5 -14.4,11.7 -14.2,19 0.6,15.3 -10.2,22.8 0,29.7 10.1,6.9 23.7,-2.8 28.5,-11.3 4.8,-8.5 4,-11.8 4,-11.8 z"
     clip-path="url(#b)"
     fill="#a83434"
     id="path26"
     transform="translate(-395.89999,-830.4)"
     style="fill:#820d11;fill-opacity:1" />
  <path
     class="st57"
     d="m 392.6,978.6 c 6.3,-3.9 9.1,-7.5 9.1,-7.5 m 15.5,-36.9 c -7.3,0.5 -8.6,-4.8 -7.3,-7 1.2,-2.1 4.6,-3.2 4.6,-3.2 0,0 -5.3,-0.2 -6.3,-4 -1,-3.7 4,-5.3 4,-5.3 0,0 -2.9,-8.6 -13.3,-6.1 -10.4,2.5 -14.6,11.7 -14.2,19"
     clip-path="url(#b)"
     stroke-miterlimit="10"
     fill="none"
     stroke="#000000"
     stroke-linecap="round"
     stroke-linejoin="round"
     id="path28"
     transform="translate(-395.89999,-830.4)" />
  <path
     d="m 417.5,891.4 c -9.8,-6.9 -6.2,-16 0.3,-21.8 6.5,-5.8 19,-14 35.2,-12.2 0,0 -0.2,-3.5 -3.1,-5.8 -2.9,-2.3 -0.5,-4.5 5.5,-4.5 6,0 12.9,2.6 15.8,6.9 0,0 -1.4,-3.2 0.4,-4.4 1.8,-1.2 10.2,1 15.6,9 5.4,8 1.1,14.9 -5.2,19.9 -6.3,5 -36.2,11.6 -48.8,10.9"
     clip-path="url(#b)"
     fill="#679132"
     id="path30"
     transform="translate(-395.89999,-830.4)"
     style="fill:#88aa00" />
  <g
     class="st53"
     clip-path="url(#b)"
     id="g34"
     transform="translate(-395.89999,-830.4)"
     style="fill:#668000;fill-opacity:1">
    <path
       class="st36"
       d="m 459.5,878.7 c -11.1,0.6 -22.1,3.3 -32.9,6.1 -4.1,1.1 -8.2,2.2 -12.4,2 -0.4,0 -0.8,-0.1 -1.3,-0.1 1,1.6 2.5,3.2 4.6,4.7 l 15.6,-2.1 c 11.3,0.7 37,-4.7 46.4,-9.4 -6.5,-1.1 -13.3,-1.5 -20,-1.2 z"
       fill="#a83434"
       id="path32"
       style="fill:#668000;fill-opacity:1" />
  </g>
  <path
     class="st59"
     d="m 417.5,890.8 c -3.5,-2.5 -5.3,-5.5 -5.5,-8.8 -0.2,-3.2 1.2,-6.7 4,-9.9 -0.4,1.6 -0.2,3.2 0.5,4.7 1.2,2.5 3.6,4 6.3,4 2.1,0 4.3,-0.9 6.3,-2.6 7.2,-6 19.4,-10.4 29.1,-10.4 1.9,0 3.7,0.2 5.3,0.5 7.7,1.6 12.3,3.7 13.8,6.7 0.8,1.6 0.8,3.3 0,5.4 -10.1,4.3 -31.2,8.6 -42.1,8.6 -0.7,0 -1.4,0 -2.1,-0.1 -1.4,-0.1 -2.8,-0.1 -4,-0.1 -7.5,-0.1 -10.6,1.4 -11.6,2 z"
     clip-path="url(#b)"
     fill="#394b11"
     id="path36"
     transform="translate(-395.89999,-830.4)"
     style="fill:#668000" />
  <path
     class="st57"
     d="m 471.2,854 c 2.2,3.4 1.1,6.7 1.1,6.7"
     clip-path="url(#b)"
     stroke-miterlimit="10"
     fill="none"
     stroke="#000000"
     stroke-linecap="round"
     stroke-linejoin="round"
     id="path38"
     transform="translate(-395.89999,-830.4)" />
  <path
     d="m 489.6,967.9 c 34.6,23.5 68.7,8.7 80.2,-2.4 11.4,-11.1 20.8,-28.5 20,-45.9 -0.8,-17.4 -8.5,-32.9 -19.5,-42.8 -10.7,-9.6 -12.4,-8.7 -13.2,-7.7 -0.8,1 -1.4,1.1 5,12.2 6.4,11.1 13.4,24.6 9.5,40.2 -3.9,15.6 -15.6,29.9 -29.6,34 -14,4 -21.6,-1.4 -26.1,-3.2 0,0 1,4 -3.4,4.3 -4.3,0.3 -11.1,-2.9 -11.1,-2.9 0,0 2.7,3 0.1,5 -2.6,2 -5.9,-0.9 -5.9,-0.9 0,0 2.5,2.2 1.5,3.3 -1,1.1 -2.3,0.8 -4.2,-0.6 0,0 3.2,3.6 1,5.5 -2.2,1.9 -4.3,1.9 -4.3,1.9 z"
     clip-path="url(#b)"
     stroke-miterlimit="10"
     fill="#d9bfbf"
     stroke="#000000"
     stroke-width="1.6"
     stroke-linecap="round"
     stroke-linejoin="round"
     id="path40"
     transform="translate(-395.89999,-830.4)" />
  <path
     d="m 528.6,979.9 c -13.1,0 -25.8,-3.9 -37.6,-11.7 0.9,-0.2 2.1,-0.7 3.3,-1.8 1.4,-1.3 1,-3 0.3,-4.3 0.4,0.1 0.8,0.2 1.1,0.2 0.7,0 1.3,-0.3 1.8,-0.8 0.3,-0.3 0.4,-0.6 0.4,-1 0,-0.3 -0.1,-0.6 -0.2,-0.9 0.6,0.2 1.2,0.4 1.9,0.4 0.9,0 1.7,-0.3 2.4,-0.8 0.3,-0.2 0.5,-0.5 0.7,-0.8 12.6,6.2 22.6,9.1 31.5,9.1 7.8,0 14.7,-2.3 21.1,-6.9 16.8,-12.3 21.3,-21.3 24.6,-27.9 l 0.3,-0.6 c 2.3,-4.5 4.2,-6.5 6.4,-6.5 0.9,0 1.7,0.3 2.7,0.9 -1.4,13.6 -8.7,28 -19.6,38.6 -7.9,7.4 -23.4,14.8 -41.1,14.8 z"
     clip-path="url(#b)"
     fill="#b08f90"
     id="path42"
     transform="translate(-395.89999,-830.4)" />
  <path
     class="st57"
     d="m 489.6,967.9 c -3.9,0.1 -6.7,-0.9 -6.7,-0.9"
     clip-path="url(#b)"
     stroke-miterlimit="10"
     fill="none"
     stroke="#000000"
     stroke-linecap="round"
     stroke-linejoin="round"
     id="path44"
     transform="translate(-395.89999,-830.4)" />
  <path
     d="m 484,908.3 c -2.2,0.9 -2.1,3.2 0.1,6.7 2.1,3.5 4.5,7.9 5.9,10.3 1.4,2.4 2.6,3.5 4,2.8 1.4,-0.6 1.8,-2 0.4,-4.9 -1.4,-2.9 -5.8,-11 -7.2,-12.7 -1.6,-1.7 -2.4,-2.5 -3.2,-2.2 z"
     clip-path="url(#b)"
     stroke-miterlimit="10"
     fill="#300404"
     stroke="#000000"
     stroke-width="1.5"
     stroke-linecap="round"
     stroke-linejoin="round"
     id="path46"
     transform="translate(-395.89999,-830.4)" />
  <path
     class="st57"
     d="m 525.9,907.8 c 2.5,-3.7 4.8,-5.2 4.8,-5.2 m 3.8,11.9 c 1.5,-3.1 3.7,-5.6 3.7,-5.6 m 11.9,13.3 c 1,-3.9 2.7,-5.6 2.7,-5.6 m 10.7,9 c 0.6,-4.6 0.9,-6.6 0.9,-6.6"
     clip-path="url(#b)"
     stroke-miterlimit="10"
     fill="none"
     stroke="#000000"
     stroke-linecap="round"
     stroke-linejoin="round"
     id="path48"
     transform="translate(-395.89999,-830.4)" />
  <g
     class="st53"
     clip-path="url(#b)"
     id="g56"
     transform="translate(-395.89999,-830.4)">
    <path
       class="st49"
       d="m 504.9,862.2 c 0.8,-0.4 1.5,-0.8 2.2,-1.1"
       fill="none"
       stroke="#e3e5e5"
       stroke-width="3"
       stroke-linecap="round"
       stroke-linejoin="round"
       id="path50" />
    <path
       d="m 519.8,856.2 c 13.6,-3.5 22.1,0.5 28.2,3.3 5.3,2.4 11.6,4.7 17.6,5.3"
       fill="none"
       stroke="#e3e5e5"
       stroke-width="3"
       stroke-linecap="round"
       stroke-linejoin="round"
       stroke-dasharray="4.5286, 13.5857"
       id="path52" />
    <path
       class="st49"
       d="m 572.4,864.5 c 0.8,-0.2 1.6,-0.4 2.4,-0.7"
       fill="none"
       stroke="#e3e5e5"
       stroke-width="3"
       stroke-linecap="round"
       stroke-linejoin="round"
       id="path54" />
  </g>
  <g
     class="st53"
     clip-path="url(#b)"
     id="g60"
     transform="translate(-395.89999,-830.4)"
     style="fill:#a02c2c">
    <path
       d="m 491.2,946.7 c -4.1,1.1 -6.1,1.8 -10,3.5 -2.1,0.9 -4.6,0.1 -5.6,-1.9 -1,-2 0,-4.6 2.3,-5.6 4.3,-1.9 6.6,-2.7 11.2,-3.9 2.4,-0.6 4.8,0.8 5.3,2.9 0.4,2.2 -1,4.4 -3.2,5 z"
       fill="#a3313a"
       id="path58"
       style="fill:#a02c2c" />
  </g>
  <path
     class="st57"
     d="M 515.8,952.3 C 515.6,950 514.1,949 514.1,949"
     clip-path="url(#b)"
     stroke-miterlimit="10"
     fill="none"
     stroke="#000000"
     stroke-linecap="round"
     stroke-linejoin="round"
     id="path62"
     transform="translate(-395.89999,-830.4)" />
  <g
     class="st53"
     clip-path="url(#b)"
     id="g66"
     transform="translate(-395.89999,-830.4)">
    <path
       d="m 454.5,887.5 c -3.5,0.7 -7.1,1.3 -10.6,1.7 -3.6,0.4 -7.2,0.8 -10.8,0.6 -0.3,0 -0.5,-0.2 -0.5,-0.5 0,-0.3 0.2,-0.5 0.5,-0.5 3.5,0.2 7.1,-0.1 10.6,-0.4 3.5,-0.4 7.1,-0.9 10.6,-1.6 0.2,0 0.4,0.1 0.4,0.3 0.1,0.2 0,0.4 -0.2,0.4 z"
       id="path64" />
  </g>
  <g
     class="st53"
     clip-path="url(#b)"
     id="g70"
     transform="translate(-395.89999,-830.4)">
    <path
       d="m 417.2,891.8 c -2.2,-1.6 -4.3,-3.6 -5.4,-6.2 l -0.4,-1 -0.2,-1 -0.1,-0.5 v -0.5 c 0,-0.4 -0.1,-0.7 -0.1,-1.1 0,-1.4 0.2,-2.8 0.7,-4.1 0.9,-2.6 2.6,-4.9 4.4,-6.9 1.9,-2 4,-3.6 6.2,-5.2 2.2,-1.6 4.6,-2.9 7,-4.1 2.4,-1.2 5,-2.2 7.6,-2.9 5.2,-1.5 10.7,-1.9 16.1,-1.4 l -0.6,0.5 c -0.2,-1.3 -0.7,-2.7 -1.4,-3.8 -0.4,-0.6 -0.8,-1.1 -1.4,-1.5 -0.5,-0.5 -1.2,-1 -1.5,-1.9 -0.1,-0.2 -0.1,-0.5 -0.1,-0.7 0.1,-0.2 0.1,-0.5 0.2,-0.7 0.2,-0.4 0.6,-0.7 0.9,-0.9 0.7,-0.5 1.4,-0.7 2.2,-0.9 1.5,-0.3 3,-0.4 4.4,-0.4 2.9,0.1 5.9,0.7 8.6,1.8 2.7,1.1 5.3,2.8 7.1,5.3 l -0.9,0.5 c -0.3,-0.7 -0.5,-1.3 -0.5,-2.1 -0.1,-0.7 0,-1.5 0.4,-2.3 0.3,-0.3 0.5,-0.7 1,-0.8 0.2,-0.1 0.4,-0.1 0.6,-0.2 0.2,0 0.4,-0.1 0.6,-0.1 0.7,0 1.4,0.1 2.1,0.2 1.4,0.3 2.6,0.8 3.9,1.4 1.2,0.6 2.4,1.3 3.5,2.1 2.2,1.6 4.1,3.6 5.6,5.9 0.7,1.2 1.4,2.4 1.8,3.7 0.3,0.6 0.4,1.3 0.5,2 0.1,0.3 0.1,0.7 0.1,1 v 1 c -0.1,2.8 -1.3,5.5 -3,7.6 -1.7,2.2 -3.6,4 -5.9,5.6 -2.4,1.4 -4.9,2.3 -7.4,3.2 -2.5,0.8 -5.1,1.5 -7.8,1.9 1.2,-0.5 2.5,-0.9 3.7,-1.4 l 3.7,-1.3 c 2.5,-0.9 5,-1.8 7.2,-3.2 2.1,-1.5 4,-3.3 5.6,-5.4 1.5,-2.1 2.6,-4.5 2.7,-7 0.1,-2.5 -0.8,-5 -2.2,-7.1 -1.4,-2.2 -3.2,-4.1 -5.3,-5.6 -2.1,-1.5 -4.4,-2.8 -6.9,-3.4 -0.6,-0.1 -1.2,-0.2 -1.8,-0.2 -0.6,0 -1,0.1 -1.3,0.5 -0.5,0.8 -0.2,2.3 0.2,3.4 0.1,0.3 0,0.5 -0.3,0.6 -0.2,0.1 -0.4,0 -0.6,-0.2 -1.6,-2.3 -4,-3.8 -6.6,-4.9 -2.6,-1.1 -5.4,-1.7 -8.2,-1.7 -1.4,0 -2.8,0.1 -4.2,0.4 -0.7,0.2 -1.3,0.4 -1.8,0.7 -0.5,0.4 -0.8,0.8 -0.7,1.3 0.1,0.5 0.6,0.9 1.2,1.4 0.6,0.5 1.1,1.1 1.5,1.7 0.9,1.3 1.4,2.7 1.6,4.3 0,0.3 -0.2,0.5 -0.4,0.5 H 453 c -5.3,-0.5 -10.7,-0.1 -15.8,1.4 -2.5,0.7 -5,1.7 -7.4,2.8 -2.4,1.2 -4.7,2.5 -6.8,4.1 -2.2,1.5 -4.3,3.2 -6.1,5.1 -1.8,1.9 -3.4,4.1 -4.2,6.5 -0.4,1.2 -0.6,2.5 -0.7,3.8 0,0.3 0.1,0.6 0.1,1 v 0.5 l 0.1,0.5 0.2,0.9 0.4,0.9 c 1,2.4 2.9,4.3 5,5.8 0.2,0.2 0.3,0.5 0.1,0.7 -0.2,0.2 -0.4,0.3 -0.7,0.1 z"
       id="path68" />
  </g>
  <g
     class="st53"
     clip-path="url(#b)"
     id="g76"
     transform="translate(-395.89999,-830.4)">
    <path
       class="st36"
       d="m 615.1,863.2 c 2,1.2 2.3,1.8 2.3,1.8"
       fill="#a83434"
       id="path72" />
    <path
       d="m 615.3,862.9 1.2,0.9 c 0.2,0.2 0.4,0.3 0.6,0.5 0.2,0.2 0.3,0.4 0.5,0.6 0,0.1 0,0.2 -0.1,0.2 h -0.2 l -0.5,-0.5 c -0.2,-0.1 -0.4,-0.3 -0.6,-0.4 -0.4,-0.3 -0.8,-0.5 -1.3,-0.7 -0.2,-0.1 -0.2,-0.3 -0.1,-0.5 0.1,-0.2 0.2,-0.2 0.5,-0.1 -0.1,0 -0.1,0 0,0 z"
       id="path74" />
  </g>
  <path
     style="fill:#f3e27c;stroke-width:1.5"
     d="m 97.889342,57.556007 c 0,0 -3.269906,-0.126387 -4.058831,-2.578929 -0.788376,-2.450492 2.245987,-3.539164 4.276796,-2.250628 2.030053,1.289836 1.109038,3.266091 -0.217965,4.829557 z"
     id="path213-931" />
  <path
     style="fill:#f3e27c;stroke-width:1.5"
     d="m 108.62436,152.39721 c 0,0 -3.26991,-0.12639 -4.05883,-2.57893 -0.78838,-2.45049 2.24598,-3.53916 4.27679,-2.25063 2.03006,1.28984 1.10904,3.2661 -0.21796,4.82956 z"
     id="path213-931-4" />
  <path
     style="fill:#f3e27c;stroke-width:1.5"
     d="m 16.722407,129.7878 c 0,0 -3.26991,-0.12638 -4.05883,-2.57893 -0.78838,-2.45049 2.24598,-3.53916 4.27679,-2.25062 2.03006,1.28983 1.10904,3.26609 -0.21796,4.82955 z"
     id="path213-931-7" />
  <path
     style="fill:#f3e27c;stroke-width:1.5"
     d="m 42.530006,189.13377 c 0,0 -3.26991,-0.12639 -4.05883,-2.57893 -0.78838,-2.45049 2.24598,-3.53916 4.27679,-2.25063 2.03006,1.28984 1.10904,3.2661 -0.21796,4.82956 z"
     id="path213-931-8" />
  <path
     style="fill:#f3e27c;stroke-width:1.5"
     d="m 11.517945,173.7459 c 0,0 -3.2699098,-0.12639 -4.0588298,-2.57893 -0.78838,-2.45049 2.24598,-3.53916 4.2767898,-2.25063 2.03006,1.28984 1.10904,3.26609 -0.21796,4.82956 z"
     id="path213-931-45" />
  <path
     style="fill:#f3e27c;stroke-width:1.5"
     d="m 87.498562,187.98278 c 0,0 -3.26991,-0.12638 -4.05883,-2.57893 -0.78838,-2.45049 2.24598,-3.53916 4.27679,-2.25062 2.03006,1.28983 1.10904,3.26609 -0.21796,4.82955 z"
     id="path213-931-0" />
  <path
     style="fill:#f3e27c;stroke-width:1.5"
     d="m 221.75162,70.323497 c 0,0 -3.26991,-0.126387 -4.05883,-2.578929 -0.78838,-2.450492 2.24598,-3.539164 4.27679,-2.250628 2.03006,1.289836 1.10904,3.266091 -0.21796,4.829557 z"
     id="path213-931-3" />
  <path
     style="fill:#f3e27c;stroke-width:1.5"
     d="m 39.039082,141.14199 c 0,0 -3.26991,-0.12638 -4.05883,-2.57893 -0.78838,-2.45049 2.24598,-3.53916 4.27679,-2.25062 2.03006,1.28983 1.10904,3.26609 -0.21796,4.82955 z"
     id="path213-931-6" />
  <path
     style="fill:#f3e27c;stroke-width:1.5"
     d="m 69.199444,156.15304 c 0,0 -3.26991,-0.12639 -4.05883,-2.57893 -0.78838,-2.45049 2.24598,-3.53917 4.27679,-2.25063 2.03006,1.28984 1.10904,3.26609 -0.21796,4.82956 z"
     id="path213-931-1" />
  <path
     style="fill:#f3e27c;stroke-width:1.5"
     d="m 137.02307,97.851982 c 0,0 -3.26991,-0.126387 -4.05883,-2.578929 -0.78838,-2.450492 2.24598,-3.539164 4.27679,-2.250628 2.03006,1.289836 1.10904,3.266091 -0.21796,4.829557 z"
     id="path213-931-06" />
  <path
     style="fill:#f3e27c;stroke-width:1.5"
     d="m 66.807737,108.27217 c 0,0 -3.26991,-0.12639 -4.05883,-2.57893 -0.78838,-2.4505 2.24598,-3.53917 4.27679,-2.25063 2.03006,1.28983 1.10904,3.26609 -0.21796,4.82956 z"
     id="path213-931-32" />
  <path
     style="fill:#f3e27c;stroke-width:1.5"
     d="m 40.724077,90.89938 c 0,0 -3.26991,-0.126387 -4.05883,-2.578929 -0.78838,-2.450492 2.24598,-3.539164 4.27679,-2.250628 2.03006,1.289836 1.10904,3.266091 -0.21796,4.829557 z"
     id="path213-931-061" />
  <path
     style="fill:#f3e27c;stroke-width:1.5"
     d="m 68.202954,72.249372 c 0,0 -3.26991,-0.126387 -4.05883,-2.578929 -0.78838,-2.450492 2.24598,-3.539164 4.27679,-2.250628 2.03006,1.289836 1.10904,3.266091 -0.21796,4.829557 z"
     id="path213-931-5" />
</svg>
