<?xml version="1.0" encoding="UTF-8" standalone="no"?>
<svg
   width="100"
   height="100"
   viewBox="0 0 122 122"
   xmlns="http://www.w3.org/2000/svg">
  <g>
    <path style="fill:white" d="m 95 104 A 53 53 0 1 0 27 104"/>
    <path
       style="fill:#fdb197"
       d="m 63.543266,115.63417 c -1.713413,-1.71341 -2.54926,-3.98847 -3.031009,-8.25 -0.36585,-3.23629 -1.332406,-8.295038 -2.147902,-11.241655 -0.815495,-2.946617 -1.261409,-5.578794 -0.990921,-5.849282 0.270489,-0.270489 2.261793,-0.192759 4.425122,0.172733 4.246796,0.717492 5.875435,2.704961 7.09234,8.654959 0.831917,4.067615 3.47222,4.561295 3.915582,0.732128 0.168563,-1.455821 -0.349394,-4.216671 -1.151015,-6.135221 l -1.457494,-3.488273 3.627184,-0.588611 c 1.994951,-0.323736 3.969614,-0.246181 4.38814,0.172345 0.418526,0.418526 1.483785,3.690059 2.367242,7.270074 1.952399,7.911673 0.807992,13.681953 -3.584705,18.074653 -3.762324,3.76232 -9.947473,3.98125 -13.452564,0.47615 z"
       id="path142" />
    <path
       style="fill:#0d0d0d"
       d="M 63.314715,120.53634 C 59.239347,118.76385 57.543652,115.32884 56.138844,106 55.51767,101.875 54.326653,96.25 53.492141,93.5 52.177401,89.167488 51.442534,88.276293 47.987423,86.824262 45.735754,85.877985 44,84.463236 44,83.574262 c 0,-1.980889 -0.148715,-1.992579 7.281545,0.572357 8.315135,2.870395 20.082501,2.86582 27.623856,-0.01074 2.97297,-1.134004 5.78547,-1.82693 6.25,-1.539835 C 86.705934,83.554325 86.02429,85.857515 84,86.5 c -2.408906,0.764557 -2.440427,1.201661 -0.433102,6.005866 3.943047,9.437044 1.035417,23.327484 -5.748869,27.463724 -3.849356,2.34687 -9.869518,2.58213 -14.503314,0.56675 z m 13.681115,-5.37832 c 4.392697,-4.3927 5.537104,-10.16298 3.584705,-18.074653 -0.883457,-3.580015 -1.948716,-6.851548 -2.367242,-7.270074 -0.418526,-0.418526 -2.393189,-0.496081 -4.38814,-0.172345 l -3.627184,0.588611 1.457494,3.488273 c 0.801621,1.91855 1.319578,4.6794 1.151015,6.135221 -0.443362,3.829167 -3.083665,3.335487 -3.915582,-0.732128 -1.216905,-5.949998 -2.845544,-7.937467 -7.09234,-8.654959 -2.163329,-0.365492 -4.154633,-0.443222 -4.425122,-0.172733 -0.270488,0.270488 0.175426,2.902665 0.990921,5.849282 0.815496,2.946617 1.782052,8.005365 2.147902,11.241655 0.856042,7.5725 3.584994,10.61583 9.519212,10.61583 3.196151,0 4.760921,-0.63854 6.964361,-2.84198 z M 21.603281,100.25 C 8.9301358,87.61712 2.7570669,67.227874 6.4001919,50.035182 12.172039,22.796593 32.337869,6.8651656 61,6.9001919 c 16.926932,0.020685 28.53977,4.5114121 39.25776,15.1811191 12.63867,12.581727 18.21557,32.171875 14.64982,51.460815 -2.63343,14.245507 -15.812675,33.243214 -21.537709,31.046314 -1.316138,-0.50505 -0.412113,-1.91598 4.515756,-7.047848 C 109.23062,85.725964 113.75095,71.05373 111.37852,53.74497 l -0.62147,-4.534172 -3.62853,2.144601 C 103.93213,53.244592 101.99029,53.5 90.82333,53.5 c -11.312278,0 -12.980544,-0.225902 -15.5,-2.098871 -1.827,-1.358197 -2.932431,-3.191021 -3.132491,-5.193727 -0.26234,-2.626143 0.192006,-3.359073 3,-4.839462 6.012605,-3.169878 23.708089,-3.030107 32.268621,0.254878 1.41292,0.542187 1.23771,-0.295781 -0.98939,-4.731978 C 97.912031,19.843987 81.788362,10.528973 61,10.621738 34.365871,10.740589 15.635619,25.407064 10.342048,50.288776 6.6767201,67.517155 13.416368,88.496884 26.105397,99.358221 28.247429,101.19172 30,103.21119 30,103.84593 30,106.404 26.10242,104.73484 21.603281,100.25 Z M 85.33136,46.75 c -0.813802,-4.27527 -0.763086,-4.243568 -5.078537,-3.174461 -6.766757,1.676392 -4.660825,6.183523 2.972177,6.361075 2.542766,0.05915 2.683629,-0.153957 2.10636,-3.186614 z m 18.20076,1.801027 C 105.43945,47.754091 107,46.831129 107,46.5 107,45.572824 100.32913,43 97.92513,43 c -1.534386,0 -1.968527,0.444527 -1.535705,1.572442 0.331872,0.864843 0.139184,2.439843 -0.428195,3.5 C 95.067071,49.743193 95.271672,50 97.496935,50 c 1.412016,0 4.127845,-0.652038 6.035185,-1.448973 z M 30.64255,53.023446 C 23.409813,50.725251 21.576161,44.375657 27.25,41.27568 c 5.080179,-2.775622 25.75008,-2.562402 31.25,0.322358 3.238175,1.698454 4,2.64006 4,4.94395 0,2.195058 -0.800441,3.315062 -3.5,4.897318 -2.871054,1.682771 -5.476687,2.091002 -14.5,2.271749 -6.05,0.121188 -12.285852,-0.188236 -13.85745,-0.687609 z M 37.33136,46.75 c -0.813802,-4.27527 -0.763086,-4.243568 -5.078537,-3.174461 -6.766757,1.676392 -4.660825,6.183523 2.972177,6.361075 2.542766,0.05915 2.683629,-0.153957 2.10636,-3.186614 z m 18.200759,1.801027 C 57.439453,47.754091 59,46.831129 59,46.5 59,45.572824 52.32913,43 49.92513,43 c -1.534386,0 -1.968527,0.444527 -1.535705,1.572442 0.331872,0.864843 0.139184,2.439843 -0.428195,3.5 C 47.067071,49.743193 47.271672,50 49.496935,50 c 1.412016,0 4.127849,-0.652038 6.035184,-1.448973 z"
       id="path140" />
  </g>
</svg>
