<svg xmlns="http://www.w3.org/2000/svg" viewBox="0 0 78 78" width="24" height="24"><path d="M 28.12 6.37 C 29.87 7.61 31.34 8.83 31.96 10.97 C 33.50 16.05 33.84 21.42 35.21 26.55 C 37.60 26.58 39.98 26.53 42.36 26.54 C 44.28 20.40 46.77 13.72 50.72 8.59 C 51.90 7.03 53.21 7.37 54.92 7.53 C 59.20 12.30 59.68 20.79 61.40 26.74 C 61.76 29.09 64.73 30.23 66.42 31.61 C 70.27 34.06 71.44 38.76 72.13 42.98 C 72.68 46.51 71.52 49.45 71.25 52.87 C 71.29 55.66 72.06 58.89 71.59 61.67 C 70.10 65.58 66.56 69.18 62.63 70.68 C 55.74 73.56 48.19 75.95 40.68 74.32 C 38.24 73.67 34.90 71.94 35.19 68.95 C 34.94 66.87 36.78 65.75 37.92 64.25 C 31.89 63.82 25.19 63.70 19.51 61.46 C 15.01 59.31 10.82 57.18 8.38 52.60 C 6.22 48.49 4.52 42.99 6.53 38.52 C 7.91 34.60 11.90 32.40 15.14 30.20 C 16.87 29.25 17.05 27.48 17.97 25.82 C 15.31 23.61 12.51 21.92 11.01 18.72 C 9.82 16.56 10.99 14.05 12.65 12.53 C 14.50 10.90 17.76 13.10 19.87 13.55 C 20.18 14.85 20.46 16.15 20.75 17.45 C 19.04 15.95 17.28 13.69 15.07 12.99 C 12.09 13.32 11.87 17.43 13.53 19.38 C 15.72 22.90 19.07 23.51 22.86 24.15 C 25.03 21.01 27.22 17.94 28.83 14.45 L 29.82 15.55 C 28.67 18.32 27.21 21.03 25.21 23.28 C 23.84 24.97 21.61 25.40 19.66 26.09 C 19.45 27.45 19.23 28.81 19.00 30.17 C 15.74 32.39 11.10 34.57 9.22 38.14 C 5.49 44.42 9.34 53.26 15.07 56.94 C 22.92 61.61 33.04 62.73 42.00 62.10 C 46.51 61.68 48.74 58.52 51.26 55.21 C 53.53 51.96 57.07 51.10 60.57 49.56 C 63.62 48.49 66.41 49.79 69.28 50.74 C 69.74 46.19 70.36 41.04 68.22 36.80 C 66.41 33.37 63.44 31.57 60.15 29.79 C 58.14 22.47 57.42 15.75 53.99 9.03 C 48.46 13.63 45.97 21.68 43.84 28.33 C 40.25 28.55 36.69 28.45 33.09 28.27 C 32.22 21.96 30.99 15.78 29.06 9.69 C 26.94 10.40 25.34 10.77 23.10 10.19 C 24.74 8.89 26.39 7.55 28.12 6.37 Z" fill="#020202"></path><path d="M 29.06 9.69 C 30.99 15.78 32.22 21.96 33.09 28.27 C 28.36 28.31 23.59 29.02 19.00 30.17 C 19.23 28.81 19.45 27.45 19.66 26.09 C 21.61 25.40 23.84 24.97 25.21 23.28 C 27.21 21.03 28.67 18.32 29.82 15.55 L 28.83 14.45 C 27.31 13.20 26.23 11.77 24.12 11.63 C 22.23 13.02 21.73 16.02 20.92 18.14 L 20.75 17.45 C 20.46 16.15 20.18 14.85 19.87 13.55 C 20.83 12.31 21.87 11.17 23.10 10.19 C 25.34 10.77 26.94 10.40 29.06 9.69 Z" fill="#a68e75"></path><path d="M 53.99 9.03 C 57.42 15.75 58.14 22.47 60.15 29.79 C 54.81 28.42 49.33 28.05 43.84 28.33 C 45.97 21.68 48.46 13.63 53.99 9.03 Z" fill="#a68e75"></path><path d="M 24.12 11.63 C 26.23 11.77 27.31 13.20 28.83 14.45 C 27.22 17.94 25.03 21.01 22.86 24.15 C 19.07 23.51 15.72 22.90 13.53 19.38 C 11.87 17.43 12.09 13.32 15.07 12.99 C 17.28 13.69 19.04 15.95 20.75 17.45 L 20.92 18.14 C 21.73 16.02 22.23 13.02 24.12 11.63 Z" fill="#f4a29b"></path><path d="M 9.69 21.57 C 12.38 23.68 12.53 26.51 12.89 29.66 C 9.59 27.91 10.18 24.79 9.69 21.57 Z M 70.61 22.72 C 69.79 26.04 68.86 28.30 65.36 29.41 C 66.68 26.51 67.24 23.82 70.61 22.72 Z M 3.67 24.79 C 6.49 26.61 7.78 29.34 9.17 32.26 C 8.20 32.11 7.23 31.89 6.29 31.61 C 5.30 29.35 4.33 27.17 3.67 24.79 Z" fill="#020202"></path><path d="M 75.97 27.07 C 74.27 30.09 72.74 30.70 69.46 31.63 C 70.61 28.38 72.97 27.82 75.97 27.07 Z" fill="#020202"></path><path d="M 33.09 28.27 C 36.69 28.45 40.25 28.55 43.84 28.33 C 49.33 28.05 54.81 28.42 60.15 29.79 C 63.44 31.57 66.41 33.37 68.22 36.80 C 70.36 41.04 69.74 46.19 69.28 50.74 C 66.41 49.79 63.62 48.49 60.57 49.56 C 57.07 51.10 53.53 51.96 51.26 55.21 C 48.74 58.52 46.51 61.68 42.00 62.10 C 33.04 62.73 22.92 61.61 15.07 56.94 C 9.34 53.26 5.49 44.42 9.22 38.14 C 11.10 34.57 15.74 32.39 19.00 30.17 C 23.59 29.02 28.36 28.31 33.09 28.27 Z" fill="#f3eae0"></path><path d="M 28.00 33.28 C 30.38 33.55 32.68 35.04 34.96 35.80 C 35.66 38.33 36.82 41.22 36.62 43.87 C 36.42 46.66 34.28 49.09 32.78 51.33 C 29.11 51.83 26.31 53.36 22.82 51.15 C 16.40 48.51 16.38 39.38 21.57 35.58 C 23.47 34.40 25.74 33.36 28.00 33.28 Z" fill="#020202"></path><path d="M 31.61 35.55 C 34.68 38.26 36.53 41.53 34.76 45.65 C 33.07 50.71 26.97 51.94 22.68 49.33 C 19.68 47.84 19.49 44.76 18.89 41.85 C 20.63 43.67 22.22 46.47 24.54 47.51 C 27.13 48.12 29.94 47.87 31.44 45.37 C 33.64 42.28 32.36 38.87 31.61 35.55 Z" fill="#ffffff"></path><path d="M 34.96 35.80 C 40.02 35.70 45.01 35.02 48.33 39.70 C 50.72 43.01 48.51 46.52 47.46 49.89 C 45.71 45.87 45.85 41.80 45.52 37.53 C 42.91 40.78 44.54 46.68 45.46 50.35 C 44.00 51.03 42.48 51.80 40.93 52.23 C 38.29 52.51 35.41 51.68 32.78 51.33 C 34.28 49.09 36.42 46.66 36.62 43.87 C 36.82 41.22 35.66 38.33 34.96 35.80 Z" fill="#a68e75"></path><path d="M 45.52 37.53 C 45.85 41.80 45.71 45.87 47.46 49.89 C 50.62 50.60 52.92 50.70 55.41 48.33 C 57.23 45.03 55.73 41.11 57.83 37.72 C 58.61 42.07 59.03 48.13 54.92 51.02 C 51.96 52.79 48.40 51.47 45.46 50.35 C 44.54 46.68 42.91 40.78 45.52 37.53 Z" fill="#020202"></path><path d="M 69.30 53.75 C 70.88 55.55 70.67 58.75 70.46 60.98 C 69.39 64.85 66.23 67.12 62.66 68.57 C 63.91 64.78 65.58 61.49 67.86 58.23 C 65.88 55.62 63.77 53.41 61.37 51.17 C 64.54 49.56 67.16 51.49 69.30 53.75 Z" fill="#a68e75"></path><path d="M 56.59 52.36 C 56.49 53.76 56.35 55.15 56.19 56.55 C 57.45 55.70 58.72 54.86 59.99 54.03 C 60.74 54.25 61.49 54.47 62.23 54.69 C 61.21 56.24 60.18 57.79 59.19 59.37 C 60.95 58.60 62.77 57.97 64.53 57.20 C 64.23 63.05 61.02 68.19 55.68 70.67 C 50.17 73.09 44.08 74.62 38.47 71.57 C 36.50 70.51 36.59 68.93 36.22 66.98 C 41.31 64.92 46.94 62.98 50.45 58.51 C 52.27 56.15 54.13 54.08 56.59 52.36 Z" fill="#a68e75"></path></svg>
