<svg id="svg" version="1.1" xmlns="http://www.w3.org/2000/svg" xmlns:xlink="http://www.w3.org/1999/xlink" width="400" height="400" viewBox="0, 0, 400,400"><g id="svgg"><path id="path0" d="M159.375 16.174 C 154.535 22.830,152.637 92.500,157.296 92.500 C 158.558 92.500,161.325 93.165,163.443 93.978 C 177.574 99.401,185.113 23.063,171.338 14.038 C 163.782 9.087,164.639 8.934,159.375 16.174 M224.167 16.667 C 223.250 17.583,222.464 25.740,222.420 34.792 C 222.370 45.283,221.010 53.009,218.670 56.103 C 213.471 62.977,213.536 92.500,218.750 92.500 C 220.813 92.500,222.500 90.813,222.500 88.750 C 222.500 86.688,223.444 85.000,224.599 85.000 C 227.370 85.000,232.500 73.561,232.500 67.382 C 232.500 64.697,233.574 62.500,234.887 62.500 C 236.199 62.500,238.012 58.562,238.915 53.750 C 239.818 48.938,241.556 45.000,242.778 45.000 C 247.004 45.000,245.372 18.178,241.046 16.517 C 235.790 14.501,226.248 14.585,224.167 16.667 M92.314 24.097 C 90.577 27.344,88.220 30.000,87.078 30.000 C 83.493 30.000,84.804 53.785,88.670 58.897 C 90.689 61.566,92.377 68.393,92.420 74.069 C 92.467 80.107,94.056 85.679,96.250 87.500 C 98.313 89.212,100.000 92.273,100.000 94.303 C 100.000 100.759,107.937 115.000,111.535 115.000 C 115.616 115.000,116.735 41.368,112.692 38.869 C 111.423 38.084,109.703 34.362,108.871 30.596 C 106.610 20.377,96.441 16.385,92.314 24.097 M293.125 82.788 C 288.656 85.649,285.000 89.006,285.000 90.246 C 285.000 91.485,283.313 92.500,281.250 92.500 C 279.188 92.500,277.500 94.188,277.500 96.250 C 277.500 98.313,275.813 100.000,273.750 100.000 C 271.688 100.000,270.000 101.688,270.000 103.750 C 270.000 105.813,268.576 107.500,266.835 107.500 C 263.569 107.500,247.500 130.183,247.500 134.792 C 247.500 141.372,235.296 144.538,204.112 146.049 C 186.436 146.905,169.882 148.725,167.325 150.094 C 164.768 151.462,157.978 153.034,152.237 153.587 C 146.495 154.140,141.111 155.636,140.273 156.911 C 139.436 158.187,135.386 160.055,131.275 161.063 C 127.164 162.072,123.049 164.112,122.131 165.597 C 119.754 169.444,106.356 163.471,97.503 154.618 C 93.588 150.703,89.736 147.500,88.942 147.500 C 86.623 147.500,78.503 138.720,76.858 134.433 C 74.702 128.815,56.895 126.301,48.478 130.427 C 27.361 140.778,22.640 332.672,42.574 370.407 C 43.782 372.693,45.529 380.287,46.457 387.282 L 48.144 400.000 224.072 400.000 L 400.000 400.000 400.000 326.860 L 400.000 253.721 391.942 250.154 C 380.410 245.049,370.000 232.767,370.000 224.264 C 370.000 220.347,368.379 215.522,366.399 213.542 C 364.418 211.561,362.110 204.610,361.271 198.095 C 360.431 191.580,358.613 184.195,357.232 181.684 C 355.850 179.173,354.063 171.579,353.261 164.809 C 352.460 158.039,350.946 152.500,349.897 152.500 C 348.849 152.500,347.208 145.750,346.250 137.500 C 345.292 129.250,343.546 122.500,342.368 122.500 C 341.190 122.500,339.500 118.281,338.612 113.125 C 333.020 80.657,315.107 68.710,293.125 82.788 M201.568 113.822 C 198.803 121.028,199.839 122.500,207.674 122.500 C 214.202 122.500,215.228 121.660,214.549 116.875 C 213.578 110.036,203.895 107.759,201.568 113.822 M155.000 122.674 C 155.000 129.202,155.840 130.228,160.625 129.549 C 169.467 128.293,170.190 115.000,161.416 115.000 C 155.921 115.000,155.000 116.102,155.000 122.674 M107.500 134.821 C 107.500 145.667,120.313 150.857,125.755 142.215 C 130.111 135.297,126.024 130.000,116.328 130.000 C 109.276 130.000,107.500 130.970,107.500 134.821 M280.333 215.051 C 301.119 220.825,305.128 256.349,286.930 273.510 C 279.703 280.325,238.740 280.993,233.899 274.375 C 232.139 271.969,229.537 270.000,228.117 270.000 C 221.766 270.000,219.878 240.849,226.075 238.471 C 228.042 237.717,230.796 233.814,232.195 229.800 C 233.831 225.108,236.477 222.500,239.602 222.500 C 242.277 222.500,245.081 220.894,245.835 218.930 C 247.092 215.655,253.278 213.824,266.250 212.889 C 269.000 212.690,275.337 213.663,280.333 215.051 M243.864 233.864 C 237.670 240.058,235.933 248.007,239.017 256.046 C 242.203 264.348,266.464 261.343,271.088 252.074 C 280.474 233.260,258.899 218.828,243.864 233.864 M146.250 244.588 C 153.965 251.412,160.000 264.474,160.000 274.350 C 160.000 284.164,139.529 307.500,130.920 307.500 C 122.451 307.500,100.000 299.000,100.000 295.793 C 100.000 293.982,98.434 292.500,96.521 292.500 C 92.587 292.500,89.673 283.577,91.190 276.175 C 95.407 255.593,95.613 255.421,98.558 270.000 L 101.336 283.750 114.292 284.501 C 130.103 285.418,137.500 279.709,137.500 266.590 C 137.500 257.718,123.799 245.000,114.241 245.000 C 111.908 245.000,110.000 243.875,110.000 242.500 C 110.000 237.916,140.706 239.685,146.250 244.588 " stroke="none" fill="#000000" fill-rule="evenodd"></path></g></svg>