<svg xmlns="http://www.w3.org/2000/svg" viewBox="0 0 128 128" width="100" height="100">
<path d="M 78.21 4.78 C 93.78 10.86 106.19 23.20 114.53 37.48 C 122.79 51.73 126.39 67.60 127.15 83.95 C 127.37 90.47 127.76 97.29 126.60 103.73 C 125.35 110.17 118.86 114.59 113.43 117.43 C 100.53 123.88 85.30 126.38 71.00 127.05 C 54.53 127.70 37.04 126.23 21.46 120.54 C 15.48 118.28 9.01 115.10 4.65 110.33 C 2.47 107.93 0.44 104.40 0.80 101.07 C 1.71 96.46 5.82 92.45 6.76 87.78 C 7.46 83.73 5.94 79.06 4.94 75.13 C 1.42 62.46 0.61 48.19 4.50 35.52 C 7.33 26.13 13.00 17.72 21.03 12.03 C 37.53 0.89 59.47 -2.74 78.21 4.78 Z" fill="#fcc21b" />
<path d="M 85.45 21.45 C 94.34 19.55 103.24 26.00 104.11 35.04 C 105.18 43.63 98.65 51.69 90.00 52.28 C 81.41 53.18 73.55 46.53 73.04 37.93 C 72.35 30.20 77.86 22.94 85.45 21.45 Z M 31.43 42.44 C 40.03 40.46 48.86 46.28 50.22 55.02 C 51.77 63.63 45.68 72.11 36.96 73.13 C 28.76 74.33 20.96 68.64 19.47 60.53 C 17.89 52.41 23.32 44.13 31.43 42.44 Z M 31.43 42.44 C 40.03 40.46 48.86 46.28 50.22 55.02 C 51.77 63.63 45.68 72.11 36.96 73.13 C 28.76 74.33 20.96 68.64 19.47 60.53 C 17.89 52.41 23.32 44.13 31.43 42.44 Z M 101.97 76.76 C 109.70 76.32 117.90 80.19 124.91 83.11 C 124.89 84.19 124.87 85.26 124.85 86.34 C 118.34 84.58 112.01 81.56 105.38 80.49 C 102.45 80.09 99.58 80.09 97.70 82.75 C 94.64 87.12 97.09 93.94 101.02 96.96 C 106.44 101.29 114.54 102.98 121.07 105.10 C 120.63 106.06 120.20 107.03 119.76 107.99 C 112.29 106.46 105.20 104.68 99.01 99.97 C 94.00 96.21 91.65 89.32 93.26 83.29 C 94.44 79.45 97.98 76.91 101.97 76.76 Z M 59.21 88.20 C 63.24 87.45 68.12 87.94 71.42 90.58 C 75.40 93.79 77.29 98.95 77.05 103.99 C 76.81 109.13 75.12 114.28 72.84 118.87 C 71.88 121.08 69.97 121.51 67.99 122.51 C 69.91 114.12 75.22 107.52 72.47 98.50 C 70.85 92.48 63.96 89.95 58.50 92.43 C 55.59 94.03 53.84 97.72 52.71 100.71 C 50.60 106.61 49.56 112.94 48.08 119.03 C 47.02 118.92 45.96 118.81 44.91 118.70 C 46.01 111.32 47.45 103.37 50.56 96.55 C 52.29 92.89 54.99 89.06 59.21 88.20 Z" fill="#303030" />
<path d="M 86.47 23.43 C 91.21 22.39 96.78 24.88 98.80 29.38 C 100.01 32.05 99.42 35.27 96.99 37.02 C 91.58 40.69 82.51 37.24 81.19 30.74 C 80.48 27.10 83.01 24.16 86.47 23.43 Z M 80.06 39.27 C 82.26 39.96 84.31 41.28 86.39 42.28 C 88.48 43.33 90.78 44.23 92.71 45.56 C 93.12 47.37 92.77 49.44 90.81 50.13 C 85.92 51.54 80.05 48.72 77.61 44.33 C 76.38 42.11 77.68 39.81 80.06 39.27 Z M 32.41 44.38 C 37.42 43.28 43.51 46.16 45.10 51.20 C 45.96 53.97 44.86 56.97 42.30 58.38 C 36.85 61.31 28.50 57.97 27.18 51.74 C 26.43 48.09 28.93 45.11 32.41 44.38 Z M 26.05 60.27 C 28.08 60.84 30.00 62.02 31.91 62.92 C 33.97 63.97 36.27 64.77 38.15 66.12 C 39.54 67.35 38.68 69.57 37.63 70.75 C 32.64 72.82 26.17 69.91 23.61 65.33 C 22.36 63.14 23.59 60.67 26.05 60.27 Z" fill="#ffffff" />
<path d="M 82.03 60.50 C 84.44 65.37 85.34 70.65 85.40 76.05 C 82.41 73.16 79.39 69.36 74.88 69.12 C 70.68 68.80 67.19 71.68 63.93 73.93 C 62.96 71.58 62.16 69.16 61.33 66.76 C 68.07 64.21 75.01 62.13 82.03 60.50 Z" fill="#cf2c1d" />
<path d="M 74.88 69.12 C 79.39 69.36 82.41 73.16 85.40 76.05 C 84.47 78.16 83.35 81.04 81.28 82.27 C 78.43 83.75 74.61 83.44 71.69 82.29 C 67.95 80.75 65.72 77.38 63.93 73.93 C 67.19 71.68 70.68 68.80 74.88 69.12 Z" fill="#ed6c30" />
</svg>
