<svg
      width="100"
    height="100"
 xmlns="http://www.w3.org/2000/svg"
 viewBox="0 0 128 128">
<path fill="#313131"
 d="M 10.62 0.00 L 13.37 0.00 L 14.22 0.43 L 14.99 0.88 C 24.90 7.53 33.06 16.52 43.32 22.83 C 39.15 23.45 35.09 24.41 31.01 25.48 C 34.66 26.51 38.33 27.47 42.01 28.39 C 37.65 29.46 33.53 30.31 29.58 32.58 C 24.33 35.58 19.90 40.44 16.31 45.25 C 11.87 34.70 9.50 23.44 8.69 12.05 C 8.39 7.88 8.79 3.80 10.62 0.00 Z M 119.83 0.00 L 125.27 0.00 L 125.67 0.66 C 126.60 2.50 127.36 4.41 128.00 6.36 L 128.00 18.49 C 126.64 28.50 125.01 38.16 121.68 47.73 C 120.35 51.27 118.59 54.59 116.73 57.87 C 114.50 55.55 112.16 53.75 111.74 50.34 C 113.14 44.38 116.02 39.23 118.89 33.90 C 122.53 27.17 124.05 19.58 123.92 11.97 C 123.87 9.22 123.25 6.57 122.29 4.00 C 114.56 6.06 105.57 10.26 101.91 17.83 C 99.76 22.35 98.03 26.98 95.23 31.17 C 91.93 32.02 88.40 32.95 84.98 32.98 C 82.18 33.01 79.50 31.46 77.03 30.31 C 79.35 26.76 81.75 23.32 84.72 20.29 C 94.49 10.48 106.66 4.00 119.83 0.00 Z"
 />
<path fill="#ebdccc" 
 d="M 122.29 4.00 C 123.25 6.57 123.87 9.22 123.92 11.97 C 124.05 19.58 122.53 27.17 118.89 33.90 C 116.02 39.23 113.14 44.38 111.74 50.34 C 111.22 46.75 111.01 43.09 110.77 39.47 C 106.45 40.53 102.27 41.07 97.83 41.24 C 98.99 37.17 100.37 33.19 101.88 29.24 C 99.66 29.90 97.45 30.56 95.23 31.17 C 98.03 26.98 99.76 22.35 101.91 17.83 C 105.57 10.26 114.56 6.06 122.29 4.00 Z"
/>
<path fill="#ff8702" 
 d="M 43.80 11.08 C 53.88 11.87 62.87 15.67 71.75 20.25 C 71.56 18.08 71.36 15.90 71.19 13.73 C 75.67 15.99 80.06 18.39 84.72 20.29 C 81.75 23.32 79.35 26.76 77.03 30.31 C 79.50 31.46 82.18 33.01 84.98 32.98 C 88.40 32.95 91.93 32.02 95.23 31.17 C 97.45 30.56 99.66 29.90 101.88 29.24 C 100.37 33.19 98.99 37.17 97.83 41.24 C 102.27 41.07 106.45 40.53 110.77 39.47 C 111.01 43.09 111.22 46.75 111.74 50.34 C 112.16 53.75 114.50 55.55 116.73 57.87 C 118.59 54.59 120.35 51.27 121.68 47.73 C 125.39 57.02 127.07 66.89 125.70 76.85 C 124.91 83.16 122.76 88.45 123.93 94.95 C 124.52 99.63 126.71 104.49 123.98 108.90 C 120.72 114.36 114.31 118.17 108.60 120.61 C 96.03 125.89 81.85 126.84 68.39 128.00 L 51.44 128.00 C 36.73 127.05 21.06 123.62 8.62 115.37 C 3.55 112.08 1.05 107.39 0.00 101.52 L 0.00 86.67 C 1.13 81.35 2.31 76.03 3.82 70.80 C 6.47 61.62 10.80 53.04 16.31 45.25 C 19.90 40.44 24.33 35.58 29.58 32.58 C 33.53 30.31 37.65 29.46 42.01 28.39 C 38.33 27.47 34.66 26.51 31.01 25.48 C 35.09 24.41 39.15 23.45 43.32 22.83 C 46.15 23.62 48.98 24.39 51.81 25.16 C 48.73 20.68 45.82 16.15 43.80 11.08 Z"
/>
<path fill="#313131" 
 d="M 27.84 52.56 C 33.32 52.88 38.77 54.41 44.15 55.45 C 43.30 59.63 42.68 63.49 39.89 66.89 C 38.29 69.21 35.39 71.60 35.14 74.49 C 34.73 77.34 34.46 80.17 33.62 82.94 C 32.02 80.24 29.95 77.71 30.44 74.38 C 31.06 70.14 34.91 66.54 37.74 63.56 C 35.20 63.03 31.79 62.93 29.69 61.30 C 27.59 59.20 27.59 55.33 27.84 52.56 Z M 90.65 61.45 C 89.71 63.45 88.78 65.66 87.40 67.39 C 84.64 70.79 78.91 71.43 75.79 68.15 C 73.76 65.97 73.44 62.20 73.07 59.37 C 78.91 59.53 84.89 60.50 90.65 61.45 Z M 55.78 73.26 C 57.34 74.27 57.43 75.77 56.19 77.10 C 53.94 79.82 49.87 82.59 46.21 82.17 C 42.88 80.63 41.12 75.98 39.78 72.81 C 44.85 70.15 50.96 70.00 55.78 73.26 Z M 47.84 86.86 C 52.31 90.60 56.83 95.58 59.19 100.96 C 58.08 101.36 56.73 102.34 55.64 101.38 C 52.38 98.95 49.86 95.35 47.25 92.25 C 44.65 94.27 42.04 96.59 39.09 98.09 C 37.41 98.94 35.06 98.40 33.24 98.32 C 37.40 93.94 42.27 89.31 47.84 86.86 Z"
 />
</svg>
