<svg
    width="1000"
    height="1000"
    viewBox="0 0 170.66667 170.66667"
    xmlns="http://www.w3.org/2000/svg">
  <g>
    <path
        style="fill:#fac11b"
        d="M 58.000001,157.28928 C 37.482322,154.15464 19.308374,147.85691 9.7573186,140.57196 2.245195,134.84219 0.80172207,130.53639 0.84934352,114 0.89799262,97.106763 4.186049,81.412334 10.674721,67.101875 14.630203,58.378245 14.779643,57.33992 15.428546,34.071681 16.147632,8.2867847 16.957256,5.090847 23.389782,2.6452053 27.985631,0.89786622 30.475507,2.187609 41.449409,12 c 5.330905,4.766667 10.035613,8.645943 10.454907,8.620612 0.419293,-0.02533 5.862352,-1.75151 12.095685,-3.835957 20.183878,-6.749553 47.325279,-6.23897 65.887739,1.239476 l 7.88774,3.177815 7.53226,-4.414539 c 4.14274,-2.427996 10.70652,-5.228074 14.58616,-6.222397 6.60866,-1.6937494 7.17768,-1.6423981 9.01489,0.813565 1.23449,1.650259 1.71969,4.350297 1.30965,7.288092 -0.35822,2.566667 -1.6719,11.478868 -2.91926,19.804892 -1.64962,11.011115 -1.88884,15.970211 -0.87747,18.189943 3.07268,6.743794 4.56968,23.969428 2.91213,33.509166 -2.61353,15.041792 -3.07521,25.219572 -1.37737,30.364112 4.65553,14.10637 -11.51403,27.13828 -42.62313,34.35225 -13.02118,3.01952 -53.775879,4.47352 -67.333339,2.40225 z"
       />
    <path
        style="fill:#34322c"
        d="m 133.79136,119.79192 c -7.28048,-3.72795 -17.00216,-12.16494 -16.32574,-14.16833 0.58812,-1.74185 23.33102,12.55899 24.45341,15.37641 0.96876,2.4318 -1.83228,2.01546 -8.12767,-1.20808 z M 77.824848,102 c -2.677983,-4.033331 -5.154324,-7.333331 -5.502981,-7.333331 -0.348656,0 -2.999119,2.437174 -5.889916,5.415941 -2.890799,2.97877 -6.227475,5.22877 -7.414838,5 -2.930385,-0.56459 -8.734704,-12.55889 -8.890704,-18.372134 -0.191376,-7.13145 3.299064,-6.03954 6.253228,1.956192 1.354715,3.666667 2.948232,7.161402 3.541151,7.766078 0.592919,0.604675 3.759545,-1.738679 7.036949,-5.207452 3.592371,-3.802132 6.581251,-5.922236 7.525944,-5.338384 0.861866,0.532662 3.04421,3.883553 4.849654,7.446425 1.805444,3.562872 3.907343,6.864045 4.670888,7.335945 0.763545,0.47189 4.462865,-1.906341 8.220713,-5.284969 6.783769,-6.099191 9.429914,-6.941137 10.150474,-3.22966 0.36662,1.888379 -16.074782,17.178689 -18.471938,17.178689 -0.665261,0 -3.400641,-3.3 -6.078624,-7.33334 z M 7.3667237,106.61264 C 9.5108501,103.14337 32.534946,92.090503 34.18351,93.739067 c 0.959744,0.959744 -4.255096,4.633176 -13.384447,9.428253 -8.918059,4.6841 -15.1926032,6.29349 -13.4323393,3.44532 z M 129.43687,96.597534 c -9.51935,-2.064515 -12.60991,-3.975263 -8.79664,-5.438552 2.80139,-1.074994 21.43679,3.158049 25.32312,5.752163 2.38797,1.593966 2.14256,1.745769 -2.66667,1.649524 -2.91317,-0.05831 -9.15009,-0.941711 -13.85981,-1.963135 z M 10.933893,82.596866 c 3.209858,-1.871707 23.279472,-3.623218 25.739785,-2.246358 4.405585,2.465491 -0.09969,3.647782 -13.752367,3.608948 C 12.847538,83.930803 9.3316416,83.531158 10.933893,82.596866 Z M 106.9196,78.269235 c -11.071622,-11.785202 3.99457,-31.842233 16.00483,-21.306603 1.24177,1.089301 2.63944,3.718333 3.10594,5.842292 2.89615,13.186075 -10.82232,24.286966 -19.11077,15.464311 z M 40.485443,70.469808 c -2.948662,-1.458061 -5.818776,-6.389435 -5.818776,-9.997705 0,-4.490741 4.368247,-11.009669 8.78039,-13.103369 3.888776,-1.845344 5.120427,-1.908921 8.218157,-0.424218 2.004107,0.960544 4.440203,3.408018 5.413547,5.438833 4.526774,9.444798 -7.518399,22.573848 -16.593318,18.086459 z"
       />
  </g>
</svg>
