<svg width="50" height="50" viewBox="0 0 800 800" xmlns="http://www.w3.org/2000/svg">
  <path style="fill:#e6e6e7"
        d="M 377,781.98933 C 274.26986,777.96628 165.03473,765.78845 84.5,749.38063 51.537708,742.66502 21.204768,734.44936 18,731.36913 15.715744,729.17364 15.9408,671.21561 18.315186,650.20018 27.7133,567.0185 55.787652,492.64869 103.51625,424.5 147.31979,361.95566 208.95224,305.03933 275.42257,265.74798 c 6.64259,-3.9265 17.12271,-10.18997 23.28915,-13.91881 23.82585,-14.40747 59.14143,-30.44925 88.71837,-40.29953 109.88638,-36.59646 212.67932,-29.57383 278.06991,18.99725 43.24695,32.12314 70.69187,81.67712 77.52254,139.97311 5.10265,43.54828 9.1546,70.5205 25.46347,169.5 20.18143,122.48228 22.16827,136.5314 20.46719,144.72543 -3.99923,19.26421 -37.43622,44.79278 -79.71393,60.86023 -31.64993,12.0284 -65.31868,19.78234 -125.73927,28.95785 -11.28698,1.71404 -48.45416,5.0947 -71.5,6.5035 -23.125,1.41364 -107.86118,2.00511 -135,0.94232 z m 240.5,-15.03341 c 58.63861,-9.51382 104.62126,-24.96288 136,-45.69272 12.1623,-8.03482 28.09011,-23.55045 31.58044,-30.7632 1.95708,-4.04428 2.39464,-6.43358 2.28918,-12.5 -0.1694,-9.74417 -5.24813,-44.05066 -16.87654,-114 -17.73179,-106.66344 -25.35671,-156.75177 -28.99974,-190.5 -0.89057,-8.25 -2.30917,-18.15 -3.15246,-22 C 724.30758,287.43104 688.00161,239.65221 633.5,213.52891 c -69.28622,-33.20975 -164.77913,-30.90243 -263.80331,6.37408 -15.89262,5.98259 -29.23291,11.89412 -28.49842,12.62861 0.27798,0.27798 6.98458,-0.60821 14.90357,-1.96931 25.36112,-4.35903 34.17426,-5.06375 62.89816,-5.02949 29.89371,0.0357 41.03326,1.3152 60.30747,6.92728 15.50917,4.5158 30.52632,13.61881 43.39933,26.30755 14.46842,14.26131 23.43844,28.53431 29.70694,47.26935 5.57909,16.67457 6.94946,26.50701 6.89378,49.46302 -0.067,27.61927 -2.49685,45.64996 -14.29694,106.08952 -6.46505,33.11374 -10.26361,56.57402 -12.1291,74.91048 -1.74287,17.13122 -1.45565,58.46574 0.54895,79 2.31998,23.76491 7.08193,56.49661 9.59875,65.97792 6.29392,23.71029 19.89523,50.19347 38.64113,75.23835 9.15249,12.2279 11.2298,14.1717 14.59896,13.66066 1.2269,-0.18609 10.78073,-1.72555 21.23073,-3.42101 z M 236.5399,601.48209 c 13.70073,-3.48928 24.59275,-11.37507 37.02401,-26.80527 9.76417,-12.11968 21.39426,-29.88387 26.79451,-40.92682 2.62238,-5.3625 4.95067,-9.75 5.17398,-9.75 0.22331,0 2.33237,1.00707 4.68681,2.23794 2.95944,1.54715 6.53455,2.35337 11.58233,2.6119 6.57563,0.33679 7.93705,0.0611 13.69362,-2.77284 7.1946,-3.54189 6.84475,-3.14367 25.54501,-29.077 C 404.6238,436.55867 405,436.00524 405,432.32933 405,420.8464 391.70028,414.00869 383.53682,421.29457 382.17774,422.50756 368.41286,441.05 352.94821,462.5 c -22.36756,31.02455 -28.56037,38.99003 -30.28288,38.95124 -1.19093,-0.0268 -17.72416,-10.42756 -36.74051,-23.11274 -20.00788,-13.34661 -36.98191,-23.96446 -40.28751,-25.20124 -9.15291,-3.42454 -17.07742,-2.89187 -51.83635,3.48435 -16.88447,3.09731 -31.3297,5.38947 -32.1005,5.09369 -1.19596,-0.45893 -1.20487,-1.83387 -0.0607,-9.37655 2.29785,-15.14869 4.36044,-39.17587 4.35654,-50.74936 -0.004,-12.82585 -1.28698,-16.07587 -7.50999,-19.02888 -4.25631,-2.01975 -8.88083,-1.65854 -12.95661,1.01201 -4.94306,3.23882 -5.7809,6.5075 -6.64584,25.92748 -0.44093,9.9 -1.52321,23.175 -2.40506,29.5 -0.88185,6.325 -1.86174,15.41991 -2.17754,20.21091 -0.53087,8.05396 -0.37074,9.1267 2.12325,14.22424 3.33206,6.81048 9.30696,12.06277 16.1909,14.23274 5.77704,1.82105 6.34845,2.76744 6.37098,10.55184 0.0554,19.14484 9.54759,54.88401 20.24167,76.212 11.13052,22.19844 33.99298,32.98919 57.31188,27.05036 z" />
  <path style="fill:#d25889"
        d="m 215,586.12275 c -5.09785,-1.67434 -11.04837,-5.23779 -14.4847,-8.67412 -7.25814,-7.25814 -17.21935,-31.92503 -21.96066,-54.38106 -2.90953,-13.78024 -4.80565,-33.95726 -3.36056,-35.76043 1.3788,-1.72047 15.52582,-6.24554 24.56366,-7.85695 8.0808,-1.44077 19.17207,-1.84392 22.93914,-0.8338 2.19329,0.58813 2.19383,0.59478 0.32669,4.07846 -1.02974,1.92126 -2.18447,6.84315 -2.56952,10.95226 -0.6479,6.91405 -0.53041,7.64271 1.59762,9.90789 2.94596,3.13583 7.28912,3.19512 10.34304,0.1412 2.79516,-2.79516 5.18552,-16.03988 3.63217,-20.12549 -0.52275,-1.37495 -0.58429,-2.72621 -0.13675,-3.00281 1.77037,-1.09415 20.13902,4.68504 29.10987,9.15861 7.38445,3.68248 11.20914,6.41769 17.17503,12.28268 4.22127,4.14987 7.98499,8.78022 8.36384,10.28965 1.98091,7.89257 -21.83279,46.17359 -38.86803,62.48116 -8.76956,8.39497 -15.63323,11.51125 -26.17084,11.88222 -4.4,0.1549 -9.125,-0.0879 -10.5,-0.53947 z M 137.07895,432.41667 c 0.048,-1.16495 0.28494,-1.4019 0.60416,-0.60417 0.28887,0.72187 0.25335,1.58438 -0.0789,1.91667 -0.3323,0.33229 -0.56864,-0.25834 -0.52522,-1.3125 z m 27,-5 c 0.048,-1.16495 0.28494,-1.4019 0.60416,-0.60417 0.28887,0.72187 0.25335,1.58438 -0.0789,1.91667 -0.3323,0.33229 -0.56864,-0.25834 -0.52522,-1.3125 z m -26,-6 c 0.048,-1.16495 0.28494,-1.4019 0.60416,-0.60417 0.28887,0.72187 0.25335,1.58438 -0.0789,1.91667 -0.3323,0.33229 -0.56864,-0.25834 -0.52522,-1.3125 z M 165.15789,415 c 0,-1.375 0.22698,-1.9375 0.50439,-1.25 0.27741,0.6875 0.27741,1.8125 0,2.5 -0.27741,0.6875 -0.50439,0.125 -0.50439,-1.25 z m -25.88553,-16 c 0,-2.475 0.19502,-3.4875 0.43337,-2.25 0.23836,1.2375 0.23836,3.2625 0,4.5 -0.23835,1.2375 -0.43337,0.225 -0.43337,-2.25 z m 22.60008,-13.75 c -1.24387,-1.58606 -1.2085,-1.62143 0.37756,-0.37756 0.9625,0.75485 1.75,1.54235 1.75,1.75 0,0.82304 -0.82119,0.29331 -2.12756,-1.37244 z"/>
  <path style="fill:#538c9d"
        d="m 592.05207,769.32392 c -2.66529,-1.86684 -17.49661,-21.77071 -24.03571,-32.25629 -10.77473,-17.27752 -20.64774,-39.24228 -24.98718,-55.58971 -2.51682,-9.48131 -7.27877,-42.21301 -9.59875,-65.97792 -2.0046,-20.53426 -2.29182,-61.86878 -0.54895,-79 1.86549,-18.33646 5.66405,-41.79674 12.1291,-74.91048 11.80009,-60.43956 14.22996,-78.47025 14.29694,-106.08952 0.0557,-22.95601 -1.31469,-32.78845 -6.89378,-49.46302 -6.2685,-18.73504 -15.23852,-33.00804 -29.70694,-47.26935 C 509.83379,246.07889 494.81664,236.97588 479.30747,232.46008 460.03326,226.848 448.89371,225.56845 419,225.5328 c -28.7239,-0.0343 -37.53704,0.67046 -62.89816,5.02949 -7.91899,1.3611 -14.62559,2.24729 -14.90357,1.96931 -1.23432,-1.23432 31.51333,-14.37283 52.80173,-21.18431 24.38787,-7.80319 54.68342,-14.72131 78,-17.81165 116.18707,-15.39922 206.42461,22.57518 247.41469,104.1188 12.40477,24.67743 19.00137,47.33838 22.07865,75.84556 3.64303,33.74823 11.26795,83.83656 28.99974,190.5 11.62841,69.94934 16.70714,104.25583 16.87654,114 0.18171,10.4529 -2.22845,15.02023 -14.28918,27.07843 -11.49536,11.49296 -24.41912,20.29146 -43.08044,29.32919 -34.15108,16.53947 -71.03113,26.45903 -133.73073,35.96931 -1.22691,0.1861 -3.12465,-0.28776 -4.2172,-1.05301 z m 57.97416,-137.37784 c 11.52432,-1.43334 17.9467,-3.39377 28.00025,-8.5471 24.89408,-12.76041 40.49653,-37.45671 42.63784,-67.48921 1.1382,-15.96349 -3.30099,-34.49721 -11.06408,-46.19279 -11.76397,-17.72317 -29.89796,-26.65781 -54.19028,-26.69962 -22.72588,-0.0391 -43.62118,9.69064 -61.40996,28.59512 -11.20059,11.90309 -20.17621,27.83613 -23.65725,41.9951 -3.49026,14.19644 -1.8867,32.40323 3.86317,43.86232 9.06449,18.06491 30.14184,31.31672 54.79408,34.45027 9.39916,1.19473 11.60675,1.19745 21.02623,0.0259 z m -440.0812,-30.8313 c -18.49437,-5.91844 -28.1493,-17.09306 -38.33933,-44.37394 -6.61339,-17.70543 -12.58134,-45.38128 -12.61935,-58.52111 -0.0213,-7.37865 -0.79823,-9.07378 -4.64532,-10.13601 -8.36725,-2.31031 -15.58321,-8.63241 -18.89222,-16.55199 -1.93713,-4.63621 -1.82066,-10.44163 0.53007,-26.41985 1.08331,-7.36347 2.43807,-22.21347 3.01058,-33 0.5725,-10.78654 1.24996,-20.5539 1.50547,-21.70526 1.33375,-6.01014 10.80971,-10.58088 16.7185,-8.0642 6.11148,2.60301 8.17945,5.91885 8.62659,13.83209 0.50778,8.98644 -1.47983,35.46559 -3.92405,52.27666 -1.24077,8.5339 -1.53791,13.16445 -0.87118,13.57651 0.5565,0.34394 15.06159,-1.98003 32.23352,-5.16437 18.50678,-3.43187 34.09515,-5.8047 38.27752,-5.82651 12.4659,-0.065 16.34972,1.90023 54.62045,27.63845 C 305.25143,491.50386 321.73261,502 322.80113,502 c 1.41044,0 9.93017,-11.06648 31.09348,-40.38807 30.82925,-42.71365 31.1654,-43.08411 38.8324,-42.79588 4.36997,0.16429 7.76154,2.29722 10.31699,6.48828 2.34054,3.8386 2.48861,7.76503 0.44209,11.72258 -2.61664,5.06002 -59.17056,82.79435 -62.14923,85.42517 -1.56027,1.37807 -5.31186,3.45972 -8.33686,4.6259 -6.90837,2.66327 -16.43971,2.27374 -22.71016,-0.92814 C 307.97425,524.96743 305.86519,524 305.60303,524 c -0.26215,0 -2.62223,4.3875 -5.24461,9.75 -8.67747,17.74453 -27.44174,43.7279 -39.38185,54.53309 -14.06308,12.72635 -34.94949,17.97816 -51.03154,12.83169 z m 28.01226,-1.74411 c 12.54012,-3.55494 21.40344,-10.01427 33.15854,-24.16495 10.5613,-12.71362 20.80991,-28.09122 27.06863,-40.61532 2.77338,-5.54972 5.48466,-10.63858 6.02506,-11.30858 0.75233,-0.93275 2.19017,-0.60508 6.13652,1.39845 7.75615,3.93775 17.23994,3.8622 25.22076,-0.20092 5.87012,-2.98853 6.25986,-3.47231 36.65653,-45.5 30.14967,-41.68617 30.72383,-42.56991 30.75,-47.32935 0.0231,-4.20005 -0.42897,-5.30564 -3.37333,-8.25 -3.82035,-3.82035 -8.5501,-4.5114 -13.46873,-1.96788 -1.75336,0.90669 -13.3554,16.12778 -31.62322,41.48748 -15.86959,22.03045 -29.66523,40.3129 -30.65696,40.62766 -1.25242,0.3975 -12.73069,-6.72674 -37.58059,-23.32523 -22.32437,-14.91155 -37.84425,-24.61546 -41.27397,-25.80682 -9.1656,-3.18379 -18.60243,-2.46696 -53.32066,4.05029 -21.98271,4.12655 -31.13246,5.47791 -31.8991,4.71127 -0.76664,-0.76664 -0.45645,-5.60722 1.08141,-16.87588 2.32682,-17.04968 4.55447,-50.25949 3.60155,-53.69206 -2.38081,-8.5761 -9.86294,-12.03728 -17.49246,-8.0919 -4.79788,2.48108 -5.63001,5.50092 -6.3331,22.98307 -0.70466,17.52112 -1.77971,28.64727 -4.26548,44.14517 -1.98767,12.39248 -1.34134,17.68259 2.93847,24.05078 3.64145,5.41832 8.1869,8.79848 14.10185,10.48663 2.25005,0.64217 4.59193,1.54281 5.20419,2.00142 0.61227,0.4586 1.41918,4.76732 1.79314,9.57491 2.02994,26.09647 9.11247,53.15744 19.58376,74.82567 11.32974,23.44461 33.54413,33.70968 57.96719,26.78609 z"/>
  <path style="fill:#2d152d"
        d="m 629,631.92017 c -24.65224,-3.13355 -45.72959,-16.38536 -54.79408,-34.45027 -5.74987,-11.45909 -7.35343,-29.66588 -3.86317,-43.86232 6.25131,-25.42692 26.95455,-50.79801 51.15374,-62.68713 15.4793,-7.60501 34.21074,-9.9601 50.97482,-6.40901 20.30251,4.30062 36.23062,18.32875 43.53431,38.34134 11.57585,31.71858 1.65427,69.87373 -23.75636,91.35923 -6.52736,5.51909 -20.18911,12.83078 -28.24926,15.11884 -6.00961,1.70597 -20.66453,3.74386 -25.47377,3.54235 C 636.86181,632.8035 632.575,632.37459 629,631.92017 Z M 216,601.01532 c -16.39183,-3.09328 -28.3144,-12.50646 -36.0099,-28.43074 -10.47129,-21.66823 -17.55382,-48.7292 -19.58376,-74.82567 -0.37396,-4.80759 -1.18087,-9.11631 -1.79314,-9.57491 -0.61226,-0.45861 -2.95414,-1.35925 -5.20419,-2.00142 -5.91495,-1.68815 -10.4604,-5.06831 -14.10185,-10.48663 -4.27981,-6.36819 -4.92614,-11.6583 -2.93847,-24.05078 2.48577,-15.4979 3.56082,-26.62405 4.26548,-44.14517 0.70309,-17.48215 1.53522,-20.50199 6.3331,-22.98307 7.62952,-3.94538 15.11165,-0.4842 17.49246,8.0919 0.95292,3.43257 -1.27473,36.64238 -3.60155,53.69206 -1.53786,11.26866 -1.84805,16.10924 -1.08141,16.87588 0.76664,0.76664 9.91639,-0.58472 31.8991,-4.71127 34.71823,-6.51725 44.15506,-7.23408 53.32066,-4.05029 3.42972,1.19136 18.9496,10.89527 41.27397,25.80682 24.8499,16.59849 36.32817,23.72273 37.58059,23.32523 0.99173,-0.31476 14.78737,-18.59721 30.65696,-40.62766 18.26782,-25.3597 29.86986,-40.58079 31.62322,-41.48748 4.91863,-2.54352 9.64838,-1.85247 13.46873,1.96788 2.94436,2.94436 3.39643,4.04995 3.37333,8.25 -0.0262,4.75944 -0.60033,5.64318 -30.75,47.32935 -30.39667,42.02769 -30.78641,42.51147 -36.65653,45.5 -7.98082,4.06312 -17.46461,4.13867 -25.22076,0.20092 -3.94635,-2.00353 -5.38419,-2.3312 -6.13652,-1.39845 -0.5404,0.67 -3.25168,5.75886 -6.02506,11.30858 -9.4716,18.95329 -29.30467,45.71538 -40.34867,54.44516 C 245.67806,598.6457 228.90097,603.44985 216,601.01532 Z m 23.30531,-17.29503 c 3.40172,-1.55884 8.52145,-5.26041 12.36553,-8.94029 17.03524,-16.30757 40.84894,-54.58859 38.86803,-62.48116 -0.37885,-1.50943 -4.14257,-6.13978 -8.36384,-10.28965 -5.96589,-5.86499 -9.79058,-8.6002 -17.17503,-12.28268 -8.97085,-4.47357 -27.3395,-10.25276 -29.10987,-9.15861 -0.44754,0.2766 -0.386,1.62786 0.13675,3.00281 1.55335,4.08561 -0.83701,17.33033 -3.63217,20.12549 -3.05392,3.05392 -7.39708,2.99463 -10.34304,-0.1412 -2.12803,-2.26518 -2.24552,-2.99384 -1.59762,-9.90789 0.38505,-4.10911 1.53978,-9.031 2.56952,-10.95226 1.86714,-3.48368 1.8666,-3.49033 -0.32669,-4.07846 -3.76707,-1.01012 -14.85834,-0.60697 -22.93914,0.8338 -9.03784,1.61141 -23.18486,6.13648 -24.56366,7.85695 -1.44509,1.80317 0.45103,21.98019 3.36056,35.76043 4.74131,22.45603 14.70252,47.12292 21.96066,54.38106 3.43633,3.43633 9.38685,6.99978 14.4847,8.67412 1.375,0.45161 6.1,0.69437 10.5,0.53947 6.12057,-0.21548 9.36383,-0.90662 13.80531,-2.94193 z"/>
</svg>
