<?xml version="1.0" encoding="UTF-8" standalone="no"?>
<!DOCTYPE svg PUBLIC "-//W3C//DTD SVG 1.1//EN" "http://www.w3.org/Graphics/SVG/1.1/DTD/svg11.dtd">
<svg xmlns="http://www.w3.org/2000/svg" version="1.1" viewBox="0 0 240 240" width="240.0pt" height="240.0pt">
<path d="M 105.09 35.91 C 110.71 38.87 112.49 45.03 112.68 50.98 C 114.20 51.58 115.71 52.18 117.22 52.81 C 121.92 49.91 127.52 49.93 132.60 51.80 C 135.12 48.37 138.62 46.04 143.00 46.06 C 147.25 46.04 150.63 48.51 152.88 51.94 C 156.16 50.74 159.54 50.95 162.88 51.57 C 164.16 46.75 167.33 42.48 172.45 41.47 C 177.47 40.52 182.00 44.10 183.37 48.80 C 185.47 57.15 184.12 65.50 180.59 73.25 C 184.92 69.69 189.14 66.88 195.00 66.83 C 200.92 67.08 207.56 68.87 212.00 73.00 C 216.30 77.01 220.09 81.35 222.01 87.01 C 222.46 88.57 224.26 88.80 225.52 89.50 C 231.34 92.73 234.07 101.45 230.12 107.09 C 229.07 108.86 227.39 109.66 225.91 110.98 C 224.56 113.87 223.71 116.93 222.04 119.71 C 226.54 123.46 227.69 128.40 226.29 133.98 C 228.83 134.45 231.20 135.05 233.18 136.80 C 237.89 140.81 239.17 148.34 235.39 153.40 C 232.58 157.28 227.98 158.61 223.36 158.51 C 220.18 164.41 215.33 166.83 208.69 166.61 C 208.90 167.61 209.04 168.61 209.13 169.62 C 215.81 169.50 221.42 175.02 219.81 181.83 C 217.95 189.14 209.86 192.14 203.08 189.82 C 200.99 191.71 198.85 193.29 196.00 193.79 C 191.85 194.78 188.11 193.20 184.78 190.83 C 179.43 194.97 173.80 198.34 167.00 199.37 C 157.96 201.33 148.91 200.01 140.24 197.15 C 135.99 199.80 130.85 200.59 126.07 199.00 C 123.10 197.88 121.25 195.64 119.64 193.02 C 117.67 193.98 115.55 194.68 113.46 195.28 C 111.12 198.98 107.54 201.58 103.00 201.39 C 98.30 201.21 94.60 198.16 92.60 194.03 C 83.73 195.89 73.66 193.08 65.56 189.35 C 66.10 187.88 66.64 186.43 67.30 185.00 C 68.21 182.39 66.46 179.80 65.62 177.32 C 68.79 178.94 71.66 180.86 75.01 181.90 C 81.63 183.18 88.22 183.52 94.93 182.89 C 94.53 184.51 94.14 186.13 93.78 187.76 C 92.38 187.23 90.94 186.75 89.48 186.32 C 88.83 189.97 95.20 190.81 97.67 191.39 C 98.37 192.93 99.39 194.33 100.44 195.65 C 104.23 196.14 105.56 195.24 107.31 191.96 C 107.54 190.94 107.72 189.92 107.85 188.89 C 108.96 189.42 110.08 189.94 111.20 190.44 C 112.16 189.96 113.15 189.52 114.14 189.10 C 118.26 187.77 119.87 183.92 117.98 180.06 C 116.40 176.99 113.23 177.12 110.22 176.13 C 111.03 175.71 111.81 175.25 112.59 174.77 C 113.51 174.79 114.42 174.82 115.34 174.85 C 120.42 174.84 125.49 174.60 130.58 174.69 C 131.21 176.29 131.91 177.86 132.51 179.46 L 130.78 181.33 C 129.71 180.16 128.93 179.06 127.17 179.19 C 127.32 181.23 128.28 182.47 129.55 183.99 C 128.05 185.53 126.61 186.91 126.17 189.10 C 126.09 190.49 126.57 191.69 126.83 193.04 C 131.50 196.27 138.55 192.21 138.61 186.71 L 139.97 186.83 C 140.33 186.21 140.76 185.66 141.24 185.16 C 141.39 185.78 141.53 186.41 141.67 187.04 C 142.17 187.38 142.66 187.72 143.16 188.06 C 144.96 189.54 146.59 190.53 148.98 190.63 C 156.39 191.20 164.37 190.40 171.14 187.15 C 174.81 185.25 178.79 183.63 181.27 180.26 C 182.80 178.11 184.98 176.44 184.55 173.57 C 185.85 172.26 186.98 170.82 188.04 169.31 C 188.67 170.55 189.34 171.71 189.76 173.03 C 189.29 175.57 186.37 177.40 185.90 179.98 C 185.72 181.83 186.53 183.78 186.91 185.58 C 186.50 186.27 186.19 187.02 186.00 187.84 C 187.27 187.61 188.45 187.59 189.47 186.71 C 192.51 188.81 196.56 189.46 199.20 186.38 C 199.73 185.78 200.26 185.17 200.78 184.55 C 200.82 181.22 200.21 179.76 197.69 177.54 C 199.15 175.82 200.42 174.01 201.22 171.88 C 202.07 169.83 202.32 167.14 200.27 165.72 C 198.03 164.66 195.33 163.62 192.93 164.80 C 191.82 166.05 191.00 166.74 189.33 167.24 C 190.32 165.52 191.52 163.96 192.55 162.27 C 195.24 164.14 197.98 158.97 197.63 156.97 C 196.05 157.27 194.89 158.14 194.16 159.58 C 194.62 158.08 195.72 157.30 196.85 156.32 L 196.18 154.99 C 197.35 155.89 198.70 156.97 200.11 157.42 C 201.97 157.66 203.80 157.98 205.58 158.54 C 204.37 159.81 203.59 161.22 203.24 162.76 C 206.48 162.66 208.61 158.54 210.24 156.17 C 214.19 156.91 216.23 155.80 217.42 152.02 C 216.43 149.90 215.18 148.89 213.26 147.65 C 213.34 147.01 213.43 146.38 213.52 145.74 C 216.86 144.74 218.19 143.98 219.86 140.86 C 219.86 137.14 217.37 136.34 214.13 136.27 C 214.17 135.38 214.18 134.48 214.14 133.60 C 216.97 132.85 220.19 131.18 220.78 128.10 C 219.69 124.39 216.72 122.95 213.02 124.33 C 211.38 124.06 209.73 123.55 208.11 123.12 C 207.77 122.11 207.30 121.14 206.70 120.22 C 205.53 120.92 205.17 122.20 205.60 124.06 C 205.38 122.84 204.96 121.65 204.63 120.46 C 203.94 120.36 203.26 120.21 202.60 120.02 L 201.83 118.97 C 204.39 119.62 207.43 118.81 209.97 118.20 C 215.70 115.38 219.16 108.62 220.65 102.66 C 222.95 101.65 225.00 100.96 224.92 98.00 C 224.94 94.44 222.68 93.48 219.99 91.97 C 219.04 88.99 218.46 86.20 216.25 83.83 C 213.59 80.46 210.20 79.37 206.62 77.32 C 204.26 76.01 201.88 76.16 199.33 76.78 L 199.78 77.94 C 204.31 78.59 208.53 81.12 212.13 83.83 C 215.39 86.25 215.91 89.70 217.43 93.25 C 215.92 94.34 214.23 95.06 213.61 96.94 C 213.72 99.83 215.54 101.18 217.70 102.71 C 215.78 106.89 213.59 112.02 209.63 114.67 C 204.38 117.36 196.24 115.12 192.70 110.45 C 191.93 110.43 191.15 110.41 190.38 110.39 C 193.09 107.16 194.63 101.56 190.07 99.16 L 190.36 98.21 C 191.09 96.31 190.04 94.96 189.97 93.06 C 189.43 89.74 189.95 86.12 190.85 82.90 C 192.99 80.73 195.35 78.80 197.87 77.09 C 196.89 76.17 195.98 75.88 195.14 76.23 C 192.46 77.08 190.56 78.80 188.50 80.62 C 184.40 77.71 179.95 77.92 175.17 78.52 C 174.01 78.82 173.02 79.83 172.07 80.52 C 170.09 79.00 168.06 77.30 165.78 76.24 C 163.03 75.17 159.92 74.90 156.99 74.74 C 152.86 75.39 148.12 75.44 144.37 77.34 C 143.42 77.70 142.89 78.52 142.79 79.78 C 149.45 78.01 156.10 77.68 162.92 78.33 C 165.50 79.76 167.98 80.79 169.85 83.19 C 172.36 88.40 172.17 93.95 170.55 99.38 C 171.02 99.97 171.49 100.56 171.96 101.15 C 169.01 103.59 169.11 105.31 169.19 108.95 C 164.92 112.52 160.30 114.96 155.32 117.33 C 152.83 119.68 148.09 118.50 144.89 118.79 C 146.77 118.61 149.53 119.31 150.17 116.94 C 146.68 116.01 142.81 115.91 139.58 114.38 C 135.80 111.76 133.56 106.89 132.53 102.53 C 131.78 96.26 133.61 90.37 137.26 85.28 C 138.40 83.00 140.39 82.06 142.51 80.86 C 141.56 78.62 138.14 81.00 136.88 81.87 C 134.36 84.50 131.91 87.72 130.97 91.31 C 130.80 89.93 130.59 88.57 130.43 87.19 L 130.13 85.06 C 128.67 83.24 126.49 82.67 124.27 83.33 C 123.18 83.97 122.29 85.00 121.37 85.85 C 121.45 87.04 121.34 88.26 121.04 89.51 C 119.09 93.84 124.41 97.14 128.13 95.13 C 129.22 94.32 130.10 93.13 130.76 91.95 C 128.65 98.20 128.98 104.16 131.93 110.05 C 128.33 113.06 126.58 116.96 125.23 121.40 C 123.36 121.14 120.41 122.19 118.65 121.32 C 118.23 118.07 117.93 114.84 117.12 111.65 C 119.68 110.56 122.14 109.89 122.90 106.88 C 123.82 105.74 125.92 104.59 125.82 103.00 C 126.23 98.42 121.87 95.52 117.57 96.46 C 116.58 94.79 116.77 92.77 114.19 93.17 C 114.40 95.02 114.93 96.70 115.76 98.21 C 116.40 98.49 117.06 98.65 117.75 98.68 C 116.18 98.63 114.63 98.89 113.06 98.77 C 113.38 95.20 112.78 91.79 112.02 88.33 C 110.97 88.37 109.93 88.44 108.89 88.53 C 111.98 95.78 110.49 106.03 102.98 109.97 C 100.63 111.43 97.24 110.63 95.95 113.06 C 95.28 115.44 96.74 119.89 93.93 121.05 C 92.27 122.31 89.44 121.11 88.84 119.17 C 87.98 116.60 88.19 113.61 88.17 110.93 C 85.65 109.84 83.19 108.63 80.70 107.47 L 80.13 108.88 L 80.61 109.95 C 79.53 108.63 78.43 107.36 77.14 106.24 L 78.27 106.85 L 79.97 106.26 C 74.06 101.19 73.54 92.99 74.55 85.79 C 76.18 81.81 79.63 77.81 83.95 76.72 C 87.01 75.64 90.73 76.28 93.92 76.15 C 93.49 74.10 90.71 73.88 89.05 73.31 C 85.20 73.69 80.30 74.51 77.51 77.47 C 75.59 79.32 73.99 81.57 72.72 83.91 L 71.87 85.26 C 70.93 85.49 69.96 85.59 68.96 85.56 C 66.36 85.41 64.55 86.78 62.05 87.25 C 58.45 85.88 54.89 87.41 54.85 91.55 C 50.31 93.15 48.96 95.68 49.69 100.49 C 48.71 102.44 47.39 104.38 46.80 106.48 C 45.69 109.82 45.69 113.49 44.50 116.81 C 43.45 120.09 42.52 123.50 42.53 126.96 C 42.67 130.95 41.73 134.45 43.54 138.21 C 46.41 145.24 46.21 152.52 50.31 158.43 L 48.05 159.34 C 45.65 159.02 43.78 158.20 41.51 159.55 C 37.69 160.82 38.25 165.42 39.92 168.19 C 41.71 171.07 44.43 171.28 47.50 170.59 C 46.17 173.69 46.28 174.41 48.78 176.66 C 49.10 178.36 49.34 180.07 49.40 181.80 C 47.06 180.69 44.04 179.68 42.22 177.75 C 41.03 176.09 40.16 174.23 39.01 172.54 C 37.29 176.05 40.25 179.97 43.00 182.01 C 46.06 183.72 50.00 184.93 53.49 184.05 C 54.86 186.55 56.37 188.94 58.38 190.99 C 53.15 192.74 47.27 191.69 42.26 189.73 C 37.55 187.84 34.66 183.99 32.36 179.66 C 24.45 182.50 16.13 177.04 14.67 169.03 C 13.50 162.26 18.76 156.18 24.92 154.18 C 20.17 152.64 17.81 150.65 15.53 146.21 C 11.38 146.49 7.48 145.56 4.69 142.32 C 0.71 137.75 1.25 130.52 4.95 125.97 C 8.21 121.66 13.64 119.53 18.96 119.89 C 20.12 118.52 21.39 117.26 22.60 115.94 C 16.28 108.02 16.37 97.11 20.16 88.08 C 18.34 83.63 18.76 78.72 22.34 75.31 C 25.85 72.16 30.61 71.92 34.84 73.71 C 38.42 72.54 42.20 71.22 46.00 71.12 C 51.09 71.27 56.19 72.22 60.99 73.92 C 64.66 72.62 68.11 72.39 71.97 72.79 C 74.55 70.86 77.35 69.28 80.38 68.17 C 78.49 59.68 77.99 51.19 80.60 42.78 C 81.72 39.53 83.66 36.44 87.17 35.47 C 93.19 34.40 99.36 32.89 105.09 35.91 Z" fill="#ffffff" />
<path d="M 94.46 41.60 C 98.28 41.27 101.62 40.65 104.85 43.19 C 108.17 45.51 109.05 48.33 107.49 52.13 C 103.05 56.10 97.31 58.08 91.43 58.41 C 90.70 61.33 90.54 64.26 90.18 67.23 C 89.69 68.76 89.46 70.65 87.40 69.69 C 86.44 63.62 86.59 57.14 86.49 50.99 C 87.26 47.53 86.66 44.38 88.87 41.38 C 90.77 43.79 92.04 41.87 94.46 41.60 Z" fill="#4f555e" />
<path d="M 93.05 45.78 C 96.14 45.30 98.66 44.83 101.42 46.71 C 101.38 47.71 101.49 48.67 101.74 49.60 C 99.53 53.53 95.94 53.92 91.88 54.56 C 92.51 51.70 92.68 48.69 93.05 45.78 Z" fill="#ffffff" />
<path d="M 173.52 46.50 C 175.02 44.42 176.04 45.91 177.52 46.98 C 176.67 50.45 175.27 53.67 174.02 57.00 C 173.27 58.76 172.38 60.65 170.72 61.73 C 169.05 62.06 168.76 60.92 167.61 60.02 C 168.78 54.73 170.47 50.96 173.52 46.50 Z" fill="#4f555e" />
<path d="M 140.38 50.43 C 142.06 50.21 144.35 49.93 145.54 51.42 C 146.66 55.60 140.32 55.80 138.50 53.58 C 138.39 51.88 138.65 51.00 140.38 50.43 Z" fill="#4f555e" />
<path d="M 157.06 54.55 C 159.31 54.71 161.61 55.95 161.61 58.46 C 159.66 58.93 157.72 58.89 155.74 58.59 C 154.53 59.82 153.66 60.75 154.44 62.56 C 156.18 63.82 159.07 62.20 160.35 64.00 C 161.02 64.84 160.72 65.63 159.48 66.35 C 156.06 67.49 150.72 66.81 148.53 63.56 C 148.02 61.50 148.43 58.57 150.04 57.03 C 152.01 55.60 154.58 54.42 157.06 54.55 Z" fill="#4f555e" />
<path d="M 122.05 55.95 C 123.99 55.14 125.38 56.92 126.12 58.48 C 128.80 57.69 130.72 57.61 133.38 58.48 C 136.65 61.38 135.91 64.64 134.15 68.16 C 132.80 69.44 130.93 68.14 129.48 67.84 C 129.11 65.70 128.58 63.34 129.01 61.19 C 128.06 61.32 127.10 61.35 126.13 61.28 C 124.99 64.21 126.23 68.15 123.02 69.47 C 121.64 68.38 120.24 68.08 120.26 66.02 C 120.17 62.89 119.95 58.52 122.05 55.95 Z" fill="#4f555e" />
<path d="M 114.04 56.67 C 114.86 56.94 115.61 57.32 116.28 57.81 C 117.38 60.96 116.78 64.91 116.05 68.11 C 115.20 69.64 113.54 68.46 112.26 68.31 C 109.18 69.84 105.33 70.02 102.10 68.91 C 100.57 68.18 100.17 66.60 99.36 65.24 C 99.72 62.50 100.19 60.15 102.83 58.78 C 105.53 57.77 109.06 58.14 111.88 58.51 C 112.70 57.99 113.42 57.38 114.04 56.67 Z" fill="#4f555e" />
<path d="M 141.96 56.53 C 144.53 57.45 144.89 59.56 144.52 62.02 C 143.76 64.54 144.20 67.45 140.84 67.69 C 139.77 66.45 138.35 65.96 138.57 64.06 C 139.09 61.14 138.61 57.70 141.96 56.53 Z" fill="#4f555e" />
<path d="M 111.56 63.05 C 109.99 66.07 106.70 66.57 103.91 64.87 C 104.56 63.87 105.16 62.85 105.81 61.85 C 108.28 60.86 109.44 61.88 111.56 63.05 Z" fill="#ffffff" />
<path d="M 169.82 64.12 C 169.69 64.88 169.55 65.64 169.41 66.40 C 167.55 66.73 166.34 67.29 164.60 66.13 C 164.55 64.92 164.93 63.72 165.72 62.55 C 167.32 62.23 169.35 62.17 169.82 64.12 Z" fill="#4f555e" />
<path d="M 89.05 73.31 C 90.71 73.88 93.49 74.10 93.92 76.15 C 90.73 76.28 87.01 75.64 83.95 76.72 C 79.63 77.81 76.18 81.81 74.55 85.79 C 73.54 92.99 74.06 101.19 79.97 106.26 L 78.27 106.85 L 77.14 106.24 C 71.99 100.82 70.48 90.86 72.72 83.91 C 73.99 81.57 75.59 79.32 77.51 77.47 C 80.30 74.51 85.20 73.69 89.05 73.31 Z" fill="#4f555e" />
<path d="M 156.99 74.74 C 159.92 74.90 163.03 75.17 165.78 76.24 C 168.06 77.30 170.09 79.00 172.07 80.52 C 173.02 79.83 174.01 78.82 175.17 78.52 C 179.95 77.92 184.40 77.71 188.50 80.62 C 190.56 78.80 192.46 77.08 195.14 76.23 C 195.98 75.88 196.89 76.17 197.87 77.09 C 195.35 78.80 192.99 80.73 190.85 82.90 C 189.95 86.12 189.43 89.74 189.97 93.06 C 190.04 94.96 191.09 96.31 190.36 98.21 C 187.94 94.60 185.85 91.20 186.85 86.64 C 187.16 85.15 187.46 83.65 187.81 82.16 C 183.18 81.61 177.10 79.55 172.90 82.00 C 173.40 83.29 173.93 84.56 174.35 85.88 C 175.38 90.70 175.04 95.57 172.82 100.02 C 174.37 99.37 175.97 98.85 177.50 98.17 C 176.41 94.22 179.54 90.01 183.81 91.24 C 187.00 92.50 186.84 94.91 187.36 97.84 C 188.29 98.24 189.19 98.67 190.07 99.16 C 194.63 101.56 193.09 107.16 190.38 110.39 C 191.15 110.41 191.93 110.43 192.70 110.45 C 196.24 115.12 204.38 117.36 209.63 114.67 C 213.59 112.02 215.78 106.89 217.70 102.71 C 215.54 101.18 213.72 99.83 213.61 96.94 C 214.23 95.06 215.92 94.34 217.43 93.25 C 215.91 89.70 215.39 86.25 212.13 83.83 C 208.53 81.12 204.31 78.59 199.78 77.94 L 199.33 76.78 C 201.88 76.16 204.26 76.01 206.62 77.32 C 210.20 79.37 213.59 80.46 216.25 83.83 C 218.46 86.20 219.04 88.99 219.99 91.97 C 222.68 93.48 224.94 94.44 224.92 98.00 C 225.00 100.96 222.95 101.65 220.65 102.66 C 219.16 108.62 215.70 115.38 209.97 118.20 C 207.43 118.81 204.39 119.62 201.83 118.97 C 198.46 116.97 194.64 117.14 192.72 113.40 C 192.21 111.76 191.21 111.22 189.75 110.59 C 188.23 112.34 186.39 112.96 184.25 113.62 C 184.45 116.50 183.89 119.04 182.65 121.62 C 180.17 122.18 176.06 123.18 174.74 120.20 C 173.31 117.31 175.73 115.55 175.09 112.88 C 172.98 112.58 171.70 112.03 170.02 110.75 C 166.89 115.10 162.16 117.98 156.83 118.66 L 155.32 117.33 C 160.30 114.96 164.92 112.52 169.19 108.95 C 169.11 105.31 169.01 103.59 171.96 101.15 C 171.49 100.56 171.02 99.97 170.55 99.38 C 172.17 93.95 172.36 88.40 169.85 83.19 C 167.98 80.79 165.50 79.76 162.92 78.33 C 156.10 77.68 149.45 78.01 142.79 79.78 C 142.89 78.52 143.42 77.70 144.37 77.34 C 148.12 75.44 152.86 75.39 156.99 74.74 Z" fill="#4f555e" />
<path d="M 97.76 75.97 C 99.22 76.23 100.81 76.04 102.01 77.00 C 105.93 79.74 109.39 82.94 111.53 87.28 C 110.56 87.63 109.60 88.00 108.64 88.38 C 107.81 85.04 104.44 82.27 102.08 79.91 C 100.70 78.49 98.39 77.84 97.76 75.97 Z" fill="#4f555e" />
<path d="M 44.26 78.13 C 44.68 78.62 45.09 79.11 45.50 79.61 L 46.61 78.36 C 50.02 78.48 54.04 78.91 56.86 81.00 C 56.27 81.60 55.68 82.20 55.08 82.79 C 52.32 80.81 48.23 81.25 45.01 81.42 C 41.84 81.98 39.04 81.92 36.32 83.65 C 37.53 87.83 33.10 90.04 29.52 89.41 C 28.33 92.05 26.31 93.86 26.26 96.98 C 25.43 102.19 27.32 106.72 29.84 111.13 C 32.00 114.31 35.52 115.71 39.26 115.81 C 40.25 112.31 41.04 107.41 43.95 104.99 C 43.83 108.58 41.90 111.60 41.58 115.16 C 39.92 124.22 39.53 133.83 41.64 142.84 C 42.09 146.52 44.99 150.47 44.15 154.12 C 41.52 153.85 41.68 152.38 40.96 150.28 C 39.60 145.92 38.40 141.62 37.91 137.07 C 37.21 131.07 37.48 124.57 38.83 118.68 C 36.01 118.90 33.85 117.66 31.36 116.61 C 27.60 114.32 26.03 110.41 24.58 106.47 C 22.69 102.62 23.11 98.61 23.61 94.47 C 24.39 91.90 26.16 89.63 27.34 87.23 C 26.56 85.36 26.37 84.25 27.27 82.40 C 27.98 79.33 32.80 79.95 35.00 80.76 C 37.96 79.27 41.26 79.34 44.26 78.13 Z" fill="#4f555e" />
<path d="M 70.66 79.89 L 70.87 81.06 C 63.60 81.58 56.52 83.91 52.26 90.19 C 50.90 91.79 49.93 94.96 47.80 95.53 C 47.48 90.76 52.59 85.73 56.08 82.95 C 60.32 80.83 65.93 78.83 70.66 79.89 Z" fill="#4f555e" />
<path d="M 142.51 80.86 C 140.39 82.06 138.40 83.00 137.26 85.28 C 133.61 90.37 131.78 96.26 132.53 102.53 C 133.56 106.89 135.80 111.76 139.58 114.38 C 142.81 115.91 146.68 116.01 150.17 116.94 C 149.53 119.31 146.77 118.61 144.89 118.79 C 139.94 118.69 135.42 116.20 132.90 111.88 C 131.03 114.88 129.40 117.90 128.43 121.32 C 130.59 121.33 132.90 121.55 135.04 121.81 C 137.09 124.57 140.49 124.03 142.98 126.45 C 143.84 128.05 145.39 129.88 144.08 131.68 C 142.50 130.10 140.88 128.14 138.83 127.16 C 137.15 126.47 136.75 128.85 136.57 129.99 C 137.24 132.07 139.67 133.38 141.25 134.79 C 136.33 136.08 131.50 131.29 134.42 126.57 C 135.18 125.62 135.88 124.63 136.56 123.63 C 133.88 124.13 130.09 123.65 127.69 124.71 C 126.66 127.47 126.48 130.68 125.93 133.54 C 126.91 133.65 127.89 133.77 128.88 133.90 L 130.79 134.13 L 129.54 135.35 C 128.44 135.49 127.36 135.56 126.27 135.57 C 125.77 137.38 125.72 138.32 126.47 140.10 C 126.29 141.83 123.83 143.24 122.30 143.80 C 121.52 141.10 123.91 140.36 125.58 138.89 C 125.05 137.93 124.54 136.96 124.05 135.98 C 120.93 136.39 117.50 137.16 114.37 136.64 C 113.23 135.45 114.09 133.90 114.46 132.57 C 115.42 130.14 115.60 127.63 115.68 125.05 C 112.67 125.09 109.47 125.92 106.53 125.25 C 107.38 121.77 112.95 122.70 115.72 122.14 C 116.06 118.34 115.79 114.90 115.18 111.14 L 117.12 111.65 C 117.93 114.84 118.23 118.07 118.65 121.32 C 120.41 122.19 123.36 121.14 125.23 121.40 C 126.58 116.96 128.33 113.06 131.93 110.05 C 128.98 104.16 128.65 98.20 130.76 91.95 L 130.97 91.31 C 131.91 87.72 134.36 84.50 136.88 81.87 C 138.14 81.00 141.56 78.62 142.51 80.86 Z" fill="#4f555e" />
<path d="M 187.81 82.16 C 187.46 83.65 187.16 85.15 186.85 86.64 C 183.35 82.92 178.54 84.39 174.35 85.88 C 173.93 84.56 173.40 83.29 172.90 82.00 C 177.10 79.55 183.18 81.61 187.81 82.16 Z" fill="#ffffff" />
<path d="M 124.27 83.33 C 126.49 82.67 128.67 83.24 130.13 85.06 L 130.43 87.19 C 128.63 86.45 127.03 85.56 125.02 85.67 C 124.65 86.48 124.21 87.26 123.69 88.01 C 124.57 89.92 126.00 90.92 127.68 92.06 C 125.03 94.34 122.49 91.84 121.04 89.51 C 121.34 88.26 121.45 87.04 121.37 85.85 C 122.29 85.00 123.18 83.97 124.27 83.33 Z" fill="#4f555e" />
<path d="M 72.72 83.91 C 70.48 90.86 71.99 100.82 77.14 106.24 C 78.43 107.36 79.53 108.63 80.61 109.95 C 81.85 111.35 83.85 112.36 85.51 113.23 C 85.46 116.21 85.67 119.94 87.68 122.32 C 89.69 124.44 92.20 124.70 94.95 124.06 C 98.24 121.89 99.17 118.60 98.41 114.82 C 101.10 113.49 103.88 113.19 106.23 111.20 C 110.40 108.21 112.31 103.71 113.06 98.77 C 114.63 98.89 116.18 98.63 117.75 98.68 C 119.41 98.83 121.39 99.13 122.45 100.56 C 123.84 102.87 122.00 102.97 120.48 104.24 C 120.44 102.75 119.95 101.66 119.01 100.97 C 118.34 101.31 117.65 101.62 116.96 101.91 C 117.70 103.58 117.96 105.34 117.88 107.16 C 119.61 107.34 121.22 107.43 122.90 106.88 C 122.14 109.89 119.68 110.56 117.12 111.65 L 115.18 111.14 C 115.79 114.90 116.06 118.34 115.72 122.14 C 112.95 122.70 107.38 121.77 106.53 125.25 C 109.47 125.92 112.67 125.09 115.68 125.05 C 115.60 127.63 115.42 130.14 114.46 132.57 C 114.09 133.90 113.23 135.45 114.37 136.64 C 117.50 137.16 120.93 136.39 124.05 135.98 C 124.54 136.96 125.05 137.93 125.58 138.89 C 123.91 140.36 121.52 141.10 122.30 143.80 C 123.83 143.24 126.29 141.83 126.47 140.10 C 125.72 138.32 125.77 137.38 126.27 135.57 C 127.36 135.56 128.44 135.49 129.54 135.35 C 128.70 137.01 127.32 139.04 127.39 140.96 C 128.94 144.23 131.12 146.59 135.01 146.59 C 138.61 146.65 139.79 144.07 141.58 141.56 C 141.04 140.38 140.93 139.04 140.44 137.83 C 142.39 136.84 144.78 136.06 146.39 134.55 C 146.61 132.82 147.00 130.46 146.12 128.88 C 145.45 127.47 144.20 127.26 142.98 126.45 C 140.49 124.03 137.09 124.57 135.04 121.81 C 132.90 121.55 130.59 121.33 128.43 121.32 C 129.40 117.90 131.03 114.88 132.90 111.88 C 135.42 116.20 139.94 118.69 144.89 118.79 C 148.09 118.50 152.83 119.68 155.32 117.33 L 156.83 118.66 C 162.16 117.98 166.89 115.10 170.02 110.75 C 171.70 112.03 172.98 112.58 175.09 112.88 C 175.73 115.55 173.31 117.31 174.74 120.20 C 176.06 123.18 180.17 122.18 182.65 121.62 C 183.89 119.04 184.45 116.50 184.25 113.62 C 186.39 112.96 188.23 112.34 189.75 110.59 C 191.21 111.22 192.21 111.76 192.72 113.40 C 194.64 117.14 198.46 116.97 201.83 118.97 L 202.60 120.02 C 203.26 120.21 203.94 120.36 204.63 120.46 C 204.96 121.65 205.38 122.84 205.60 124.06 L 205.66 124.78 C 204.07 127.50 204.13 130.04 204.25 133.09 C 200.93 134.55 200.24 137.18 200.73 140.53 C 201.40 141.78 202.24 142.92 203.15 144.01 C 200.67 146.34 197.02 145.42 194.63 148.45 C 194.06 151.19 194.83 152.72 196.18 154.99 L 196.85 156.32 C 195.72 157.30 194.62 158.08 194.16 159.58 C 193.63 160.48 193.09 161.38 192.55 162.27 C 191.52 163.96 190.32 165.52 189.33 167.24 C 188.91 167.94 188.50 168.64 188.04 169.31 C 186.98 170.82 185.85 172.26 184.55 173.57 C 181.13 176.56 179.02 179.99 175.14 182.17 C 169.70 185.44 163.29 187.27 157.01 188.01 C 153.03 188.05 149.06 187.18 145.08 187.16 L 143.16 188.06 C 142.66 187.72 142.17 187.38 141.67 187.04 C 141.53 186.41 141.39 185.78 141.24 185.16 C 140.63 183.33 140.93 180.68 139.02 179.74 C 137.21 179.11 135.04 179.30 133.14 179.33 L 132.51 179.46 C 131.91 177.86 131.21 176.29 130.58 174.69 C 132.11 174.51 135.35 174.97 135.97 173.03 C 130.11 171.18 124.10 171.21 118.05 171.87 C 116.42 172.47 115.76 173.15 115.34 174.85 C 114.42 174.82 113.51 174.79 112.59 174.77 C 114.16 172.97 116.44 171.32 116.20 168.67 C 112.84 170.41 110.12 173.03 106.83 174.88 C 105.81 174.36 104.76 173.90 103.70 173.48 C 101.31 174.23 99.31 176.17 96.99 177.10 C 93.67 177.88 90.45 178.70 87.00 178.35 C 83.24 177.92 80.22 179.93 76.69 178.87 C 74.56 178.28 73.43 177.55 72.62 175.48 C 72.68 176.41 72.60 177.32 72.38 178.19 C 70.21 177.00 67.99 176.17 65.96 174.66 C 64.67 172.11 63.29 169.81 60.77 168.30 C 58.27 166.74 55.88 165.36 54.21 162.83 C 53.21 161.44 52.24 160.07 50.92 158.95 L 50.31 158.43 C 46.21 152.52 46.41 145.24 43.54 138.21 C 41.73 134.45 42.67 130.95 42.53 126.96 C 42.52 123.50 43.45 120.09 44.50 116.81 C 45.69 113.49 45.69 109.82 46.80 106.48 C 47.39 104.38 48.71 102.44 49.69 100.49 C 50.74 103.34 52.89 104.63 55.39 106.07 C 53.65 108.87 52.60 112.80 53.78 116.00 C 55.52 121.23 63.26 122.95 67.15 119.14 C 69.72 116.67 70.38 112.35 70.32 108.96 C 70.29 107.36 68.99 106.25 68.10 105.06 C 69.34 103.03 71.06 101.54 70.18 98.96 C 69.66 95.49 67.69 93.83 64.62 92.49 C 64.52 90.14 63.54 88.91 62.05 87.25 C 64.55 86.78 66.36 85.41 68.96 85.56 C 69.96 85.59 70.93 85.49 71.87 85.26 L 72.72 83.91 Z" fill="#7fcef1" />
<path d="M 186.85 86.64 C 185.85 91.20 187.94 94.60 190.36 98.21 L 190.07 99.16 C 189.19 98.67 188.29 98.24 187.36 97.84 C 186.84 94.91 187.00 92.50 183.81 91.24 C 179.54 90.01 176.41 94.22 177.50 98.17 C 175.97 98.85 174.37 99.37 172.82 100.02 C 175.04 95.57 175.38 90.70 174.35 85.88 C 178.54 84.39 183.35 82.92 186.85 86.64 Z" fill="#7fcef1" />
<path d="M 125.02 85.67 C 127.03 85.56 128.63 86.45 130.43 87.19 C 130.59 88.57 130.80 89.93 130.97 91.31 L 130.76 91.95 C 130.10 93.13 129.22 94.32 128.13 95.13 C 124.41 97.14 119.09 93.84 121.04 89.51 C 122.49 91.84 125.03 94.34 127.68 92.06 C 126.00 90.92 124.57 89.92 123.69 88.01 C 124.21 87.26 124.65 86.48 125.02 85.67 Z" fill="#7fcef1" />
<path d="M 62.05 87.25 C 63.54 88.91 64.52 90.14 64.62 92.49 C 67.69 93.83 69.66 95.49 70.18 98.96 C 71.06 101.54 69.34 103.03 68.10 105.06 C 68.99 106.25 70.29 107.36 70.32 108.96 C 70.38 112.35 69.72 116.67 67.15 119.14 C 63.26 122.95 55.52 121.23 53.78 116.00 C 52.60 112.80 53.65 108.87 55.39 106.07 C 52.89 104.63 50.74 103.34 49.69 100.49 C 48.96 95.68 50.31 93.15 54.85 91.55 C 54.89 87.41 58.45 85.88 62.05 87.25 Z" fill="#4f555e" />
<path d="M 112.02 88.33 C 112.78 91.79 113.38 95.20 113.06 98.77 C 112.31 103.71 110.40 108.21 106.23 111.20 C 103.88 113.19 101.10 113.49 98.41 114.82 C 99.17 118.60 98.24 121.89 94.95 124.06 C 92.20 124.70 89.69 124.44 87.68 122.32 C 85.67 119.94 85.46 116.21 85.51 113.23 C 83.85 112.36 81.85 111.35 80.61 109.95 L 80.13 108.88 L 80.70 107.47 C 83.19 108.63 85.65 109.84 88.17 110.93 C 88.19 113.61 87.98 116.60 88.84 119.17 C 89.44 121.11 92.27 122.31 93.93 121.05 C 96.74 119.89 95.28 115.44 95.95 113.06 C 97.24 110.63 100.63 111.43 102.98 109.97 C 110.49 106.03 111.98 95.78 108.89 88.53 C 109.93 88.44 110.97 88.37 112.02 88.33 Z" fill="#4f555e" />
<path d="M 100.54 91.69 C 101.92 91.09 103.97 91.09 105.38 91.58 C 107.38 94.02 108.19 97.43 105.98 100.04 C 102.99 101.71 99.17 100.62 97.69 97.46 C 96.43 94.92 98.13 92.61 100.54 91.69 Z" fill="#4f555e" />
<path d="M 148.23 92.77 C 151.20 95.78 147.12 102.00 143.09 100.76 C 141.31 100.68 140.40 98.93 139.12 97.94 C 139.46 95.86 138.70 94.08 140.73 92.73 C 142.69 91.10 146.75 90.01 148.23 92.77 Z" fill="#4f555e" />
<path d="M 63.10 94.36 C 65.08 95.46 66.69 96.60 67.06 99.00 C 68.09 101.80 65.60 103.89 63.05 104.30 C 59.63 105.21 56.90 103.65 54.17 101.81 C 51.93 100.11 51.49 96.57 53.76 94.68 C 56.95 93.33 59.61 95.98 63.10 94.36 Z" fill="#fedfce" />
<path d="M 114.19 93.17 C 116.77 92.77 116.58 94.79 117.57 96.46 C 121.87 95.52 126.23 98.42 125.82 103.00 C 125.92 104.59 123.82 105.74 122.90 106.88 C 121.22 107.43 119.61 107.34 117.88 107.16 C 117.96 105.34 117.70 103.58 116.96 101.91 C 117.65 101.62 118.34 101.31 119.01 100.97 C 119.95 101.66 120.44 102.75 120.48 104.24 C 122.00 102.97 123.84 102.87 122.45 100.56 C 121.39 99.13 119.41 98.83 117.75 98.68 C 117.06 98.65 116.40 98.49 115.76 98.21 C 114.93 96.70 114.40 95.02 114.19 93.17 Z" fill="#4f555e" />
<path d="M 181.00 100.52 C 183.87 100.58 187.46 100.00 189.62 102.32 C 191.16 105.43 188.13 109.38 185.03 110.02 C 181.34 111.20 177.57 109.84 174.02 110.33 C 172.73 108.90 171.34 108.18 171.67 105.96 C 172.89 102.34 177.43 100.36 181.00 100.52 Z" fill="#fedfce" />
<path d="M 58.48 107.30 C 59.86 107.32 61.23 107.31 62.60 107.50 C 62.37 108.74 62.24 110.02 62.12 111.28 C 61.03 111.10 59.87 111.40 58.76 111.27 C 58.34 109.90 58.32 108.72 58.48 107.30 Z" fill="#ffffff" />
<path d="M 177.53 113.18 C 178.98 113.30 180.43 113.51 181.86 113.81 C 181.68 115.46 181.51 117.10 181.34 118.75 C 179.97 118.83 178.60 118.78 177.23 118.89 C 177.34 116.97 177.17 115.09 177.53 113.18 Z" fill="#ffffff" />
<path d="M 32.87 120.83 C 33.72 122.26 35.12 122.93 33.94 124.68 C 31.80 124.46 30.42 121.49 28.34 122.28 C 27.80 123.25 27.72 124.34 28.09 125.54 C 30.42 125.99 32.39 127.11 34.52 128.06 C 33.37 128.49 32.24 128.98 31.13 129.52 L 30.98 131.02 C 30.89 133.32 33.11 133.26 33.57 135.23 L 31.10 135.55 C 31.24 138.60 31.01 138.47 33.66 139.70 C 32.66 140.18 32.53 141.39 31.50 141.94 C 32.73 143.71 32.25 147.83 34.13 149.00 C 35.62 148.47 37.16 148.16 38.61 147.48 C 37.87 149.44 35.89 150.91 34.46 152.41 C 33.22 152.52 31.98 152.57 30.73 152.56 C 29.75 151.70 28.73 150.88 27.78 149.99 C 26.58 146.46 30.22 145.39 29.29 141.94 C 27.46 141.19 24.96 140.37 24.73 138.06 C 24.34 135.14 25.78 133.58 28.26 132.43 C 28.43 131.30 28.60 130.17 28.76 129.04 C 27.62 128.36 26.14 127.75 25.46 126.58 C 24.72 124.33 25.09 121.46 26.72 119.68 C 29.06 118.48 30.86 119.67 32.87 120.83 Z" fill="#4f555e" />
<path d="M 32.87 120.83 C 36.04 122.05 37.67 125.74 34.52 128.06 C 32.39 127.11 30.42 125.99 28.09 125.54 C 27.72 124.34 27.80 123.25 28.34 122.28 C 30.42 121.49 31.80 124.46 33.94 124.68 C 35.12 122.93 33.72 122.26 32.87 120.83 Z" fill="#fedfce" />
<path d="M 206.70 120.22 C 207.30 121.14 207.77 122.11 208.11 123.12 C 208.79 126.44 209.00 129.65 207.10 132.62 C 204.89 131.73 206.03 126.82 205.66 124.78 L 205.60 124.06 C 205.17 122.20 205.53 120.92 206.70 120.22 Z" fill="#4f555e" />
<path d="M 208.11 123.12 C 209.73 123.55 211.38 124.06 213.02 124.33 C 211.42 125.70 209.15 126.34 209.74 128.90 C 211.85 127.27 215.42 124.48 217.72 127.30 C 217.57 129.66 213.96 131.02 211.89 130.62 C 211.47 132.58 212.87 134.16 212.50 136.26 C 211.31 136.89 210.15 137.58 209.04 138.33 C 210.08 138.70 211.11 139.08 212.15 139.48 C 211.90 142.08 211.81 141.76 209.72 143.14 C 210.19 144.04 210.69 144.93 211.22 145.80 C 209.81 148.30 210.67 150.83 208.22 152.45 C 208.15 154.91 207.04 156.66 205.58 158.54 C 203.80 157.98 201.97 157.66 200.11 157.42 C 202.85 157.65 204.94 157.94 206.12 154.95 C 206.60 151.46 204.90 147.96 202.30 145.70 C 201.07 145.73 200.08 146.28 198.98 146.73 C 202.81 148.56 203.18 150.98 202.74 154.85 C 200.23 155.11 198.41 152.72 196.26 152.98 L 196.18 154.99 C 194.83 152.72 194.06 151.19 194.63 148.45 C 197.02 145.42 200.67 146.34 203.15 144.01 C 202.24 142.92 201.40 141.78 200.73 140.53 C 200.24 137.18 200.93 134.55 204.25 133.09 C 204.13 130.04 204.07 127.50 205.66 124.78 C 206.03 126.82 204.89 131.73 207.10 132.62 C 209.00 129.65 208.79 126.44 208.11 123.12 Z" fill="#fedfce" />
<path d="M 136.56 123.63 C 135.88 124.63 135.18 125.62 134.42 126.57 L 133.25 126.88 C 132.53 130.16 132.11 132.24 128.88 133.90 C 127.89 133.77 126.91 133.65 125.93 133.54 C 126.48 130.68 126.66 127.47 127.69 124.71 C 130.09 123.65 133.88 124.13 136.56 123.63 Z" fill="#7fcef1" />
<path d="M 213.02 124.33 C 216.72 122.95 219.69 124.39 220.78 128.10 C 220.19 131.18 216.97 132.85 214.14 133.60 C 214.18 134.48 214.17 135.38 214.13 136.27 C 217.37 136.34 219.86 137.14 219.86 140.86 C 218.19 143.98 216.86 144.74 213.52 145.74 C 213.43 146.38 213.34 147.01 213.26 147.65 C 215.18 148.89 216.43 149.90 217.42 152.02 C 216.23 155.80 214.19 156.91 210.24 156.17 C 208.61 158.54 206.48 162.66 203.24 162.76 C 203.59 161.22 204.37 159.81 205.58 158.54 C 207.04 156.66 208.15 154.91 208.22 152.45 C 210.67 150.83 209.81 148.30 211.22 145.80 C 210.69 144.93 210.19 144.04 209.72 143.14 C 211.81 141.76 211.90 142.08 212.15 139.48 C 211.11 139.08 210.08 138.70 209.04 138.33 C 210.15 137.58 211.31 136.89 212.50 136.26 C 212.87 134.16 211.47 132.58 211.89 130.62 C 213.96 131.02 217.57 129.66 217.72 127.30 C 215.42 124.48 211.85 127.27 209.74 128.90 C 209.15 126.34 211.42 125.70 213.02 124.33 Z" fill="#4f555e" />
<path d="M 11.14 125.21 C 12.47 124.33 13.80 124.59 15.16 126.01 C 13.89 126.73 12.70 127.54 11.72 128.62 C 10.41 130.52 10.40 132.60 7.89 133.31 C 7.44 130.55 8.31 126.47 11.14 125.21 Z" fill="#4f555e" />
<path d="M 118.61 125.11 C 120.50 124.53 122.63 124.59 124.59 124.44 C 123.80 127.42 123.52 130.39 123.55 133.46 C 121.45 133.62 119.36 134.03 117.32 134.56 C 117.85 131.41 118.39 128.29 118.61 125.11 Z" fill="#7fcef1" />
<path d="M 133.25 126.88 L 134.42 126.57 C 131.50 131.29 136.33 136.08 141.25 134.79 C 139.67 133.38 137.24 132.07 136.57 129.99 C 136.75 128.85 137.15 126.47 138.83 127.16 C 140.88 128.14 142.50 130.10 144.08 131.68 C 145.39 129.88 143.84 128.05 142.98 126.45 C 144.20 127.26 145.45 127.47 146.12 128.88 C 147.00 130.46 146.61 132.82 146.39 134.55 C 144.78 136.06 142.39 136.84 140.44 137.83 C 140.93 139.04 141.04 140.38 141.58 141.56 C 139.79 144.07 138.61 146.65 135.01 146.59 C 131.12 146.59 128.94 144.23 127.39 140.96 C 127.32 139.04 128.70 137.01 129.54 135.35 L 130.79 134.13 L 128.88 133.90 C 132.11 132.24 132.53 130.16 133.25 126.88 Z" fill="#fedfce" />
<path d="M 105.98 128.63 C 107.25 128.88 108.36 129.56 109.60 129.91 C 110.36 131.71 111.80 132.91 111.04 135.00 C 110.56 137.01 109.00 137.88 107.49 139.09 C 110.02 139.33 111.00 140.72 112.65 142.41 C 113.23 145.02 112.75 146.97 111.34 149.28 C 113.17 148.97 115.00 148.72 116.82 148.42 C 116.25 145.47 115.04 142.74 114.38 139.81 C 115.10 139.44 115.80 139.32 116.49 139.45 C 118.25 142.15 119.51 145.12 119.86 148.35 C 124.28 148.30 129.36 147.51 133.59 149.01 L 132.77 150.51 C 128.93 151.14 124.89 150.67 121.00 150.95 C 116.03 151.00 111.09 151.91 106.15 151.74 C 105.30 150.19 103.99 149.12 102.60 148.06 L 102.55 145.63 C 105.24 146.28 107.33 147.70 109.81 145.74 C 109.93 143.35 109.32 142.99 107.67 141.50 C 106.89 141.41 106.10 141.35 105.31 141.29 C 105.21 139.22 103.64 139.19 102.26 137.97 C 103.95 137.12 105.62 136.18 107.25 135.21 C 108.00 134.27 108.33 132.54 107.12 131.83 C 105.12 130.51 103.96 132.62 101.58 132.48 C 102.68 130.69 103.92 129.29 105.98 128.63 Z" fill="#4f555e" />
<path d="M 109.60 129.91 C 110.45 130.29 111.31 130.58 112.20 130.76 C 112.54 131.83 112.90 132.89 113.29 133.95 C 112.40 136.74 112.40 139.52 112.65 142.41 C 111.00 140.72 110.02 139.33 107.49 139.09 C 109.00 137.88 110.56 137.01 111.04 135.00 C 111.80 132.91 110.36 131.71 109.60 129.91 Z" fill="#fedfce" />
<path d="M 30.98 131.02 C 32.41 131.19 33.93 131.26 35.30 131.70 C 37.19 132.64 37.47 135.20 37.91 137.07 C 38.40 141.62 39.60 145.92 40.96 150.28 C 38.72 151.86 36.10 155.00 33.14 154.62 C 32.12 154.60 31.50 153.15 30.73 152.56 C 31.98 152.57 33.22 152.52 34.46 152.41 C 35.89 150.91 37.87 149.44 38.61 147.48 C 37.16 148.16 35.62 148.47 34.13 149.00 C 32.25 147.83 32.73 143.71 31.50 141.94 C 32.53 141.39 32.66 140.18 33.66 139.70 C 31.01 138.47 31.24 138.60 31.10 135.55 L 33.57 135.23 C 33.11 133.26 30.89 133.32 30.98 131.02 Z" fill="#fedfce" />
<path d="M 107.12 131.83 C 108.33 132.54 108.00 134.27 107.25 135.21 C 105.62 136.18 103.95 137.12 102.26 137.97 C 103.64 139.19 105.21 139.22 105.31 141.29 C 106.10 141.35 106.89 141.41 107.67 141.50 C 109.32 142.99 109.93 143.35 109.81 145.74 C 107.33 147.70 105.24 146.28 102.55 145.63 C 102.73 143.72 102.45 141.82 102.61 139.90 C 100.02 137.36 100.00 135.63 101.58 132.48 C 103.96 132.62 105.12 130.51 107.12 131.83 Z" fill="#fedfce" />
<path d="M 20.64 133.57 C 20.21 137.77 20.07 141.60 22.56 145.23 C 19.23 145.96 18.60 142.34 17.58 140.08 C 17.05 138.02 17.65 133.22 20.64 133.57 Z" fill="#4f555e" />
<path d="M 27.86 136.35 L 28.72 136.40 L 29.17 137.12 L 28.76 137.79 L 27.91 137.74 L 27.45 137.02 L 27.86 136.35 Z" fill="#7fcef1" />
<path d="M 136.36 140.00 C 135.04 139.83 133.73 139.60 132.45 139.31 C 131.94 141.90 134.42 141.54 136.06 142.47 C 134.82 144.06 133.21 143.97 131.39 143.55 C 129.01 142.49 128.49 139.29 130.56 137.61 C 132.15 135.51 136.91 137.31 136.36 140.00 Z" fill="#4f555e" />
<path d="M 188.22 136.60 C 191.36 137.53 189.15 142.14 186.90 142.84 C 184.41 144.06 183.11 142.79 181.59 140.96 C 182.41 139.76 182.27 137.25 184.26 137.49 C 184.46 138.60 184.62 139.71 184.74 140.84 C 186.36 139.73 187.13 138.16 188.22 136.60 Z" fill="#4f555e" />
<path d="M 214.25 138.94 C 215.09 139.12 215.95 139.27 216.82 139.40 C 216.29 140.96 215.49 141.62 214.22 142.64 C 214.27 141.41 214.27 140.17 214.25 138.94 Z" fill="#ffffff" />
<path d="M 79.96 140.75 C 79.50 143.59 79.61 146.08 82.71 147.09 C 83.01 145.57 82.86 143.24 84.25 142.27 C 84.77 142.59 85.33 142.83 85.93 143.01 C 85.60 145.59 86.47 148.20 83.51 149.46 C 78.89 150.73 74.93 142.93 79.96 140.75 Z" fill="#4f555e" />
<path d="M 227.03 140.91 C 228.18 144.55 227.08 150.14 222.87 151.21 C 221.76 149.29 224.92 147.13 225.07 144.99 C 225.66 143.61 225.05 141.04 227.03 140.91 Z" fill="#4f555e" />
<path d="M 202.30 145.70 C 204.90 147.96 206.60 151.46 206.12 154.95 C 204.94 157.94 202.85 157.65 200.11 157.42 C 198.70 156.97 197.35 155.89 196.18 154.99 L 196.26 152.98 C 198.41 152.72 200.23 155.11 202.74 154.85 C 203.18 150.98 202.81 148.56 198.98 146.73 C 200.08 146.28 201.07 145.73 202.30 145.70 Z" fill="#4f555e" />
<path d="M 230.06 146.15 L 231.37 146.53 C 231.46 149.65 229.86 152.56 226.76 153.51 C 227.86 151.02 229.33 148.81 230.06 146.15 Z" fill="#4f555e" />
<path d="M 212.32 150.42 C 215.11 149.14 214.61 154.29 211.93 153.07 C 211.38 152.22 211.51 151.33 212.32 150.42 Z" fill="#fedfce" />
<path d="M 134.91 157.03 L 134.53 157.95 C 131.11 159.05 127.57 158.97 124.08 159.85 C 121.41 160.39 118.73 160.85 116.04 161.31 C 114.24 161.36 109.68 162.33 109.26 159.85 C 111.83 158.85 114.52 158.69 117.20 158.19 C 122.84 157.33 129.28 155.89 134.91 157.03 Z" fill="#4f555e" />
<path d="M 197.63 156.97 C 197.98 158.97 195.24 164.14 192.55 162.27 C 193.09 161.38 193.63 160.48 194.16 159.58 C 194.89 158.14 196.05 157.27 197.63 156.97 Z" fill="#4f555e" />
<path d="M 48.05 159.34 C 48.42 160.05 48.81 160.74 49.22 161.42 C 46.26 161.27 43.67 160.66 41.29 162.87 C 41.59 164.42 42.09 165.84 42.69 167.29 C 45.31 168.40 45.69 168.55 48.15 166.97 C 48.30 165.99 48.35 164.98 48.31 163.97 C 50.28 164.33 51.02 167.11 52.50 168.39 C 52.91 168.86 53.31 169.33 53.71 169.80 C 56.11 173.37 59.80 174.54 61.40 178.58 C 59.94 178.33 58.60 178.03 57.31 177.28 C 57.46 178.08 57.51 178.90 57.46 179.73 C 59.79 179.87 61.35 178.62 63.28 177.50 C 63.01 181.05 60.16 184.02 56.51 182.39 C 53.64 180.29 54.40 177.83 55.84 175.13 C 54.50 175.64 53.47 176.88 52.09 177.19 C 50.98 177.08 49.87 176.90 48.78 176.66 C 46.28 174.41 46.17 173.69 47.50 170.59 C 44.43 171.28 41.71 171.07 39.92 168.19 C 38.25 165.42 37.69 160.82 41.51 159.55 C 43.78 158.20 45.65 159.02 48.05 159.34 Z" fill="#4f555e" />
<path d="M 48.05 159.34 L 50.31 158.43 L 50.92 158.95 C 52.24 160.07 53.21 161.44 54.21 162.83 C 53.64 164.69 53.08 166.54 52.50 168.39 C 51.02 167.11 50.28 164.33 48.31 163.97 C 48.35 164.98 48.30 165.99 48.15 166.97 C 45.69 168.55 45.31 168.40 42.69 167.29 C 42.09 165.84 41.59 164.42 41.29 162.87 C 43.67 160.66 46.26 161.27 49.22 161.42 C 48.81 160.74 48.42 160.05 48.05 159.34 Z" fill="#fedfce" />
<path d="M 124.08 159.85 L 125.68 159.53 C 125.11 162.61 126.36 165.05 127.06 167.96 C 122.78 167.04 118.54 165.62 114.39 164.27 C 114.95 163.29 115.50 162.30 116.04 161.31 C 118.73 160.85 121.41 160.39 124.08 159.85 Z" fill="#ffffff" />
<path d="M 28.77 162.21 C 29.52 165.80 28.88 169.17 30.69 172.57 C 27.63 173.35 26.96 170.05 26.53 167.82 C 26.12 165.10 25.51 163.00 28.77 162.21 Z" fill="#4f555e" />
<path d="M 154.01 161.71 C 153.98 164.07 152.23 166.18 155.07 167.41 C 157.08 167.03 156.87 162.98 159.34 162.76 C 159.46 164.89 159.64 168.26 157.30 169.33 C 154.55 170.97 150.06 168.52 151.30 165.02 C 151.42 162.90 152.39 162.68 154.01 161.71 Z" fill="#4f555e" />
<path d="M 54.21 162.83 C 55.88 165.36 58.27 166.74 60.77 168.30 C 63.29 169.81 64.67 172.11 65.96 174.66 C 62.81 173.13 60.73 170.62 58.10 168.41 L 58.62 170.52 C 56.85 169.76 55.68 169.33 53.71 169.80 C 53.31 169.33 52.91 168.86 52.50 168.39 C 53.08 166.54 53.64 164.69 54.21 162.83 Z" fill="#ffffff" />
<path d="M 22.58 163.67 C 21.59 166.86 22.64 169.50 23.48 172.60 C 19.85 171.61 20.43 168.28 19.54 165.37 C 20.42 164.53 21.49 164.14 22.58 163.67 Z" fill="#4f555e" />
<path d="M 192.93 164.80 C 195.33 163.62 198.03 164.66 200.27 165.72 C 202.32 167.14 202.07 169.83 201.22 171.88 C 199.14 173.43 197.05 174.57 194.48 175.08 C 195.18 175.99 195.92 176.87 196.68 177.74 C 193.69 178.73 193.64 181.47 192.98 184.07 C 194.73 184.16 196.02 184.59 197.62 183.54 C 198.32 182.11 196.91 180.63 196.39 179.25 L 197.69 177.54 C 200.21 179.76 200.82 181.22 200.78 184.55 C 200.26 185.17 199.73 185.78 199.20 186.38 C 195.68 187.58 194.14 187.00 190.88 185.67 L 189.47 186.71 C 188.45 187.59 187.27 187.61 186.00 187.84 C 186.19 187.02 186.50 186.27 186.91 185.58 C 187.61 184.96 188.39 184.41 189.23 183.94 C 189.14 183.08 189.10 182.22 189.13 181.38 C 191.59 181.55 191.49 179.82 192.51 178.12 L 189.19 177.70 C 190.08 176.05 192.32 176.96 193.31 175.11 C 192.17 174.18 191.37 172.98 190.35 171.93 C 193.31 171.68 193.47 172.51 194.01 169.18 C 194.45 170.11 194.94 171.02 195.47 171.92 C 196.61 171.19 197.77 170.48 198.96 169.82 C 198.65 169.16 198.48 168.44 198.43 167.67 C 197.01 167.26 195.46 166.36 193.98 166.81 C 192.36 167.31 191.02 167.86 189.33 167.24 C 191.00 166.74 191.82 166.05 192.93 164.80 Z" fill="#4f555e" />
<path d="M 189.33 167.24 C 191.02 167.86 192.36 167.31 193.98 166.81 C 195.46 166.36 197.01 167.26 198.43 167.67 C 198.48 168.44 198.65 169.16 198.96 169.82 C 197.77 170.48 196.61 171.19 195.47 171.92 C 194.94 171.02 194.45 170.11 194.01 169.18 C 193.47 172.51 193.31 171.68 190.35 171.93 C 191.37 172.98 192.17 174.18 193.31 175.11 C 192.32 176.96 190.08 176.05 189.19 177.70 L 192.51 178.12 C 191.49 179.82 191.59 181.55 189.13 181.38 C 189.10 182.22 189.14 183.08 189.23 183.94 C 188.39 184.41 187.61 184.96 186.91 185.58 C 186.53 183.78 185.72 181.83 185.90 179.98 C 186.37 177.40 189.29 175.57 189.76 173.03 C 189.34 171.71 188.67 170.55 188.04 169.31 C 188.50 168.64 188.91 167.94 189.33 167.24 Z" fill="#fedfce" />
<path d="M 58.62 170.52 C 60.20 173.70 62.75 175.45 65.62 177.32 C 66.46 179.80 68.21 182.39 67.30 185.00 C 66.64 186.43 66.10 187.88 65.56 189.35 C 63.23 189.65 60.98 191.00 58.38 190.99 C 56.37 188.94 54.86 186.55 53.49 184.05 C 52.28 182.97 50.86 182.43 49.40 181.80 C 49.34 180.07 49.10 178.36 48.78 176.66 C 49.87 176.90 50.98 177.08 52.09 177.19 C 53.47 176.88 54.50 175.64 55.84 175.13 C 54.40 177.83 53.64 180.29 56.51 182.39 C 60.16 184.02 63.01 181.05 63.28 177.50 C 61.35 178.62 59.79 179.87 57.46 179.73 C 57.51 178.90 57.46 178.08 57.31 177.28 C 58.60 178.03 59.94 178.33 61.40 178.58 C 59.80 174.54 56.11 173.37 53.71 169.80 C 55.68 169.33 56.85 169.76 58.62 170.52 Z" fill="#fedfce" />
<path d="M 116.20 168.67 C 116.44 171.32 114.16 172.97 112.59 174.77 C 111.81 175.25 111.03 175.71 110.22 176.13 L 109.98 176.25 C 105.43 179.66 100.67 182.23 94.93 182.89 C 88.22 183.52 81.63 183.18 75.01 181.90 C 71.66 180.86 68.79 178.94 65.62 177.32 C 62.75 175.45 60.20 173.70 58.62 170.52 L 58.10 168.41 C 60.73 170.62 62.81 173.13 65.96 174.66 C 67.99 176.17 70.21 177.00 72.38 178.19 C 78.98 180.25 86.83 179.99 94.03 179.64 C 98.81 179.36 102.91 177.53 106.83 174.88 C 110.12 173.03 112.84 170.41 116.20 168.67 Z" fill="#4f555e" />
<path d="M 50.40 171.38 C 52.25 171.22 52.27 172.74 53.19 173.93 C 51.77 173.92 50.45 173.64 49.24 173.09 L 50.40 171.38 Z" fill="#fedfce" />
<path d="M 118.05 171.87 C 124.10 171.21 130.11 171.18 135.97 173.03 C 135.35 174.97 132.11 174.51 130.58 174.69 C 125.49 174.60 120.42 174.84 115.34 174.85 C 115.76 173.15 116.42 172.47 118.05 171.87 Z" fill="#4f555e" />
<path d="M 201.22 171.88 C 200.42 174.01 199.15 175.82 197.69 177.54 L 196.39 179.25 C 196.91 180.63 198.32 182.11 197.62 183.54 C 196.02 184.59 194.73 184.16 192.98 184.07 C 193.64 181.47 193.69 178.73 196.68 177.74 C 195.92 176.87 195.18 175.99 194.48 175.08 C 197.05 174.57 199.14 173.43 201.22 171.88 Z" fill="#fedfce" />
<path d="M 39.01 172.54 C 40.16 174.23 41.03 176.09 42.22 177.75 C 44.04 179.68 47.06 180.69 49.40 181.80 C 50.86 182.43 52.28 182.97 53.49 184.05 C 50.00 184.93 46.06 183.72 43.00 182.01 C 40.25 179.97 37.29 176.05 39.01 172.54 Z" fill="#4f555e" />
<path d="M 103.70 173.48 C 104.76 173.90 105.81 174.36 106.83 174.88 C 102.91 177.53 98.81 179.36 94.03 179.64 C 86.83 179.99 78.98 180.25 72.38 178.19 C 72.60 177.32 72.68 176.41 72.62 175.48 C 73.43 177.55 74.56 178.28 76.69 178.87 C 80.22 179.93 83.24 177.92 87.00 178.35 C 90.45 178.70 93.67 177.88 96.99 177.10 C 99.31 176.17 101.31 174.23 103.70 173.48 Z" fill="#ffffff" />
<path d="M 184.55 173.57 C 184.98 176.44 182.80 178.11 181.27 180.26 C 178.79 183.63 174.81 185.25 171.14 187.15 C 164.37 190.40 156.39 191.20 148.98 190.63 C 146.59 190.53 144.96 189.54 143.16 188.06 L 145.08 187.16 C 149.06 187.18 153.03 188.05 157.01 188.01 C 163.29 187.27 169.70 185.44 175.14 182.17 C 179.02 179.99 181.13 176.56 184.55 173.57 Z" fill="#4f555e" />
<path d="M 109.98 176.25 L 110.22 176.13 C 113.23 177.12 116.40 176.99 117.98 180.06 C 119.87 183.92 118.26 187.77 114.14 189.10 C 115.33 185.49 115.04 182.47 111.77 180.19 C 110.71 180.14 109.78 180.37 108.98 180.89 C 110.63 182.79 112.07 184.06 111.71 186.78 C 109.88 186.80 109.02 185.58 107.76 184.47 C 106.44 185.94 107.48 187.30 107.85 188.89 C 107.72 189.92 107.54 190.94 107.31 191.96 C 107.52 189.08 106.08 183.75 102.80 183.00 C 102.28 185.08 102.85 186.03 103.79 187.83 C 102.82 187.88 101.90 188.07 101.05 188.39 C 101.10 187.09 101.15 185.79 101.19 184.49 C 99.19 185.65 98.70 186.26 97.82 188.39 C 96.47 188.20 95.12 188.01 93.78 187.76 C 94.14 186.13 94.53 184.51 94.93 182.89 C 100.67 182.23 105.43 179.66 109.98 176.25 Z" fill="#fedfce" />
<path d="M 209.46 175.52 C 213.60 176.45 211.86 185.24 207.40 183.16 C 208.24 181.81 208.71 180.31 209.69 179.02 C 209.54 177.85 209.46 176.68 209.46 175.52 Z" fill="#4f555e" />
<path d="M 215.00 177.38 C 215.95 178.09 216.78 178.93 217.50 179.91 C 216.37 182.21 215.42 184.97 212.28 184.44 C 213.76 182.26 214.77 180.06 215.00 177.38 Z" fill="#4f555e" />
<path d="M 127.17 179.19 C 128.93 179.06 129.71 180.16 130.78 181.33 C 131.81 182.25 132.80 183.17 133.90 183.99 C 131.91 186.19 128.24 187.88 128.69 191.28 C 129.87 191.30 131.04 191.37 132.22 191.49 C 134.13 190.05 135.72 188.51 137.28 186.70 L 138.61 186.71 C 138.55 192.21 131.50 196.27 126.83 193.04 C 126.57 191.69 126.09 190.49 126.17 189.10 C 126.61 186.91 128.05 185.53 129.55 183.99 C 128.28 182.47 127.32 181.23 127.17 179.19 Z" fill="#4f555e" />
<path d="M 111.77 180.19 C 115.04 182.47 115.33 185.49 114.14 189.10 C 113.15 189.52 112.16 189.96 111.20 190.44 C 110.08 189.94 108.96 189.42 107.85 188.89 C 107.48 187.30 106.44 185.94 107.76 184.47 C 109.02 185.58 109.88 186.80 111.71 186.78 C 112.07 184.06 110.63 182.79 108.98 180.89 C 109.78 180.37 110.71 180.14 111.77 180.19 Z" fill="#4f555e" />
<path d="M 132.51 179.46 L 133.14 179.33 C 135.04 179.30 137.21 179.11 139.02 179.74 C 140.93 180.68 140.63 183.33 141.24 185.16 C 140.76 185.66 140.33 186.21 139.97 186.83 L 138.61 186.71 L 137.28 186.70 C 135.72 188.51 134.13 190.05 132.22 191.49 C 131.04 191.37 129.87 191.30 128.69 191.28 C 128.24 187.88 131.91 186.19 133.90 183.99 C 132.80 183.17 131.81 182.25 130.78 181.33 L 132.51 179.46 Z" fill="#fedfce" />
<path d="M 102.80 183.00 C 106.08 183.75 107.52 189.08 107.31 191.96 C 105.56 195.24 104.23 196.14 100.44 195.65 C 99.39 194.33 98.37 192.93 97.67 191.39 C 95.20 190.81 88.83 189.97 89.48 186.32 C 90.94 186.75 92.38 187.23 93.78 187.76 C 95.12 188.01 96.47 188.20 97.82 188.39 C 98.70 186.26 99.19 185.65 101.19 184.49 C 101.15 185.79 101.10 187.09 101.05 188.39 C 101.90 188.07 102.82 187.88 103.79 187.83 C 102.85 186.03 102.28 185.08 102.80 183.00 Z" fill="#4f555e" />
<path d="M 190.88 185.67 C 194.14 187.00 195.68 187.58 199.20 186.38 C 196.56 189.46 192.51 188.81 189.47 186.71 L 190.88 185.67 Z" fill="#fedfce" />
<path d="M 104.22 189.14 C 104.45 191.01 103.72 191.63 102.92 193.11 C 101.86 192.60 100.95 191.89 100.20 190.97 C 101.52 190.29 102.79 189.56 104.22 189.14 Z" fill="#fedfce" />
</svg>
