<?xml version="1.0" encoding="UTF-8" standalone="no"?>
<!DOCTYPE svg PUBLIC "-//W3C//DTD SVG 1.1//EN" "http://www.w3.org/Graphics/SVG/1.1/DTD/svg11.dtd">
<svg xmlns="http://www.w3.org/2000/svg" version="1.1" viewBox="0 0 512 512" width="512.0pt" height="512.0pt">
<path d="M 248.82 46.15 C 253.07 47.31 256.10 50.00 259.23 52.94 C 262.33 50.14 265.04 47.40 269.17 46.17 C 275.74 44.07 283.52 47.00 287.13 52.84 C 289.73 57.33 287.53 62.82 284.52 66.52 C 278.09 74.41 270.06 78.60 261.64 83.85 C 269.07 83.97 276.20 83.46 283.64 84.16 C 286.50 84.56 289.34 85.14 292.17 85.74 C 297.88 87.15 303.52 88.59 308.84 91.17 C 324.88 98.72 337.30 110.59 348.31 124.25 C 349.11 125.24 349.88 126.26 350.61 127.31 C 361.00 142.95 366.31 161.26 367.31 179.93 C 367.39 183.64 367.30 187.36 366.96 191.05 C 366.10 197.43 364.73 203.76 364.17 210.16 C 362.58 210.91 361.00 211.65 359.43 212.40 C 359.06 211.07 358.70 209.74 358.34 208.41 C 355.86 207.59 353.33 206.73 350.80 206.08 C 351.49 204.79 352.18 203.51 352.87 202.23 C 355.29 202.69 357.71 203.16 360.11 203.70 C 361.11 197.51 362.12 191.71 360.36 185.55 C 360.08 184.14 359.12 183.87 358.02 183.21 L 356.56 182.36 C 356.50 181.32 356.46 180.27 356.44 179.22 C 356.99 174.40 354.29 171.34 349.79 170.09 C 345.91 169.13 341.93 172.82 342.50 176.74 C 342.91 179.24 344.17 181.71 345.17 184.03 C 345.88 185.65 346.56 187.27 347.13 188.94 C 347.32 192.71 346.97 196.41 346.64 200.16 C 346.45 202.00 346.26 203.84 345.97 205.66 C 343.98 209.58 341.99 213.50 340.19 217.51 C 341.57 218.06 342.95 218.61 344.33 219.16 C 340.21 221.41 336.16 223.67 331.87 225.55 C 335.59 220.47 338.47 214.71 341.06 208.99 C 343.72 203.07 344.93 196.51 343.90 190.06 C 343.17 185.76 340.65 182.64 339.40 178.63 C 338.42 175.31 339.45 171.39 342.21 169.21 C 344.23 167.62 346.93 166.65 349.28 165.64 C 352.28 167.04 355.88 168.33 357.99 170.99 C 360.06 173.59 361.41 176.90 362.87 179.88 C 361.80 165.38 358.54 150.26 351.59 137.39 C 343.21 123.46 331.86 110.64 318.08 101.86 C 305.09 91.97 288.14 87.72 271.99 87.84 C 261.23 88.15 250.15 88.99 239.69 91.63 C 229.96 93.93 220.50 97.98 211.72 102.73 C 203.73 107.06 196.37 112.50 190.04 119.04 C 184.10 125.17 178.44 132.06 174.66 139.76 C 168.24 149.90 164.53 161.86 163.76 173.83 C 163.41 175.22 163.00 176.59 162.58 177.96 C 160.46 170.22 160.48 163.94 162.39 156.21 C 164.68 149.56 167.45 143.16 171.18 137.17 C 179.41 124.00 189.71 112.35 202.68 103.69 C 209.75 98.87 217.24 95.60 225.04 92.05 C 225.81 91.73 226.58 91.43 227.35 91.14 C 232.92 89.29 238.71 88.05 244.40 86.58 C 246.64 86.04 248.87 85.47 251.07 84.79 C 256.38 83.03 261.50 80.14 266.28 77.27 C 271.99 73.71 278.09 69.60 282.26 64.25 C 284.52 61.38 286.05 57.34 284.07 53.92 C 280.58 49.00 273.58 47.40 268.25 50.27 C 263.41 52.51 261.93 56.81 259.54 61.18 C 257.06 57.50 255.07 53.17 250.95 51.04 C 246.53 48.75 241.02 47.84 236.18 49.11 C 231.07 50.55 227.85 55.87 227.81 61.00 C 227.69 66.54 232.32 71.26 237.49 72.49 C 241.17 73.31 245.58 71.38 247.17 67.90 C 247.12 64.85 242.19 63.02 240.18 61.33 C 244.78 58.97 249.83 61.97 250.33 67.01 C 250.31 70.79 246.29 73.87 243.03 75.05 C 237.70 77.10 232.13 74.46 228.39 70.61 C 222.44 64.60 223.74 53.39 230.40 48.40 C 235.41 44.25 242.89 44.49 248.82 46.15 Z" fill="#4c0c15" />
<path d="M 326.98 71.02 C 351.95 69.80 376.88 74.00 400.28 82.70 C 416.00 88.58 429.59 97.94 442.41 108.61 C 449.33 114.30 454.17 121.78 460.92 127.65 C 460.76 128.60 460.62 129.55 460.48 130.51 C 462.18 132.58 463.87 134.66 465.48 136.81 C 466.67 141.91 468.68 146.61 470.84 151.36 C 471.09 151.98 471.33 152.60 471.56 153.23 C 474.59 162.90 477.93 171.87 479.01 182.02 C 480.02 191.33 480.23 200.85 480.05 210.20 C 479.12 216.85 477.74 223.40 476.20 229.92 C 478.87 230.17 481.54 230.39 484.20 230.79 C 481.46 230.58 478.76 230.56 476.01 230.54 C 475.69 231.35 475.36 232.15 475.03 232.96 C 471.97 240.85 468.39 248.36 462.81 254.81 C 457.20 261.64 449.94 266.32 441.96 269.95 C 438.10 271.69 433.70 272.82 430.17 275.05 C 429.61 275.62 429.05 276.20 428.51 276.79 C 428.23 276.31 427.95 275.83 427.65 275.36 C 420.28 277.06 413.21 280.94 406.69 284.69 C 397.67 290.25 388.77 296.82 381.89 304.94 C 374.69 312.49 368.11 320.88 362.69 329.80 C 370.87 339.62 378.18 349.37 382.39 361.60 C 387.60 376.89 390.62 393.84 388.88 409.98 C 388.57 413.28 388.20 416.59 387.69 419.87 C 387.50 420.93 387.30 421.98 387.07 423.04 C 385.36 430.07 383.89 437.52 381.12 444.18 C 379.88 447.19 378.75 450.25 377.44 453.23 C 376.11 455.55 375.18 457.83 374.63 460.45 C 368.83 465.69 363.19 471.21 357.04 476.03 C 348.26 482.11 338.55 487.23 329.02 492.03 C 314.83 499.23 297.82 499.41 283.18 493.40 C 284.25 492.42 285.32 491.45 286.33 490.42 C 287.48 488.06 288.34 485.61 289.11 483.10 C 293.64 467.39 296.22 450.43 294.80 434.08 C 294.07 424.69 290.27 415.69 285.08 407.92 C 280.73 401.49 275.01 396.73 268.73 392.27 C 263.17 388.38 257.46 384.65 251.40 381.59 C 236.24 374.04 220.90 366.84 205.75 359.26 C 199.36 356.22 193.36 352.57 186.67 350.15 C 185.92 349.82 185.19 349.46 184.47 349.07 C 177.36 343.78 169.32 339.60 161.46 335.54 C 152.72 331.22 144.67 326.09 135.68 322.29 C 122.06 316.41 109.36 308.53 97.91 299.10 C 95.14 296.76 92.29 294.55 89.28 292.52 C 88.60 291.87 87.94 291.20 87.30 290.50 C 84.88 287.65 82.46 284.82 79.76 282.24 C 72.12 274.82 65.10 267.45 60.04 257.96 C 53.22 244.95 49.12 230.79 49.88 215.99 C 50.00 207.50 52.24 199.62 54.05 191.42 C 53.40 191.02 52.75 190.61 52.10 190.21 C 52.95 189.50 53.79 188.78 54.61 188.05 C 57.66 183.71 58.92 178.10 61.34 173.34 C 68.04 159.60 75.03 145.82 83.41 133.02 C 87.66 126.39 92.95 120.65 97.47 114.20 C 97.97 113.54 98.50 112.89 99.05 112.26 C 102.89 108.69 106.92 105.31 110.83 101.82 C 115.90 97.31 121.66 93.89 127.02 89.79 C 126.00 89.85 124.98 89.93 123.96 90.02 C 129.77 88.30 135.37 85.71 140.85 83.14 L 139.48 82.66 C 151.24 79.75 162.59 75.68 174.63 73.66 C 188.29 71.48 203.13 70.41 216.75 73.25 C 228.39 75.51 239.97 80.44 251.07 84.79 C 248.87 85.47 246.64 86.04 244.40 86.58 C 238.21 82.79 230.43 81.02 223.46 79.09 C 224.87 83.07 226.28 87.05 227.35 91.14 C 226.58 91.43 225.81 91.73 225.04 92.05 C 223.87 88.19 222.86 83.76 220.63 80.37 C 219.13 78.00 216.41 77.62 213.88 77.06 C 200.33 74.70 186.14 76.29 172.71 78.74 C 163.62 80.59 154.32 82.94 145.85 86.81 C 133.00 92.71 120.86 99.92 109.95 108.96 C 104.21 113.98 98.95 119.39 94.80 125.83 C 101.66 124.51 108.09 122.82 115.16 122.86 C 121.74 123.80 127.98 124.40 134.27 126.74 C 142.24 129.69 149.79 134.33 155.69 140.47 C 156.60 141.58 157.44 142.72 158.30 143.87 C 159.51 140.65 160.56 137.23 162.28 134.25 C 163.06 132.78 165.08 132.14 166.47 131.36 C 164.49 137.33 161.76 143.88 161.22 150.18 C 161.06 152.31 161.77 154.22 162.39 156.21 C 160.48 163.94 160.46 170.22 162.58 177.96 C 163.00 176.59 163.41 175.22 163.76 173.83 C 163.60 178.64 163.47 183.40 164.99 188.02 C 168.72 199.23 175.20 209.29 182.13 218.77 C 182.58 218.53 183.03 218.28 183.47 218.04 C 183.23 220.48 184.03 222.13 185.24 224.16 C 185.69 223.09 186.15 222.02 186.62 220.95 C 187.14 226.09 190.49 228.75 193.61 232.42 C 199.10 238.66 204.55 244.76 211.19 249.82 C 217.45 254.67 224.53 258.57 231.13 262.98 C 230.46 264.19 229.85 265.42 229.26 266.67 C 224.54 262.31 218.79 260.12 213.68 256.32 C 206.05 250.81 198.58 244.73 192.58 237.43 C 190.78 235.39 188.95 232.91 186.60 231.49 C 182.43 231.06 177.78 233.28 173.90 234.68 C 156.32 241.48 140.72 252.45 130.64 268.62 C 124.98 278.55 122.38 290.58 122.14 301.93 C 122.31 304.40 122.47 307.19 123.53 309.46 C 126.50 312.81 132.10 314.18 136.12 315.88 C 140.99 318.71 145.67 321.77 150.79 324.15 C 158.06 329.21 166.12 332.73 173.65 337.34 C 185.23 344.24 197.87 350.13 209.92 356.09 C 220.36 361.46 231.08 366.20 241.60 371.41 C 244.88 373.03 248.22 374.53 251.60 375.95 C 251.52 374.07 251.42 372.19 251.34 370.32 C 250.46 359.67 253.27 349.81 256.97 339.97 C 260.72 329.94 264.45 318.53 270.95 309.96 C 274.22 305.48 278.15 301.75 282.16 297.95 C 282.78 297.36 283.39 296.76 284.01 296.17 C 278.75 293.65 273.36 291.43 268.09 288.92 C 263.09 286.55 258.97 283.65 253.63 282.13 C 254.26 280.43 254.83 278.72 255.40 277.00 C 257.51 278.07 259.57 279.22 261.60 280.42 C 263.10 281.31 264.61 282.18 266.16 282.98 C 267.34 283.55 268.53 284.08 269.72 284.62 C 275.61 276.08 282.28 268.10 288.93 260.16 C 291.09 257.90 293.30 255.68 295.45 253.42 C 298.84 249.92 302.41 246.59 306.12 243.43 C 314.16 236.77 322.85 230.81 331.87 225.55 C 336.16 223.67 340.21 221.41 344.33 219.16 C 349.34 216.86 354.50 214.90 359.43 212.40 C 361.00 211.65 362.58 210.91 364.17 210.16 L 364.17 211.70 C 370.02 211.10 375.51 209.85 381.41 210.94 C 380.22 212.37 379.29 213.83 377.40 214.35 C 372.73 215.69 367.78 215.86 363.07 217.12 C 352.78 219.81 342.91 224.33 333.88 229.92 C 341.49 230.41 348.93 230.71 356.36 232.68 C 362.45 234.32 368.57 236.18 374.39 238.63 C 381.72 241.76 387.07 247.86 392.78 253.22 C 400.11 260.13 405.55 268.69 407.06 278.80 C 413.09 275.63 419.18 272.69 425.72 270.74 C 436.49 267.39 446.59 263.87 455.04 256.05 C 462.79 248.92 467.68 239.74 470.78 229.77 C 475.21 216.41 475.71 202.90 475.01 188.96 C 474.51 180.20 472.64 171.46 469.93 163.13 C 468.85 159.98 467.74 157.09 464.99 155.01 C 458.85 150.47 451.32 149.98 443.95 150.18 C 427.02 150.89 409.93 155.87 395.88 165.49 C 388.86 169.76 382.55 174.96 376.43 180.42 C 372.88 183.64 369.63 187.05 366.96 191.05 C 367.30 187.36 367.39 183.64 367.31 179.93 C 367.47 181.52 367.68 183.11 367.88 184.70 C 376.48 175.72 386.59 168.11 396.98 161.32 C 413.23 151.57 432.86 146.01 451.86 147.45 C 456.63 147.82 460.72 149.45 465.19 150.96 C 463.83 147.13 462.21 143.48 460.16 139.97 C 455.87 129.57 448.44 120.35 440.20 112.79 C 429.79 103.77 418.42 95.97 405.99 89.98 C 402.72 88.46 399.45 88.31 395.93 87.89 C 389.94 86.93 384.25 87.24 378.59 89.57 C 373.35 91.47 368.45 94.01 364.48 98.01 C 356.33 106.33 353.45 116.36 350.61 127.31 C 349.88 126.26 349.11 125.24 348.31 124.25 C 351.02 117.75 352.26 111.46 355.66 105.64 C 357.76 102.04 360.28 98.72 362.46 95.16 C 369.12 89.61 376.94 86.66 385.29 84.68 C 386.85 84.42 388.42 84.14 389.98 83.84 C 376.08 78.92 362.11 77.09 347.53 75.66 C 337.27 74.90 326.86 75.31 316.67 76.66 C 307.29 77.91 298.15 80.48 289.75 84.89 C 290.55 85.18 291.36 85.46 292.17 85.74 C 289.34 85.14 286.50 84.56 283.64 84.16 C 289.36 79.99 295.73 77.61 302.38 75.38 C 310.35 72.81 318.62 71.41 326.98 71.02 Z" fill="#783253" />
<path d="M 347.53 75.66 C 362.11 77.09 376.08 78.92 389.98 83.84 C 388.42 84.14 386.85 84.42 385.29 84.68 C 380.10 84.01 375.55 83.00 370.69 85.68 C 366.61 87.73 364.40 91.20 362.46 95.16 C 360.28 98.72 357.76 102.04 355.66 105.64 C 352.26 111.46 351.02 117.75 348.31 124.25 C 337.30 110.59 324.88 98.72 308.84 91.17 C 303.52 88.59 297.88 87.15 292.17 85.74 C 291.36 85.46 290.55 85.18 289.75 84.89 C 298.15 80.48 307.29 77.91 316.67 76.66 C 326.86 75.31 337.27 74.90 347.53 75.66 Z" fill="#dd69a3" />
<path d="M 213.88 77.06 C 216.41 77.62 219.13 78.00 220.63 80.37 C 222.86 83.76 223.87 88.19 225.04 92.05 C 217.24 95.60 209.75 98.87 202.68 103.69 C 189.71 112.35 179.41 124.00 171.18 137.17 C 167.45 143.16 164.68 149.56 162.39 156.21 C 161.77 154.22 161.06 152.31 161.22 150.18 C 161.76 143.88 164.49 137.33 166.47 131.36 C 165.08 132.14 163.06 132.78 162.28 134.25 C 160.56 137.23 159.51 140.65 158.30 143.87 C 157.44 142.72 156.60 141.58 155.69 140.47 C 159.98 132.63 164.42 125.07 170.26 118.26 C 174.32 113.58 178.14 108.84 183.29 105.33 C 193.71 98.46 204.14 92.06 216.13 88.25 C 217.56 87.54 220.48 87.19 220.70 85.31 C 215.01 82.60 207.93 82.05 201.72 81.39 C 192.10 80.42 182.57 81.36 173.11 83.15 C 158.14 85.76 143.77 90.95 130.73 98.77 C 121.26 104.85 112.47 111.59 104.99 120.06 C 108.35 121.16 111.67 122.22 115.16 122.86 C 108.09 122.82 101.66 124.51 94.80 125.83 C 98.95 119.39 104.21 113.98 109.95 108.96 C 120.86 99.92 133.00 92.71 145.85 86.81 C 154.32 82.94 163.62 80.59 172.71 78.74 C 186.14 76.29 200.33 74.70 213.88 77.06 Z" fill="#dd69a3" />
<path d="M 223.46 79.09 C 230.43 81.02 238.21 82.79 244.40 86.58 C 238.71 88.05 232.92 89.29 227.35 91.14 C 226.28 87.05 224.87 83.07 223.46 79.09 Z" fill="#dd69a3" />
<path d="M 201.72 81.39 C 207.93 82.05 215.01 82.60 220.70 85.31 C 220.48 87.19 217.56 87.54 216.13 88.25 C 204.14 92.06 193.71 98.46 183.29 105.33 C 178.14 108.84 174.32 113.58 170.26 118.26 C 164.42 125.07 159.98 132.63 155.69 140.47 C 149.79 134.33 142.24 129.69 134.27 126.74 C 127.98 124.40 121.74 123.80 115.16 122.86 C 111.67 122.22 108.35 121.16 104.99 120.06 C 112.47 111.59 121.26 104.85 130.73 98.77 C 143.77 90.95 158.14 85.76 173.11 83.15 C 182.57 81.36 192.10 80.42 201.72 81.39 Z" fill="#fe9fbf" />
<path d="M 139.48 82.66 L 140.85 83.14 C 135.37 85.71 129.77 88.30 123.96 90.02 C 110.70 93.54 97.69 99.31 86.05 106.55 C 90.80 107.73 95.10 109.29 99.05 112.26 C 98.50 112.89 97.97 113.54 97.47 114.20 C 93.64 111.34 89.61 109.22 84.69 109.27 C 81.54 109.10 79.20 111.04 76.78 112.75 C 67.90 119.61 59.45 126.59 51.91 134.92 C 41.40 146.49 31.23 159.45 24.76 173.76 C 20.40 183.42 16.96 193.39 15.02 203.83 C 19.91 199.48 24.76 195.31 30.74 192.50 C 38.52 188.82 45.85 185.35 54.61 188.05 C 53.79 188.78 52.95 189.50 52.10 190.21 C 46.07 189.90 41.28 191.16 35.97 193.92 C 28.32 197.18 21.36 201.58 15.81 207.84 C 13.42 210.49 13.25 213.59 12.79 216.97 C 11.49 229.15 10.95 241.44 12.38 253.64 C 14.49 271.07 18.90 288.21 25.54 304.46 C 32.12 320.35 41.66 334.65 52.55 347.89 C 52.65 339.22 54.13 332.31 58.08 324.60 C 64.19 310.81 73.15 297.02 87.30 290.50 C 87.94 291.20 88.60 291.87 89.28 292.52 C 76.65 298.85 68.38 310.20 62.61 322.77 C 57.94 331.20 55.11 340.27 55.78 350.01 C 55.98 351.93 57.61 353.73 58.83 355.16 C 68.05 365.07 78.23 373.93 89.34 381.67 C 115.59 400.13 142.67 417.66 170.88 432.98 C 168.33 423.09 167.99 413.16 168.28 403.00 C 168.44 398.57 169.01 394.17 169.87 389.82 C 172.95 375.44 176.65 361.69 184.47 349.07 C 185.19 349.46 185.92 349.82 186.67 350.15 L 186.70 351.16 C 182.07 358.71 178.45 366.65 176.29 375.26 C 174.72 381.75 172.90 388.23 171.74 394.81 C 170.49 407.01 169.75 420.64 173.54 432.47 C 174.61 435.99 178.20 437.25 181.13 438.91 C 195.72 446.18 209.79 454.38 224.38 461.63 C 231.70 465.70 238.52 470.42 246.32 473.63 C 259.68 479.16 273.16 484.44 286.33 490.42 C 285.32 491.45 284.25 492.42 283.18 493.40 C 274.48 489.38 265.47 486.19 256.72 482.29 C 250.65 479.69 244.45 477.44 238.53 474.48 C 232.07 471.45 226.44 467.12 220.05 463.96 C 214.52 461.20 208.98 458.47 203.61 455.40 C 190.96 448.23 177.76 442.16 165.21 434.81 C 138.83 420.03 113.35 403.76 88.61 386.39 C 73.07 375.66 58.83 362.72 47.12 347.89 C 37.29 335.47 28.47 322.32 22.34 307.66 C 14.14 288.14 9.12 267.05 7.53 245.94 C 6.44 220.43 10.71 193.88 21.69 170.71 C 29.22 154.67 41.17 140.11 53.39 127.39 C 63.03 117.96 73.69 109.28 85.15 102.15 C 101.72 92.23 120.32 85.30 139.48 82.66 Z" fill="#4c0c15" />
<path d="M 385.29 84.68 C 376.94 86.66 369.12 89.61 362.46 95.16 C 364.40 91.20 366.61 87.73 370.69 85.68 C 375.55 83.00 380.10 84.01 385.29 84.68 Z" fill="#fe9fbf" />
<path d="M 395.93 87.89 C 401.94 91.69 408.33 94.84 414.29 98.70 C 428.25 108.58 441.41 118.31 452.29 131.70 C 454.64 134.73 457.33 137.38 460.16 139.97 C 462.21 143.48 463.83 147.13 465.19 150.96 C 460.72 149.45 456.63 147.82 451.86 147.45 C 432.86 146.01 413.23 151.57 396.98 161.32 C 396.00 155.69 395.18 150.16 393.33 144.73 C 388.78 130.62 379.16 117.51 369.87 106.12 C 367.86 103.55 366.22 100.77 364.48 98.01 C 368.45 94.01 373.35 91.47 378.59 89.57 C 384.25 87.24 389.94 86.93 395.93 87.89 Z" fill="#fe9fbf" />
<path d="M 271.99 87.84 C 288.14 87.72 305.09 91.97 318.08 101.86 C 321.30 106.31 324.87 110.38 328.54 114.45 C 336.59 123.73 342.17 135.50 345.86 147.14 C 347.86 153.15 348.82 159.34 349.28 165.64 C 346.93 166.65 344.23 167.62 342.21 169.21 C 339.45 171.39 338.42 175.31 339.40 178.63 C 340.65 182.64 343.17 185.76 343.90 190.06 C 344.93 196.51 343.72 203.07 341.06 208.99 C 338.47 214.71 335.59 220.47 331.87 225.55 C 322.85 230.81 314.16 236.77 306.12 243.43 C 302.57 243.03 299.31 242.90 296.35 240.66 C 290.64 236.49 285.43 231.56 280.21 226.79 C 276.44 223.38 273.20 219.52 270.85 214.99 C 269.45 207.11 268.05 198.86 265.00 191.42 C 268.05 188.74 270.98 186.57 270.79 182.06 C 270.78 178.25 267.39 176.31 263.95 176.20 C 259.06 176.09 255.70 178.85 252.19 181.84 C 248.86 184.68 245.77 187.68 243.34 191.34 C 240.44 195.70 238.35 200.84 236.46 205.71 C 229.65 205.81 222.87 206.10 216.11 207.07 C 213.70 201.92 211.82 196.10 208.47 191.50 C 206.53 189.01 203.18 186.25 199.87 187.87 C 196.87 189.62 195.06 193.64 193.64 196.68 C 191.31 201.58 191.32 207.04 189.18 211.94 C 181.33 202.84 174.47 191.73 172.44 179.73 C 170.85 169.16 171.71 158.05 173.72 147.60 C 174.19 145.00 174.40 142.38 174.66 139.76 C 178.44 132.06 184.10 125.17 190.04 119.04 C 196.37 112.50 203.73 107.06 211.72 102.73 C 220.50 97.98 229.96 93.93 239.69 91.63 C 250.15 88.99 261.23 88.15 271.99 87.84 Z" fill="#ffffff" />
<path d="M 395.93 87.89 C 399.45 88.31 402.72 88.46 405.99 89.98 C 418.42 95.97 429.79 103.77 440.20 112.79 C 448.44 120.35 455.87 129.57 460.16 139.97 C 457.33 137.38 454.64 134.73 452.29 131.70 C 441.41 118.31 428.25 108.58 414.29 98.70 C 408.33 94.84 401.94 91.69 395.93 87.89 Z" fill="#dd69a3" />
<path d="M 123.96 90.02 C 124.98 89.93 126.00 89.85 127.02 89.79 C 121.66 93.89 115.90 97.31 110.83 101.82 C 106.92 105.31 102.89 108.69 99.05 112.26 C 95.10 109.29 90.80 107.73 86.05 106.55 C 97.69 99.31 110.70 93.54 123.96 90.02 Z" fill="#beb4dc" />
<path d="M 364.48 98.01 C 366.22 100.77 367.86 103.55 369.87 106.12 C 379.16 117.51 388.78 130.62 393.33 144.73 C 395.18 150.16 396.00 155.69 396.98 161.32 C 386.59 168.11 376.48 175.72 367.88 184.70 C 367.68 183.11 367.47 181.52 367.31 179.93 C 366.31 161.26 361.00 142.95 350.61 127.31 C 353.45 116.36 356.33 106.33 364.48 98.01 Z" fill="#dd69a3" />
<path d="M 318.08 101.86 C 331.86 110.64 343.21 123.46 351.59 137.39 C 358.54 150.26 361.80 165.38 362.87 179.88 C 361.41 176.90 360.06 173.59 357.99 170.99 C 355.88 168.33 352.28 167.04 349.28 165.64 C 348.82 159.34 347.86 153.15 345.86 147.14 C 342.17 135.50 336.59 123.73 328.54 114.45 C 324.87 110.38 321.30 106.31 318.08 101.86 Z" fill="#e1cbe4" />
<path d="M 84.69 109.27 C 89.61 109.22 93.64 111.34 97.47 114.20 C 92.95 120.65 87.66 126.39 83.41 133.02 C 83.18 130.94 83.19 128.58 82.36 126.64 C 80.44 124.48 76.88 123.84 74.12 124.14 C 70.19 124.57 67.01 127.66 64.25 130.24 C 58.43 135.96 52.22 141.83 47.48 148.43 C 42.09 156.01 36.82 163.44 32.98 171.96 C 30.82 176.75 27.66 182.55 28.07 187.91 C 28.13 189.65 29.74 191.16 30.74 192.50 C 24.76 195.31 19.91 199.48 15.02 203.83 C 16.96 193.39 20.40 183.42 24.76 173.76 C 31.23 159.45 41.40 146.49 51.91 134.92 C 59.45 126.59 67.90 119.61 76.78 112.75 C 79.20 111.04 81.54 109.10 84.69 109.27 Z" fill="#beb4dc" />
<path d="M 74.12 124.14 C 76.88 123.84 80.44 124.48 82.36 126.64 C 83.19 128.58 83.18 130.94 83.41 133.02 C 75.03 145.82 68.04 159.60 61.34 173.34 C 58.92 178.10 57.66 183.71 54.61 188.05 C 45.85 185.35 38.52 188.82 30.74 192.50 C 29.74 191.16 28.13 189.65 28.07 187.91 C 27.66 182.55 30.82 176.75 32.98 171.96 C 36.82 163.44 42.09 156.01 47.48 148.43 C 52.22 141.83 58.43 135.96 64.25 130.24 C 67.01 127.66 70.19 124.57 74.12 124.14 Z" fill="#e0ebf9" />
<path d="M 112.11 126.13 C 105.45 127.74 97.82 130.93 93.59 136.56 C 81.21 153.40 70.80 172.22 64.11 192.06 C 61.75 199.92 58.71 209.01 59.62 217.27 C 60.82 228.42 62.91 239.35 67.22 249.76 C 70.98 259.58 78.04 268.27 85.12 275.92 C 95.74 286.69 105.11 297.00 119.81 302.17 C 119.82 304.08 119.85 305.99 119.88 307.90 C 112.20 303.74 105.24 298.01 98.40 292.60 C 89.89 285.18 81.55 277.40 73.92 269.07 C 60.87 254.88 53.57 235.25 54.77 215.97 C 55.67 199.95 61.50 183.88 68.65 169.63 C 74.32 158.26 79.97 146.61 87.03 136.03 C 92.41 127.92 103.19 126.57 112.11 126.13 Z" fill="#dd69a3" />
<path d="M 112.11 126.13 C 120.15 125.69 128.25 127.11 135.63 130.34 C 142.75 133.44 149.87 138.11 154.33 144.58 C 149.31 153.72 149.15 164.79 148.88 175.00 C 148.64 184.64 150.64 194.06 154.01 203.05 C 157.91 213.80 164.89 223.66 172.31 232.26 C 157.07 238.24 142.07 247.95 132.32 261.32 C 123.65 272.84 119.57 287.87 119.81 302.17 C 105.11 297.00 95.74 286.69 85.12 275.92 C 78.04 268.27 70.98 259.58 67.22 249.76 C 62.91 239.35 60.82 228.42 59.62 217.27 C 58.71 209.01 61.75 199.92 64.11 192.06 C 70.80 172.22 81.21 153.40 93.59 136.56 C 97.82 130.93 105.45 127.74 112.11 126.13 Z" fill="#fe9fbf" />
<path d="M 460.92 127.65 C 472.29 137.62 478.97 150.25 485.24 163.76 C 490.36 175.66 493.51 187.87 496.56 200.41 C 499.87 213.81 500.12 228.27 499.78 242.01 C 499.38 258.35 496.22 274.25 492.00 289.99 C 486.78 308.96 479.25 327.23 469.09 344.10 C 462.46 354.71 455.60 365.23 448.63 375.63 C 432.98 397.82 417.91 419.30 398.58 438.57 C 391.24 446.60 383.11 453.66 374.63 460.45 C 375.18 457.83 376.11 455.55 377.44 453.23 C 384.92 447.62 391.52 440.72 398.06 434.05 C 410.19 421.86 420.91 407.92 431.14 394.12 C 433.82 390.57 436.47 387.14 438.42 383.11 C 437.70 381.99 436.94 380.89 436.15 379.82 C 436.92 379.32 437.72 378.85 438.52 378.39 C 439.14 379.20 439.77 380.02 440.39 380.83 C 444.02 376.24 447.37 371.50 450.18 366.35 C 448.36 366.50 446.55 366.66 444.74 366.83 C 443.96 366.90 443.18 366.98 442.40 367.06 C 442.87 366.33 443.35 365.60 443.82 364.87 C 445.61 364.72 447.40 364.47 449.18 364.18 C 452.42 363.44 453.96 361.26 455.62 358.60 C 462.15 347.97 468.95 337.52 474.34 326.33 C 484.14 306.29 490.40 285.02 494.16 263.07 C 495.22 254.93 496.17 246.60 495.77 238.39 C 494.89 237.83 494.00 237.30 493.10 236.80 C 487.41 233.82 481.35 233.22 475.03 232.96 C 475.36 232.15 475.69 231.35 476.01 230.54 C 478.76 230.56 481.46 230.58 484.20 230.79 C 486.48 231.12 488.64 231.72 490.87 232.30 C 492.58 232.84 494.28 233.44 495.98 234.01 C 496.12 222.36 495.24 210.76 492.59 199.39 C 489.92 188.21 487.22 176.81 482.75 166.23 C 480.83 161.71 478.83 156.98 475.93 153.01 C 474.47 153.06 473.02 153.13 471.56 153.23 C 471.33 152.60 471.09 151.98 470.84 151.36 C 472.06 150.85 473.29 150.35 474.51 149.84 C 471.89 145.11 469.02 140.90 465.48 136.81 C 463.87 134.66 462.18 132.58 460.48 130.51 C 460.62 129.55 460.76 128.60 460.92 127.65 Z" fill="#4c0c15" />
<path d="M 324.77 134.37 C 329.94 134.86 331.99 143.67 326.51 145.42 C 320.34 146.52 312.20 144.86 305.78 147.78 C 301.28 149.85 299.14 153.52 295.77 156.83 C 294.41 158.31 291.90 158.54 290.05 159.09 C 290.00 155.79 290.07 152.65 291.62 149.65 C 294.08 144.55 298.18 138.78 303.65 136.69 C 308.49 134.81 313.00 136.63 317.69 137.90 C 319.67 136.56 322.22 134.07 324.77 134.37 Z" fill="#4c0c15" />
<path d="M 324.94 135.68 C 325.99 137.21 327.82 138.94 327.42 140.94 C 327.24 142.89 325.81 143.77 323.98 143.80 C 322.01 144.10 320.69 141.64 320.54 139.99 C 320.41 137.72 323.34 136.68 324.94 135.68 Z" fill="#e0ebf9" />
<path d="M 465.48 136.81 C 469.02 140.90 471.89 145.11 474.51 149.84 C 473.29 150.35 472.06 150.85 470.84 151.36 C 468.68 146.61 466.67 141.91 465.48 136.81 Z" fill="#beb4dc" />
<path d="M 174.66 139.76 C 174.40 142.38 174.19 145.00 173.72 147.60 C 171.71 158.05 170.85 169.16 172.44 179.73 C 174.47 191.73 181.33 202.84 189.18 211.94 C 187.24 213.94 185.24 215.87 183.47 218.04 C 183.03 218.28 182.58 218.53 182.13 218.77 C 175.20 209.29 168.72 199.23 164.99 188.02 C 163.47 183.40 163.60 178.64 163.76 173.83 C 164.53 161.86 168.24 149.90 174.66 139.76 Z" fill="#e1cbe4" />
<path d="M 302.15 144.27 C 303.85 143.98 304.37 146.15 302.79 146.74 C 301.09 147.04 300.57 144.86 302.15 144.27 Z" fill="#e1cbe4" />
<path d="M 154.33 144.58 C 156.50 147.53 156.79 150.73 156.47 154.26 C 155.69 163.22 155.84 172.12 158.12 180.87 C 162.62 198.32 172.47 214.67 184.11 228.30 C 180.21 229.70 176.22 230.87 172.31 232.26 C 164.89 223.66 157.91 213.80 154.01 203.05 C 150.64 194.06 148.64 184.64 148.88 175.00 C 149.15 164.79 149.31 153.72 154.33 144.58 Z" fill="#dd69a3" />
<path d="M 300.36 145.77 C 299.13 148.33 297.86 149.79 295.61 151.51 C 295.76 150.45 295.45 148.92 296.10 148.03 C 297.26 146.97 298.95 146.42 300.36 145.77 Z" fill="#e1cbe4" />
<path d="M 443.95 150.18 C 451.32 149.98 458.85 150.47 464.99 155.01 C 467.74 157.09 468.85 159.98 469.93 163.13 C 472.64 171.46 474.51 180.20 475.01 188.96 C 475.71 202.90 475.21 216.41 470.78 229.77 C 467.68 239.74 462.79 248.92 455.04 256.05 C 446.59 263.87 436.49 267.39 425.72 270.74 C 419.18 272.69 413.09 275.63 407.06 278.80 C 405.55 268.69 400.11 260.13 392.78 253.22 C 387.07 247.86 381.72 241.76 374.39 238.63 C 368.57 236.18 362.45 234.32 356.36 232.68 C 348.93 230.71 341.49 230.41 333.88 229.92 C 342.91 224.33 352.78 219.81 363.07 217.12 C 367.78 215.86 372.73 215.69 377.40 214.35 C 379.29 213.83 380.22 212.37 381.41 210.94 C 386.10 203.80 390.43 196.03 392.82 187.79 C 394.95 180.24 397.34 173.46 395.88 165.49 C 409.93 155.87 427.02 150.89 443.95 150.18 Z" fill="#fe9fbf" />
<path d="M 471.56 153.23 C 473.02 153.13 474.47 153.06 475.93 153.01 C 478.83 156.98 480.83 161.71 482.75 166.23 C 487.22 176.81 489.92 188.21 492.59 199.39 C 495.24 210.76 496.12 222.36 495.98 234.01 C 494.28 233.44 492.58 232.84 490.87 232.30 L 492.54 231.73 C 492.53 223.38 491.38 215.00 490.38 206.72 C 489.95 204.53 489.78 201.36 488.18 199.69 C 486.89 197.98 484.61 199.20 483.61 200.58 C 481.74 203.39 480.84 206.95 480.05 210.20 C 480.23 200.85 480.02 191.33 479.01 182.02 C 477.93 171.87 474.59 162.90 471.56 153.23 Z" fill="#beb4dc" />
<path d="M 310.40 155.32 C 313.85 154.56 317.53 155.82 318.61 159.44 C 319.68 163.35 317.03 166.02 314.13 168.13 C 310.82 170.38 306.41 172.79 302.31 172.55 C 298.47 172.05 297.39 167.85 298.60 164.66 C 300.48 159.91 305.51 156.37 310.40 155.32 Z" fill="#fe9fbf" />
<path d="M 259.52 165.50 C 261.07 166.76 260.85 168.76 261.24 170.56 C 255.84 170.72 250.86 170.03 246.02 173.01 C 240.12 176.46 237.81 183.67 234.47 189.30 C 232.69 186.69 230.88 184.38 227.95 183.00 L 229.72 182.76 C 231.61 178.46 232.53 174.23 235.28 170.28 C 237.78 166.69 241.37 163.05 245.60 161.61 C 250.47 159.97 255.88 162.21 259.52 165.50 Z" fill="#4c0c15" />
<path d="M 395.88 165.49 C 397.34 173.46 394.95 180.24 392.82 187.79 C 390.43 196.03 386.10 203.80 381.41 210.94 C 375.51 209.85 370.02 211.10 364.17 211.70 L 364.17 210.16 C 364.73 203.76 366.10 197.43 366.96 191.05 C 369.63 187.05 372.88 183.64 376.43 180.42 C 382.55 174.96 388.86 169.76 395.88 165.49 Z" fill="#dd69a3" />
<path d="M 349.79 170.09 C 354.29 171.34 356.99 174.40 356.44 179.22 C 352.53 180.50 348.85 182.25 345.17 184.03 C 344.17 181.71 342.91 179.24 342.50 176.74 C 341.93 172.82 345.91 169.13 349.79 170.09 Z" fill="#fb7f26" />
<path d="M 239.39 171.08 C 240.88 170.00 241.99 172.34 240.19 172.78 C 239.20 172.55 238.93 171.98 239.39 171.08 Z" fill="#fe9fbf" />
<path d="M 238.84 172.46 C 237.40 175.61 235.72 178.05 232.97 180.20 C 233.34 178.62 233.61 176.83 234.40 175.39 C 235.44 174.03 237.38 173.28 238.84 172.46 Z" fill="#ffffff" />
<path d="M 263.95 176.20 C 267.39 176.31 270.78 178.25 270.79 182.06 C 270.98 186.57 268.05 188.74 265.00 191.42 C 262.06 186.26 258.51 182.25 252.19 181.84 C 255.70 178.85 259.06 176.09 263.95 176.20 Z" fill="#fe9fbf" />
<path d="M 356.44 179.22 C 356.46 180.27 356.50 181.32 356.56 182.36 L 358.02 183.21 C 354.04 184.46 350.52 186.56 347.13 188.94 C 346.56 187.27 345.88 185.65 345.17 184.03 C 348.85 182.25 352.53 180.50 356.44 179.22 Z" fill="#783253" />
<path d="M 252.19 181.84 C 258.51 182.25 262.06 186.26 265.00 191.42 C 268.05 198.86 269.45 207.11 270.85 214.99 C 271.52 218.54 271.86 221.80 274.38 224.60 C 282.19 233.38 289.99 242.97 295.45 253.42 C 293.30 255.68 291.09 257.90 288.93 260.16 C 288.85 255.29 288.78 250.60 286.91 246.02 C 284.89 251.39 284.75 256.50 279.07 259.37 C 279.58 254.22 281.40 249.20 281.62 244.06 C 281.77 241.13 280.42 238.89 278.75 236.62 C 276.57 233.80 274.23 231.11 272.07 228.27 C 270.12 225.80 268.62 223.15 267.96 220.05 C 265.89 210.96 264.68 200.15 260.09 191.92 C 258.81 189.71 256.73 186.49 253.98 186.14 C 252.17 186.26 250.47 188.04 249.28 189.29 C 244.50 194.64 241.89 202.53 238.82 209.00 C 230.54 209.35 222.31 209.02 214.06 210.07 C 211.86 206.10 209.98 201.99 208.02 197.90 C 206.56 195.09 205.11 192.23 201.98 191.00 C 200.12 191.45 199.45 193.04 198.55 194.54 C 195.89 199.44 195.01 204.61 193.85 209.98 C 193.09 214.58 188.42 216.40 186.62 220.95 C 186.15 222.02 185.69 223.09 185.24 224.16 C 184.03 222.13 183.23 220.48 183.47 218.04 C 185.24 215.87 187.24 213.94 189.18 211.94 C 191.32 207.04 191.31 201.58 193.64 196.68 C 195.06 193.64 196.87 189.62 199.87 187.87 C 203.18 186.25 206.53 189.01 208.47 191.50 C 211.82 196.10 213.70 201.92 216.11 207.07 C 222.87 206.10 229.65 205.81 236.46 205.71 C 238.35 200.84 240.44 195.70 243.34 191.34 C 245.77 187.68 248.86 184.68 252.19 181.84 Z" fill="#4c0c15" />
<path d="M 227.95 183.00 C 230.88 184.38 232.69 186.69 234.47 189.30 C 232.36 193.20 229.96 195.94 225.07 195.15 C 220.72 194.70 218.50 190.38 220.45 186.52 C 222.04 183.52 224.96 183.44 227.95 183.00 Z" fill="#783253" />
<path d="M 314.42 182.73 C 315.41 184.05 316.12 185.17 315.89 186.90 C 315.46 193.19 310.83 198.35 306.36 202.37 C 302.25 206.08 297.41 207.43 292.29 209.16 C 295.24 214.51 298.28 219.30 298.98 225.54 C 295.11 222.17 293.96 217.88 291.32 213.67 C 288.29 208.56 283.99 204.24 279.07 200.93 C 275.42 198.45 271.48 197.33 268.49 193.88 C 277.23 193.92 282.14 199.61 288.46 204.54 C 290.59 206.41 293.26 205.37 295.68 204.75 C 301.87 202.94 307.06 198.91 310.49 193.48 C 312.41 190.31 313.05 186.21 314.42 182.73 Z" fill="#4c0c15" />
<path d="M 358.02 183.21 C 359.12 183.87 360.08 184.14 360.36 185.55 C 362.12 191.71 361.11 197.51 360.11 203.70 C 357.71 203.16 355.29 202.69 352.87 202.23 C 350.67 201.81 348.66 201.14 346.64 200.16 C 346.97 196.41 347.32 192.71 347.13 188.94 C 350.52 186.56 354.04 184.46 358.02 183.21 Z" fill="#fb7f26" />
<path d="M 229.56 186.32 C 230.35 187.72 231.71 188.73 230.29 190.23 C 229.00 192.33 226.56 192.17 224.44 191.73 C 223.16 190.76 223.02 188.47 222.61 187.02 C 224.92 186.43 227.18 185.70 229.56 186.32 Z" fill="#e0ebf9" />
<path d="M 253.98 186.14 C 256.73 186.49 258.81 189.71 260.09 191.92 C 264.68 200.15 265.89 210.96 267.96 220.05 C 268.62 223.15 270.12 225.80 272.07 228.27 C 272.05 235.18 269.93 241.45 267.63 247.86 C 268.21 248.57 268.79 249.29 269.37 250.01 C 274.21 246.49 275.79 241.54 278.75 236.62 C 280.42 238.89 281.77 241.13 281.62 244.06 C 281.40 249.20 279.58 254.22 279.07 259.37 C 284.75 256.50 284.89 251.39 286.91 246.02 C 288.78 250.60 288.85 255.29 288.93 260.16 C 282.28 268.10 275.61 276.08 269.72 284.62 C 268.53 284.08 267.34 283.55 266.16 282.98 C 266.69 274.93 267.00 267.43 262.95 260.14 C 259.84 254.43 253.10 251.46 246.76 252.64 C 240.31 253.80 235.19 258.05 231.13 262.98 C 224.53 258.57 217.45 254.67 211.19 249.82 C 204.55 244.76 199.10 238.66 193.61 232.42 C 190.49 228.75 187.14 226.09 186.62 220.95 C 188.42 216.40 193.09 214.58 193.85 209.98 C 195.01 204.61 195.89 199.44 198.55 194.54 C 199.45 193.04 200.12 191.45 201.98 191.00 C 205.11 192.23 206.56 195.09 208.02 197.90 C 209.98 201.99 211.86 206.10 214.06 210.07 C 222.31 209.02 230.54 209.35 238.82 209.00 C 241.89 202.53 244.50 194.64 249.28 189.29 C 250.47 188.04 252.17 186.26 253.98 186.14 Z" fill="#fb7f26" />
<path d="M 52.10 190.21 C 52.75 190.61 53.40 191.02 54.05 191.42 C 52.24 199.62 50.00 207.50 49.88 215.99 C 49.12 230.79 53.22 244.95 60.04 257.96 C 65.10 267.45 72.12 274.82 79.76 282.24 C 82.46 284.82 84.88 287.65 87.30 290.50 C 73.15 297.02 64.19 310.81 58.08 324.60 C 56.26 324.54 53.81 324.91 52.30 323.75 C 49.99 322.15 48.39 319.34 47.05 316.93 C 42.72 308.81 38.67 300.53 34.89 292.14 C 30.36 281.18 26.83 269.87 24.85 258.16 C 22.54 244.99 22.91 232.26 23.19 218.97 C 23.34 214.35 23.53 210.06 25.97 205.98 C 28.68 201.56 32.47 197.74 35.97 193.92 C 41.28 191.16 46.07 189.90 52.10 190.21 Z" fill="#e0ebf9" />
<path d="M 35.97 193.92 C 32.47 197.74 28.68 201.56 25.97 205.98 C 23.53 210.06 23.34 214.35 23.19 218.97 C 22.91 232.26 22.54 244.99 24.85 258.16 C 26.83 269.87 30.36 281.18 34.89 292.14 C 38.67 300.53 42.72 308.81 47.05 316.93 C 48.39 319.34 49.99 322.15 52.30 323.75 C 53.81 324.91 56.26 324.54 58.08 324.60 C 54.13 332.31 52.65 339.22 52.55 347.89 C 41.66 334.65 32.12 320.35 25.54 304.46 C 18.90 288.21 14.49 271.07 12.38 253.64 C 10.95 241.44 11.49 229.15 12.79 216.97 C 13.25 213.59 13.42 210.49 15.81 207.84 C 21.36 201.58 28.32 197.18 35.97 193.92 Z" fill="#beb4dc" />
<path d="M 488.18 199.69 C 489.78 201.36 489.95 204.53 490.38 206.72 C 491.38 215.00 492.53 223.38 492.54 231.73 L 490.87 232.30 C 488.64 231.72 486.48 231.12 484.20 230.79 C 481.54 230.39 478.87 230.17 476.20 229.92 C 477.74 223.40 479.12 216.85 480.05 210.20 C 480.84 206.95 481.74 203.39 483.61 200.58 C 484.61 199.20 486.89 197.98 488.18 199.69 Z" fill="#e0ebf9" />
<path d="M 346.64 200.16 C 348.66 201.14 350.67 201.81 352.87 202.23 C 352.18 203.51 351.49 204.79 350.80 206.08 C 349.20 205.87 347.59 205.74 345.97 205.66 C 346.26 203.84 346.45 202.00 346.64 200.16 Z" fill="#783253" />
<path d="M 345.97 205.66 C 347.59 205.74 349.20 205.87 350.80 206.08 C 353.33 206.73 355.86 207.59 358.34 208.41 C 358.70 209.74 359.06 211.07 359.43 212.40 C 354.50 214.90 349.34 216.86 344.33 219.16 C 342.95 218.61 341.57 218.06 340.19 217.51 C 341.99 213.50 343.98 209.58 345.97 205.66 Z" fill="#fb7f26" />
<path d="M 249.24 217.79 C 250.90 219.11 250.43 220.86 250.64 222.72 C 247.92 221.66 244.94 219.98 241.99 219.84 C 238.82 219.98 235.60 220.95 232.49 221.60 C 233.30 219.95 233.95 217.56 235.62 216.61 C 239.55 214.07 245.74 214.76 249.24 217.79 Z" fill="#4c0c15" />
<path d="M 270.85 214.99 C 273.20 219.52 276.44 223.38 280.21 226.79 C 285.43 231.56 290.64 236.49 296.35 240.66 C 299.31 242.90 302.57 243.03 306.12 243.43 C 302.41 246.59 298.84 249.92 295.45 253.42 C 289.99 242.97 282.19 233.38 274.38 224.60 C 271.86 221.80 271.52 218.54 270.85 214.99 Z" fill="#e1cbe4" />
<path d="M 214.13 222.96 C 213.99 223.79 213.85 224.62 213.72 225.45 C 208.61 224.23 203.56 224.52 198.37 224.82 C 199.45 222.37 200.18 220.56 203.01 219.86 C 207.50 218.36 210.57 220.57 214.13 222.96 Z" fill="#4c0c15" />
<path d="M 272.07 228.27 C 274.23 231.11 276.57 233.80 278.75 236.62 C 275.79 241.54 274.21 246.49 269.37 250.01 C 268.79 249.29 268.21 248.57 267.63 247.86 C 269.93 241.45 272.05 235.18 272.07 228.27 Z" fill="#783253" />
<path d="M 505.60 229.58 C 507.14 238.32 505.80 246.24 505.29 254.98 C 504.52 265.72 502.51 276.23 499.91 286.66 C 497.41 298.76 493.11 310.20 488.76 321.72 C 485.19 330.29 480.55 338.16 476.56 346.47 C 474.19 351.40 470.85 355.37 467.99 360.01 C 463.98 366.52 459.39 372.64 455.46 379.21 C 451.13 386.43 445.51 392.73 440.92 399.82 C 437.26 405.55 432.70 410.56 428.73 416.05 C 424.63 421.74 419.83 426.94 415.26 432.25 C 407.81 440.44 400.96 448.46 392.50 455.55 C 383.34 464.08 373.69 472.02 364.32 480.31 C 359.48 484.65 354.06 487.29 348.55 490.63 C 344.31 493.18 340.02 495.63 335.51 497.67 C 328.74 500.73 322.61 503.77 315.02 503.97 C 308.09 504.10 301.03 505.07 294.60 502.57 C 298.90 501.30 302.91 502.20 307.26 502.06 C 317.00 501.58 326.46 498.76 334.92 493.92 C 341.93 490.02 349.30 486.36 356.00 481.97 C 363.37 477.10 369.61 470.66 376.06 465.03 C 384.22 458.12 393.04 451.13 400.10 443.10 C 404.67 437.67 409.63 432.68 414.53 427.56 C 420.75 420.40 426.85 413.08 432.42 405.39 C 443.36 390.85 453.92 376.44 463.25 360.80 C 466.98 355.68 470.66 350.76 473.42 345.00 C 484.20 327.28 491.45 308.08 497.15 288.20 C 498.50 283.12 499.48 277.95 500.72 272.84 C 502.68 264.90 503.44 256.62 504.40 248.37 C 505.16 241.96 504.08 235.91 505.60 229.58 Z" fill="#e0ebf9" />
<path d="M 186.60 231.49 C 188.95 232.91 190.78 235.39 192.58 237.43 C 198.58 244.73 206.05 250.81 213.68 256.32 C 218.79 260.12 224.54 262.31 229.26 266.67 C 228.12 269.14 226.98 271.65 226.06 274.20 C 221.98 271.57 218.04 268.74 214.11 265.87 C 206.89 260.57 198.76 256.93 191.78 251.22 C 185.21 246.33 179.62 240.50 173.90 234.68 C 177.78 233.28 182.43 231.06 186.60 231.49 Z" fill="#dd69a3" />
<path d="M 222.56 232.09 C 224.39 234.81 226.24 238.60 229.15 240.25 C 232.34 240.91 235.21 236.73 237.40 234.90 C 237.49 236.38 237.80 238.00 237.46 239.45 C 235.81 242.44 231.77 244.62 228.38 243.68 C 225.66 242.72 223.51 239.82 221.60 237.75 C 219.21 239.28 216.58 241.18 213.81 241.87 C 210.81 242.56 206.85 241.43 205.67 238.33 C 205.38 236.83 206.02 235.12 206.27 233.63 C 208.30 235.80 209.33 239.18 212.86 238.68 C 216.55 238.29 219.82 234.39 222.56 232.09 Z" fill="#4c0c15" />
<path d="M 330.00 233.18 C 339.95 232.45 349.97 233.34 359.46 236.52 C 366.49 238.85 374.47 241.10 380.42 245.59 C 384.36 248.56 387.83 252.21 391.39 255.62 C 396.46 260.44 400.73 266.40 402.99 273.06 C 403.66 275.29 404.35 278.17 403.54 280.44 C 401.74 282.33 399.33 283.73 397.20 285.21 C 387.09 292.02 378.38 300.55 371.02 310.23 C 366.01 310.58 361.09 310.78 356.11 310.01 C 346.85 308.70 338.46 304.66 329.90 301.10 C 324.84 298.88 319.64 296.83 314.77 294.20 C 308.31 290.73 304.50 283.66 303.44 276.59 C 302.72 271.46 302.35 265.58 304.92 260.89 C 307.99 255.25 311.99 250.04 316.33 245.33 C 318.45 243.02 320.18 240.43 321.90 237.82 C 324.38 235.81 326.63 233.43 330.00 233.18 Z" fill="#fe9fbf" />
<path d="M 475.03 232.96 C 481.35 233.22 487.41 233.82 493.10 236.80 C 492.43 244.99 492.47 252.81 490.95 260.92 C 488.12 275.51 484.79 289.75 479.78 303.77 C 477.16 311.01 473.39 318.07 470.10 325.12 C 463.89 338.52 456.76 351.51 449.18 364.18 C 447.40 364.47 445.61 364.72 443.82 364.87 C 442.47 364.64 441.14 364.35 439.81 364.07 C 439.82 361.99 439.82 359.89 439.91 357.81 C 440.77 350.51 441.64 343.29 441.20 335.92 C 441.53 339.61 441.94 343.29 442.35 346.97 C 443.97 340.40 444.95 333.79 444.78 327.00 C 444.80 319.80 444.65 312.68 443.25 305.60 C 441.70 296.50 439.84 286.98 435.04 278.95 C 434.29 277.66 432.83 277.96 431.53 277.65 C 431.10 276.77 430.65 275.90 430.17 275.05 C 433.70 272.82 438.10 271.69 441.96 269.95 C 449.94 266.32 457.20 261.64 462.81 254.81 C 468.39 248.36 471.97 240.85 475.03 232.96 Z" fill="#e0ebf9" />
<path d="M 173.90 234.68 C 179.62 240.50 185.21 246.33 191.78 251.22 C 198.76 256.93 206.89 260.57 214.11 265.87 C 218.04 268.74 221.98 271.57 226.06 274.20 C 225.22 278.01 224.90 282.01 225.35 285.88 C 225.83 290.52 228.90 294.69 232.61 297.35 C 236.15 299.84 240.97 300.15 244.51 297.47 C 248.52 294.54 250.82 289.13 252.64 284.65 C 262.17 289.73 272.53 293.02 282.16 297.95 C 278.15 301.75 274.22 305.48 270.95 309.96 C 264.45 318.53 260.72 329.94 256.97 339.97 C 253.27 349.81 250.46 359.67 251.34 370.32 C 248.94 369.98 246.57 369.55 244.28 368.71 C 232.10 364.14 221.65 357.49 209.86 352.10 C 197.43 346.43 185.70 339.43 173.26 333.76 C 165.75 330.43 158.71 326.50 150.79 324.15 C 145.67 321.77 140.99 318.71 136.12 315.88 C 130.96 311.65 125.50 307.75 122.14 301.93 C 122.38 290.58 124.98 278.55 130.64 268.62 C 140.72 252.45 156.32 241.48 173.90 234.68 Z" fill="#fe9fbf" />
<path d="M 493.10 236.80 C 494.00 237.30 494.89 237.83 495.77 238.39 C 496.17 246.60 495.22 254.93 494.16 263.07 C 490.40 285.02 484.14 306.29 474.34 326.33 C 468.95 337.52 462.15 347.97 455.62 358.60 C 453.96 361.26 452.42 363.44 449.18 364.18 C 456.76 351.51 463.89 338.52 470.10 325.12 C 473.39 318.07 477.16 311.01 479.78 303.77 C 484.79 289.75 488.12 275.51 490.95 260.92 C 492.47 252.81 492.43 244.99 493.10 236.80 Z" fill="#beb4dc" />
<path d="M 321.90 237.82 C 320.18 240.43 318.45 243.02 316.33 245.33 C 311.99 250.04 307.99 255.25 304.92 260.89 C 302.35 265.58 302.72 271.46 303.44 276.59 C 304.50 283.66 308.31 290.73 314.77 294.20 C 319.64 296.83 324.84 298.88 329.90 301.10 C 338.46 304.66 346.85 308.70 356.11 310.01 C 361.09 310.78 366.01 310.58 371.02 310.23 C 366.83 315.64 363.01 321.31 358.71 326.63 C 349.63 321.47 340.73 316.12 331.15 311.88 C 311.79 303.59 292.31 295.55 273.16 286.78 C 276.61 280.55 281.08 275.11 285.86 269.87 C 296.39 258.09 308.13 245.77 321.90 237.82 Z" fill="#dd69a3" />
<path d="M 262.95 260.14 C 267.00 267.43 266.69 274.93 266.16 282.98 C 264.61 282.18 263.10 281.31 261.60 280.42 C 261.72 275.95 261.99 271.71 260.51 267.40 C 259.15 263.36 256.48 259.28 252.40 257.61 C 248.80 256.13 244.48 257.39 241.25 259.24 C 236.75 261.81 234.02 266.43 232.04 271.07 C 229.37 277.60 228.34 284.61 231.34 291.24 C 232.08 288.35 232.73 285.43 233.36 282.51 C 234.02 282.27 234.69 282.03 235.35 281.79 C 235.36 287.03 233.68 291.87 237.77 296.01 C 239.02 292.51 240.11 288.95 241.52 285.50 C 242.39 288.64 242.48 291.80 242.45 295.04 C 244.55 292.46 246.58 289.98 247.77 286.82 C 249.21 282.99 250.57 279.17 252.64 275.61 C 253.56 276.07 254.48 276.54 255.40 277.00 C 254.83 278.72 254.26 280.43 253.63 282.13 C 253.30 282.97 252.97 283.81 252.64 284.65 C 250.82 289.13 248.52 294.54 244.51 297.47 C 240.97 300.15 236.15 299.84 232.61 297.35 C 228.90 294.69 225.83 290.52 225.35 285.88 C 224.90 282.01 225.22 278.01 226.06 274.20 C 226.98 271.65 228.12 269.14 229.26 266.67 C 229.85 265.42 230.46 264.19 231.13 262.98 C 235.19 258.05 240.31 253.80 246.76 252.64 C 253.10 251.46 259.84 254.43 262.95 260.14 Z" fill="#4c0c15" />
<path d="M 252.40 257.61 C 256.48 259.28 259.15 263.36 260.51 267.40 C 261.99 271.71 261.72 275.95 261.60 280.42 C 259.57 279.22 257.51 278.07 255.40 277.00 C 254.48 276.54 253.56 276.07 252.64 275.61 C 250.57 279.17 249.21 282.99 247.77 286.82 C 246.58 289.98 244.55 292.46 242.45 295.04 C 242.48 291.80 242.39 288.64 241.52 285.50 C 240.11 288.95 239.02 292.51 237.77 296.01 C 233.68 291.87 235.36 287.03 235.35 281.79 C 234.69 282.03 234.02 282.27 233.36 282.51 C 232.73 285.43 232.08 288.35 231.34 291.24 C 228.34 284.61 229.37 277.60 232.04 271.07 C 234.02 266.43 236.75 261.81 241.25 259.24 C 244.48 257.39 248.80 256.13 252.40 257.61 Z" fill="#fb7f26" />
<path d="M 427.65 275.36 C 427.95 275.83 428.23 276.31 428.51 276.79 C 432.26 285.11 434.61 294.12 435.63 303.19 C 437.38 316.68 438.49 330.39 438.50 344.00 C 438.57 351.12 437.23 358.00 436.87 365.10 C 434.02 367.45 430.99 370.32 429.81 373.91 C 428.92 376.32 430.33 379.23 431.05 381.56 C 423.24 395.73 411.30 411.41 395.75 417.43 C 395.12 412.58 395.28 407.75 395.58 402.89 C 396.42 384.84 393.37 367.40 386.17 350.83 C 383.97 345.60 381.36 340.57 378.00 335.98 C 375.84 332.81 373.51 330.13 373.75 326.02 C 373.94 318.78 379.01 311.52 381.89 304.94 C 388.77 296.82 397.67 290.25 406.69 284.69 C 413.21 280.94 420.28 277.06 427.65 275.36 Z" fill="#e0ebf9" />
<path d="M 430.17 275.05 C 430.65 275.90 431.10 276.77 431.53 277.65 C 434.16 284.20 436.58 291.16 437.66 298.15 C 439.56 310.70 440.33 323.28 441.20 335.92 C 441.64 343.29 440.77 350.51 439.91 357.81 C 439.64 359.70 439.31 361.57 438.98 363.44 C 438.27 363.99 437.57 364.54 436.87 365.10 C 437.23 358.00 438.57 351.12 438.50 344.00 C 438.49 330.39 437.38 316.68 435.63 303.19 C 434.61 294.12 432.26 285.11 428.51 276.79 C 429.05 276.20 429.61 275.62 430.17 275.05 Z" fill="#4c0c15" />
<path d="M 435.04 278.95 C 439.84 286.98 441.70 296.50 443.25 305.60 C 444.65 312.68 444.80 319.80 444.78 327.00 C 444.95 333.79 443.97 340.40 442.35 346.97 C 441.94 343.29 441.53 339.61 441.20 335.92 C 440.33 323.28 439.56 310.70 437.66 298.15 C 436.58 291.16 434.16 284.20 431.53 277.65 C 432.83 277.96 434.29 277.66 435.04 278.95 Z" fill="#ffffff" />
<path d="M 253.63 282.13 C 258.97 283.65 263.09 286.55 268.09 288.92 C 273.36 291.43 278.75 293.65 284.01 296.17 C 283.39 296.76 282.78 297.36 282.16 297.95 C 272.53 293.02 262.17 289.73 252.64 284.65 C 252.97 283.81 253.30 282.97 253.63 282.13 Z" fill="#dd69a3" />
<path d="M 89.28 292.52 C 92.29 294.55 95.14 296.76 97.91 299.10 C 109.36 308.53 122.06 316.41 135.68 322.29 C 144.67 326.09 152.72 331.22 161.46 335.54 C 169.32 339.60 177.36 343.78 184.47 349.07 C 176.65 361.69 172.95 375.44 169.87 389.82 C 169.01 394.17 168.44 398.57 168.28 403.00 C 164.04 406.43 159.48 410.39 153.59 409.36 C 146.97 408.01 140.68 403.50 134.94 400.06 C 123.42 392.56 111.58 385.59 100.64 377.38 C 95.24 373.46 89.88 369.56 85.04 364.95 C 79.03 359.28 72.01 353.47 67.46 346.56 C 62.94 339.62 62.75 330.78 62.61 322.77 C 68.38 310.20 76.65 298.85 89.28 292.52 Z" fill="#e0ebf9" />
<path d="M 298.54 302.53 C 306.02 305.71 313.33 309.20 320.93 312.09 C 328.94 315.09 336.53 318.94 344.08 322.94 C 351.11 326.85 358.14 330.35 363.17 336.84 C 368.04 343.18 372.47 350.03 375.60 357.41 C 384.62 378.76 387.26 402.60 382.31 425.30 C 381.78 427.55 380.39 429.23 378.71 430.73 C 374.84 434.19 370.36 437.10 366.19 440.20 C 367.39 434.71 369.00 429.38 369.81 423.89 C 371.09 415.54 370.99 407.41 370.87 399.00 C 370.72 390.95 371.05 383.03 370.19 375.00 C 369.41 367.71 368.99 360.04 367.09 352.95 C 365.20 345.57 359.46 339.08 353.97 334.03 C 344.73 325.66 334.25 321.32 323.42 315.60 C 315.00 310.95 306.69 306.56 297.61 303.28 C 293.91 301.97 290.32 300.43 286.70 298.93 C 291.01 298.63 294.67 300.94 298.54 302.53 Z" fill="#dd69a3" />
<path d="M 286.70 298.93 C 290.32 300.43 293.91 301.97 297.61 303.28 C 306.69 306.56 315.00 310.95 323.42 315.60 C 334.25 321.32 344.73 325.66 353.97 334.03 C 359.46 339.08 365.20 345.57 367.09 352.95 C 368.99 360.04 369.41 367.71 370.19 375.00 C 371.05 383.03 370.72 390.95 370.87 399.00 C 370.99 407.41 371.09 415.54 369.81 423.89 C 369.00 429.38 367.39 434.71 366.19 440.20 C 362.36 443.11 358.48 445.93 354.25 448.24 C 342.35 455.03 329.92 460.56 316.03 461.29 C 310.52 461.64 305.35 460.34 300.15 458.70 C 299.91 451.10 300.62 443.54 300.16 435.96 C 299.66 424.25 294.56 412.65 287.75 403.25 C 279.94 393.35 268.24 385.89 257.57 379.40 C 255.78 378.24 254.54 377.05 254.30 374.81 C 252.48 359.31 257.87 346.11 262.87 331.87 C 265.94 323.27 270.28 315.21 276.26 308.28 C 279.25 304.87 282.62 301.01 286.70 298.93 Z" fill="#fe9fbf" />
<path d="M 122.14 301.93 C 125.50 307.75 130.96 311.65 136.12 315.88 C 132.10 314.18 126.50 312.81 123.53 309.46 C 122.47 307.19 122.31 304.40 122.14 301.93 Z" fill="#dd69a3" />
<path d="M 381.89 304.94 C 379.01 311.52 373.94 318.78 373.75 326.02 C 373.51 330.13 375.84 332.81 378.00 335.98 C 381.36 340.57 383.97 345.60 386.17 350.83 C 393.37 367.40 396.42 384.84 395.58 402.89 C 395.28 407.75 395.12 412.58 395.75 417.43 C 393.11 418.44 390.43 419.16 387.69 419.87 C 388.20 416.59 388.57 413.28 388.88 409.98 C 390.62 393.84 387.60 376.89 382.39 361.60 C 378.18 349.37 370.87 339.62 362.69 329.80 C 368.11 320.88 374.69 312.49 381.89 304.94 Z" fill="#beb4dc" />
<path d="M 62.61 322.77 C 62.75 330.78 62.94 339.62 67.46 346.56 C 72.01 353.47 79.03 359.28 85.04 364.95 C 89.88 369.56 95.24 373.46 100.64 377.38 C 111.58 385.59 123.42 392.56 134.94 400.06 C 140.68 403.50 146.97 408.01 153.59 409.36 C 159.48 410.39 164.04 406.43 168.28 403.00 C 167.99 413.16 168.33 423.09 170.88 432.98 C 142.67 417.66 115.59 400.13 89.34 381.67 C 78.23 373.93 68.05 365.07 58.83 355.16 C 57.61 353.73 55.98 351.93 55.78 350.01 C 55.11 340.27 57.94 331.20 62.61 322.77 Z" fill="#beb4dc" />
<path d="M 150.79 324.15 C 158.71 326.50 165.75 330.43 173.26 333.76 C 185.70 339.43 197.43 346.43 209.86 352.10 C 221.65 357.49 232.10 364.14 244.28 368.71 C 246.57 369.55 248.94 369.98 251.34 370.32 C 251.42 372.19 251.52 374.07 251.60 375.95 C 248.22 374.53 244.88 373.03 241.60 371.41 C 231.08 366.20 220.36 361.46 209.92 356.09 C 197.87 350.13 185.23 344.24 173.65 337.34 C 166.12 332.73 158.06 329.21 150.79 324.15 Z" fill="#dd69a3" />
<path d="M 205.75 359.26 C 220.90 366.84 236.24 374.04 251.40 381.59 C 257.46 384.65 263.17 388.38 268.73 392.27 C 275.01 396.73 280.73 401.49 285.08 407.92 C 290.27 415.69 294.07 424.69 294.80 434.08 C 296.22 450.43 293.64 467.39 289.11 483.10 C 278.95 480.35 267.30 479.02 258.33 473.69 C 250.79 469.46 243.12 465.83 235.85 461.16 C 220.26 451.34 204.58 441.69 188.78 432.22 C 185.46 430.25 182.48 427.91 180.37 424.63 C 176.34 418.48 173.25 411.33 172.31 404.00 C 172.72 398.22 176.83 394.59 177.77 388.97 C 179.38 380.22 180.74 371.66 184.44 363.46 C 186.35 359.35 187.37 355.72 186.70 351.16 L 186.67 350.15 C 193.36 352.57 199.36 356.22 205.75 359.26 Z" fill="#e0ebf9" />
<path d="M 186.70 351.16 C 187.37 355.72 186.35 359.35 184.44 363.46 C 180.74 371.66 179.38 380.22 177.77 388.97 C 176.83 394.59 172.72 398.22 172.31 404.00 C 171.96 400.94 171.71 397.89 171.74 394.81 C 172.90 388.23 174.72 381.75 176.29 375.26 C 178.45 366.65 182.07 358.71 186.70 351.16 Z" fill="#ffffff" />
<path d="M 439.91 357.81 C 439.82 359.89 439.82 361.99 439.81 364.07 C 441.14 364.35 442.47 364.64 443.82 364.87 C 443.35 365.60 442.87 366.33 442.40 367.06 C 443.18 366.98 443.96 366.90 444.74 366.83 C 442.22 370.45 440.42 374.42 438.52 378.39 C 437.72 378.85 436.92 379.32 436.15 379.82 C 435.15 380.77 434.31 381.84 433.51 382.96 C 432.69 382.49 431.87 382.02 431.05 381.56 C 430.33 379.23 428.92 376.32 429.81 373.91 C 430.99 370.32 434.02 367.45 436.87 365.10 C 437.57 364.54 438.27 363.99 438.98 363.44 C 439.31 361.57 439.64 359.70 439.91 357.81 Z" fill="#783253" />
<path d="M 450.18 366.35 C 447.37 371.50 444.02 376.24 440.39 380.83 C 439.77 380.02 439.14 379.20 438.52 378.39 C 440.42 374.42 442.22 370.45 444.74 366.83 C 446.55 366.66 448.36 366.50 450.18 366.35 Z" fill="#beb4dc" />
<path d="M 440.02 366.94 C 439.04 371.00 437.16 374.60 435.05 378.16 C 433.93 378.03 432.81 377.90 431.70 377.77 C 432.41 375.66 433.03 373.19 434.33 371.37 C 435.80 369.37 437.92 368.18 440.02 366.94 Z" fill="#fe9fbf" />
<path d="M 436.15 379.82 C 436.94 380.89 437.70 381.99 438.42 383.11 C 436.47 387.14 433.82 390.57 431.14 394.12 C 420.91 407.92 410.19 421.86 398.06 434.05 C 391.52 440.72 384.92 447.62 377.44 453.23 C 378.75 450.25 379.88 447.19 381.12 444.18 C 383.89 437.52 385.36 430.07 387.07 423.04 C 389.63 422.38 392.17 421.72 394.68 420.89 C 394.07 423.47 393.31 426.22 393.30 428.88 C 393.19 430.57 395.15 431.69 396.48 430.58 C 399.97 427.89 402.48 423.71 405.39 420.39 C 408.04 417.34 410.40 414.24 412.45 410.75 C 415.16 407.68 418.07 404.82 420.72 401.71 C 425.66 395.89 429.68 389.53 433.51 382.96 C 434.31 381.84 435.15 380.77 436.15 379.82 Z" fill="#beb4dc" />
<path d="M 433.51 382.96 C 429.68 389.53 425.66 395.89 420.72 401.71 C 418.07 404.82 415.16 407.68 412.45 410.75 C 406.99 414.99 401.32 418.75 394.68 420.89 C 392.17 421.72 389.63 422.38 387.07 423.04 C 387.30 421.98 387.50 420.93 387.69 419.87 C 390.43 419.16 393.11 418.44 395.75 417.43 C 411.30 411.41 423.24 395.73 431.05 381.56 C 431.87 382.02 432.69 382.49 433.51 382.96 Z" fill="#4c0c15" />
<path d="M 171.74 394.81 C 171.71 397.89 171.96 400.94 172.31 404.00 C 173.25 411.33 176.34 418.48 180.37 424.63 C 182.48 427.91 185.46 430.25 188.78 432.22 C 204.58 441.69 220.26 451.34 235.85 461.16 C 243.12 465.83 250.79 469.46 258.33 473.69 C 267.30 479.02 278.95 480.35 289.11 483.10 C 288.34 485.61 287.48 488.06 286.33 490.42 C 273.16 484.44 259.68 479.16 246.32 473.63 C 238.52 470.42 231.70 465.70 224.38 461.63 C 209.79 454.38 195.72 446.18 181.13 438.91 C 178.20 437.25 174.61 435.99 173.54 432.47 C 169.75 420.64 170.49 407.01 171.74 394.81 Z" fill="#beb4dc" />
<path d="M 412.45 410.75 C 410.40 414.24 408.04 417.34 405.39 420.39 C 402.48 423.71 399.97 427.89 396.48 430.58 C 395.15 431.69 393.19 430.57 393.30 428.88 C 393.31 426.22 394.07 423.47 394.68 420.89 C 401.32 418.75 406.99 414.99 412.45 410.75 Z" fill="#e0ebf9" />
<path d="M 380.06 433.96 C 379.01 441.53 375.61 448.11 371.45 454.41 C 367.65 460.01 362.31 464.82 357.18 469.19 C 348.26 476.67 338.37 482.81 327.89 487.86 C 323.70 489.80 319.21 491.00 314.62 491.55 C 307.05 492.34 299.64 493.06 292.09 491.66 C 293.00 488.74 293.99 485.84 294.92 482.93 C 302.25 483.22 310.44 485.02 317.38 482.43 C 325.11 479.70 332.49 476.89 339.41 472.44 C 343.78 469.60 348.50 466.88 352.30 463.30 C 356.81 458.82 360.07 452.91 362.03 446.90 C 368.19 442.81 373.80 437.88 380.06 433.96 Z" fill="#dd69a3" />
<path d="M 362.03 446.90 C 360.07 452.91 356.81 458.82 352.30 463.30 C 348.50 466.88 343.78 469.60 339.41 472.44 C 332.49 476.89 325.11 479.70 317.38 482.43 C 310.44 485.02 302.25 483.22 294.92 482.93 C 297.03 476.22 298.07 468.92 299.35 461.99 C 306.65 463.20 313.37 464.86 320.86 463.70 C 336.23 461.62 348.89 454.62 362.03 446.90 Z" fill="#fe9fbf" />
</svg>
